<?xml version="1.0" encoding="utf-8"?>
<!-- Generator: Adobe Illustrator 21.0.0, SVG Export Plug-In . SVG Version: 6.00 Build 0)  -->
<svg version="1.1" id="Слой_1" xmlns="http://www.w3.org/2000/svg" xmlns:xlink="http://www.w3.org/1999/xlink" x="0px" y="0px"
	 viewBox="0 0 115.7 115.7" style="enable-background:new 0 0 115.7 115.7;" xml:space="preserve">
<style type="text/css">
	.st0{fill:url(#SVGID_1_);}
	.st1{fill:#E2E2E2;}
</style>
<g>
	<linearGradient id="SVGID_1_" gradientUnits="userSpaceOnUse" x1="86.5689" y1="8.0866" x2="29.1158" y2="107.5982">
		<stop  offset="0" style="stop-color:#D4DE4E"/>
		<stop  offset="0.117" style="stop-color:#D8D04F"/>
		<stop  offset="0.3589" style="stop-color:#E4AF53"/>
		<stop  offset="0.4081" style="stop-color:#E9A854"/>
		<stop  offset="0.7467" style="stop-color:#DB7574"/>
		<stop  offset="1" style="stop-color:#D65988"/>
	</linearGradient>
	<path class="st0" d="M61.6,9V0.5c28.7,1.9,51.7,24.9,53.6,53.6h-8.5C104.8,30.1,85.6,10.9,61.6,9z M54.1,9V0.5
		C25.4,2.4,2.4,25.4,0.5,54.1H9C10.9,30.1,30.1,10.9,54.1,9z M61.6,106.6v8.5c28.7-1.9,51.7-24.9,53.6-53.6h-8.5
		C104.8,85.6,85.6,104.8,61.6,106.6z M9,61.6H0.5c1.9,28.7,24.9,51.7,53.6,53.6v-8.5C30.1,104.8,10.9,85.6,9,61.6z"/>
	<path class="st1" d="M54.1,9V0.5C25.4,2.4,2.4,25.4,0.5,54.1H9C10.9,30.1,30.1,10.9,54.1,9z M61.6,106.6v8.5
		c28.7-1.9,51.7-24.9,53.6-53.6h-8.5C104.8,85.6,85.6,104.8,61.6,106.6z M9,61.6H0.5c1.9,28.7,24.9,51.7,53.6,53.6v-8.5
		C30.1,104.8,10.9,85.6,9,61.6z"/>
</g>
</svg>
