<?xml version="1.0" encoding="utf-8"?>
<!-- Generator: Adobe Illustrator 21.0.0, SVG Export Plug-In . SVG Version: 6.00 Build 0)  -->
<svg version="1.1" id="Слой_1" xmlns="http://www.w3.org/2000/svg" xmlns:xlink="http://www.w3.org/1999/xlink" x="0px" y="0px"
	 viewBox="0 0 1920 106.4" style="enable-background:new 0 0 1920 106.4;" xml:space="preserve">
<style type="text/css">
	.st0{fill:url(#SVGID_1_);}
	.st1{fill:#FFFFFF;}
</style>
<linearGradient id="SVGID_1_" gradientUnits="userSpaceOnUse" x1="283.065" y1="-1397.6144" x2="-574.8548" y2="88.3462" gradientTransform="matrix(6.123234e-17 1 -1 6.123234e-17 305.4276 199.0724)">
	<stop  offset="0" style="stop-color:#D4DE4E"/>
	<stop  offset="0.117" style="stop-color:#D8D04F"/>
	<stop  offset="0.3589" style="stop-color:#E4AF53"/>
	<stop  offset="0.4081" style="stop-color:#E9A854"/>
	<stop  offset="0.7467" style="stop-color:#DB7574"/>
	<stop  offset="1" style="stop-color:#D65988"/>
</linearGradient>
<polygon class="st0" points="0.1,106.4 0.1,0 1920,0 1920,106.4 "/>
<g>
	<g>
		<path class="st1" d="M778.2,19.2c4.8,0,8.5,1.1,11.1,3.2c2.6,2.2,3.9,5.4,3.9,9.7c0,3.2-0.7,5.8-2.2,7.7s-3.2,3.2-5.3,3.8
			c2.5,0.6,4.7,1.9,6.6,4c1.9,2.1,2.9,5.1,3,9c0,2.3-0.4,4.3-1.1,6c-0.8,1.7-1.7,3.1-2.9,4.1c-1.2,1-2.5,1.8-4.1,2.4
			c-1.6,0.6-3.1,1-4.5,1.2c-1.4,0.2-2.9,0.3-4.4,0.3h-15.1V19.2H778.2z M777.8,23.4h-10.2v18.5H779c2.9,0,5.3-0.8,7-2.3
			c1.8-1.5,2.7-3.8,2.7-6.9c0-3.3-0.9-5.7-2.7-7.2C784.2,24.1,781.5,23.4,777.8,23.4z M778.8,46h-11.1v20.6h9.8c1.5,0,2.7,0,3.8-0.1
			c1.1-0.1,2.2-0.3,3.5-0.7c1.3-0.4,2.3-0.9,3.1-1.6c0.8-0.7,1.5-1.7,2.1-3c0.6-1.3,0.8-2.9,0.8-4.7C790.7,49.5,786.7,46,778.8,46z"
			/>
		<path class="st1" d="M834.2,70.8V35.4h4.2v35.4H834.2z M802.3,70.8V35.4h4.2v12.9h8.8c4,0,7,1.1,9,3.2c2,2.1,3.1,4.8,3.1,8
			c0,3.2-1,5.9-3.1,8c-2,2.2-5.1,3.2-9,3.2H802.3z M806.5,67.1h8.3c2.8,0,4.9-0.7,6.3-2c1.4-1.4,2.1-3.2,2.1-5.5
			c0-2.3-0.7-4.1-2.1-5.4c-1.4-1.4-3.5-2-6.3-2h-8.3V67.1z"/>
		<path class="st1" d="M862.1,70.8V35.4h25.4v35.4h-4.2V39.2h-17v31.7H862.1z"/>
		<path class="st1" d="M909.1,34.6c4.6,0,8.2,1.6,10.7,4.8c2.5,3.2,3.7,7.8,3.7,13.7c0,5.9-1.2,10.4-3.7,13.7
			c-2.5,3.2-6,4.9-10.7,4.9c-4.6,0-8.1-1.6-10.6-4.9c-2.5-3.3-3.8-7.8-3.8-13.6c0-5.8,1.3-10.3,3.8-13.6
			C901,36.2,904.5,34.6,909.1,34.6z M916.7,42.3c-1.7-2.6-4.2-3.8-7.6-3.8c-3.3,0-5.9,1.3-7.6,3.9c-1.7,2.6-2.5,6.2-2.5,10.8
			c0,4.6,0.8,8.2,2.5,10.8c1.7,2.6,4.2,3.8,7.6,3.8c3.3,0,5.9-1.3,7.6-3.8c1.7-2.6,2.5-6.1,2.5-10.8
			C919.2,48.4,918.4,44.8,916.7,42.3z"/>
		<path class="st1" d="M925.8,70.8v-3.5c2.3,0.5,4,0.2,5.3-1.1c1.4-1.5,2.3-4.5,2.8-9c0.5-4.6,0.9-11.8,1.3-21.7h20.6v35.4h-4.2
			V39.3h-12.3c-0.3,6.3-0.6,11-0.8,14c-0.2,3-0.7,6.1-1.4,9.2c-0.7,3.1-1.7,5.3-3,6.6C932,71.1,929.3,71.7,925.8,70.8z"/>
		<path class="st1" d="M964.7,87.1v-3.8c2.1,0.3,3.7,0,5-1c1.5-1.1,2.9-3.5,4.1-7.1l1.4-4.3L961,35.4h4.4l11.7,30.2l9.7-30.2h4.5
			l-13.6,40.9c-1.6,4.6-3.4,7.7-5.6,9.2C970.1,87,967.6,87.5,964.7,87.1z"/>
		<path class="st1" d="M1015.7,70.8V57c-2.6,1.3-5.6,1.9-9,1.9c-3.5,0-6.4-0.9-8.5-2.8c-2.1-1.9-3.2-4.6-3.2-8.3V35.4h4.1v12.1
			c0,2.6,0.7,4.5,2.2,5.7c1.5,1.3,3.5,1.9,6,1.9c3,0,5.8-0.6,8.3-1.9V35.4h4.1v35.4H1015.7z"/>
		<path class="st1" d="M1054.6,67.5c0.5,0,1-0.1,1.4-0.2v3.5c-0.9,0.2-1.7,0.4-2.5,0.4c-3,0-4.8-1.5-5.5-4.4
			c-2.4,3.2-5.9,4.9-10.5,4.9c-3.2,0-5.9-0.9-8-2.7c-2.2-1.8-3.2-4.4-3.2-7.9c0-3.7,1.3-6.5,3.8-8.5c2.6-2,5.9-3,10.1-3
			c2.2,0,4.6,0.3,7.2,1v-3.7c0-5.7-3-8.5-8.9-8.5c-3.2,0-6.6,0.7-10.2,2.2v-4.1c3.6-1.3,7.1-2,10.6-2c8.4,0,12.5,4.3,12.5,12.8v16.7
			C1051.5,66.4,1052.6,67.5,1054.6,67.5z M1038.1,67.9c4.3,0,7.4-1.8,9.3-5.5v-8.3c-2.2-0.6-4.4-1-6.6-1c-3.1,0-5.7,0.6-7.5,1.9
			c-1.9,1.3-2.8,3.1-2.8,5.6c0,2.3,0.7,4,2.1,5.3C1034,67.3,1035.8,67.9,1038.1,67.9z"/>
		<path class="st1" d="M1075.8,71.6c-5.4,0-9.5-1.6-12.3-4.9c-2.8-3.3-4.2-7.8-4.2-13.6c0-5.6,1.3-10.1,3.8-13.5
			c2.6-3.4,6.1-5.1,10.6-5.1c4.8,0,8.3,1.9,10.6,5.7c2.2,3.8,3,8.8,2.4,14.9h-23c0.6,8.4,4.7,12.5,12.4,12.5c3.1,0,6-0.6,8.6-1.9
			v3.9C1082,71,1079.1,71.6,1075.8,71.6z M1063.6,51.5h19.2c0.1-4.1-0.5-7.3-2.1-9.5c-1.5-2.3-3.9-3.4-7-3.4c-3.1,0-5.5,1.1-7.2,3.4
			C1064.7,44.3,1063.8,47.4,1063.6,51.5z"/>
		<path class="st1" d="M1099.8,70.8V39.2h-10.4v-3.8h25.1v3.8H1104v31.7H1099.8z"/>
		<path class="st1" d="M1133.6,71.6c-5.4,0-9.5-1.6-12.3-4.9c-2.8-3.3-4.2-7.8-4.2-13.6c0-5.6,1.3-10.1,3.8-13.5
			c2.6-3.4,6.1-5.1,10.6-5.1c4.8,0,8.3,1.9,10.6,5.7c2.2,3.8,3,8.8,2.4,14.9h-23c0.6,8.4,4.7,12.5,12.4,12.5c3.1,0,6-0.6,8.6-1.9
			v3.9C1139.8,71,1136.9,71.6,1133.6,71.6z M1121.4,51.5h19.2c0.1-4.1-0.5-7.3-2.1-9.5c-1.5-2.3-3.9-3.4-7-3.4
			c-3.1,0-5.5,1.1-7.2,3.4C1122.5,44.3,1121.6,47.4,1121.4,51.5z"/>
		<path class="st1" d="M1156.1,43.8c-0.5,0.5-1.2,0.8-2.1,0.8c-0.8,0-1.5-0.3-2.1-0.8c-0.6-0.5-0.8-1.2-0.8-2.2
			c0-0.9,0.3-1.7,0.8-2.2c0.6-0.5,1.3-0.8,2.1-0.8c0.8,0,1.5,0.3,2.1,0.8c0.5,0.5,0.8,1.2,0.8,2.2
			C1156.9,42.5,1156.7,43.3,1156.1,43.8z M1156.1,70.6c-0.5,0.5-1.2,0.8-2.1,0.8c-0.8,0-1.5-0.3-2.1-0.8c-0.6-0.5-0.8-1.2-0.8-2.2
			c0-0.9,0.3-1.7,0.8-2.2c0.6-0.5,1.3-0.8,2.1-0.8c0.8,0,1.5,0.3,2.1,0.8c0.5,0.5,0.8,1.2,0.8,2.2
			C1156.9,69.4,1156.7,70.1,1156.1,70.6z"/>
	</g>
</g>
</svg>
