<?xml version="1.0" encoding="utf-8"?>
<!-- Generator: Adobe Illustrator 21.0.0, SVG Export Plug-In . SVG Version: 6.00 Build 0)  -->
<svg version="1.1" id="Слой_1" xmlns="http://www.w3.org/2000/svg" xmlns:xlink="http://www.w3.org/1999/xlink" x="0px" y="0px"
	 viewBox="0 0 106.4 504.5" style="enable-background:new 0 0 106.4 504.5;" xml:space="preserve">
<style type="text/css">
	.st0{fill:url(#SVGID_1_);}
	.st1{fill:#FFFFFF;}
</style>
<linearGradient id="SVGID_1_" gradientUnits="userSpaceOnUse" x1="175.6994" y1="40.0359" x2="-69.3443" y2="464.4641">
	<stop  offset="0" style="stop-color:#D4DE4E"/>
	<stop  offset="0.117" style="stop-color:#D8D04F"/>
	<stop  offset="0.3589" style="stop-color:#E4AF53"/>
	<stop  offset="0.4081" style="stop-color:#E9A854"/>
	<stop  offset="0.7467" style="stop-color:#DB7574"/>
	<stop  offset="1" style="stop-color:#D65988"/>
</linearGradient>
<rect class="st0" width="106.4" height="504.5"/>
<g>
	<g>
		<path class="st1" d="M22.3,433.4c0-4.8,1.1-8.5,3.2-11.1c2.2-2.6,5.4-3.9,9.7-3.9c3.2,0,5.8,0.7,7.7,2.2s3.2,3.2,3.8,5.3
			c0.6-2.5,1.9-4.7,4-6.6c2.1-1.9,5.1-2.9,9-3c2.3,0,4.3,0.4,6,1.1c1.7,0.8,3.1,1.7,4.1,2.9c1,1.2,1.8,2.5,2.4,4.1
			c0.6,1.6,1,3.1,1.2,4.5c0.2,1.4,0.3,2.9,0.3,4.4v15.1H22.3V433.4z M26.5,433.8V444H45v-11.4c0-2.9-0.8-5.3-2.3-7
			c-1.5-1.8-3.8-2.7-6.9-2.7c-3.3,0-5.7,0.9-7.2,2.7C27.2,427.4,26.5,430.1,26.5,433.8z M49.2,432.8V444h20.6v-9.8
			c0-1.5,0-2.7-0.1-3.8c-0.1-1.1-0.3-2.2-0.7-3.5c-0.4-1.3-0.9-2.3-1.6-3.1c-0.7-0.8-1.7-1.5-3-2.1c-1.3-0.6-2.9-0.8-4.7-0.8
			C52.6,420.9,49.2,424.9,49.2,432.8z"/>
		<path class="st1" d="M74,377.4H38.5v-4.2H74V377.4z M74,409.3H38.5v-4.2h12.9v-8.8c0-4,1.1-7,3.2-9c2.1-2,4.8-3.1,8-3.1
			c3.2,0,5.9,1,8,3.1c2.2,2,3.2,5.1,3.2,9V409.3z M70.2,405.1v-8.3c0-2.8-0.7-4.9-2-6.3c-1.4-1.4-3.2-2.1-5.5-2.1
			c-2.3,0-4.1,0.7-5.4,2.1c-1.4,1.4-2,3.5-2,6.3v8.3H70.2z"/>
		<path class="st1" d="M74,349.5H38.5v-25.4H74v4.2H42.3v17H74V349.5z"/>
		<path class="st1" d="M37.7,302.5c0-4.6,1.6-8.2,4.8-10.7c3.2-2.5,7.8-3.7,13.7-3.7c5.9,0,10.4,1.2,13.7,3.7
			c3.2,2.5,4.9,6,4.9,10.7c0,4.6-1.6,8.1-4.9,10.6c-3.3,2.5-7.8,3.8-13.6,3.8c-5.8,0-10.3-1.3-13.6-3.8
			C39.4,310.6,37.7,307.1,37.7,302.5z M45.4,294.9c-2.6,1.7-3.8,4.2-3.8,7.6c0,3.3,1.3,5.9,3.9,7.6c2.6,1.7,6.2,2.5,10.8,2.5
			c4.6,0,8.2-0.8,10.8-2.5c2.6-1.7,3.8-4.2,3.8-7.6c0-3.3-1.3-5.9-3.8-7.6c-2.6-1.7-6.1-2.5-10.8-2.5
			C51.6,292.4,48,293.2,45.4,294.9z"/>
		<path class="st1" d="M74,285.8h-3.5c0.5-2.3,0.2-4-1.1-5.3c-1.5-1.4-4.5-2.3-9-2.8c-4.6-0.5-11.8-0.9-21.7-1.3v-20.6H74v4.2H42.4
			v12.3c6.3,0.3,11,0.6,14,0.8c3,0.2,6.1,0.7,9.2,1.4c3.1,0.7,5.3,1.7,6.6,3C74.2,279.6,74.8,282.3,74,285.8z"/>
		<path class="st1" d="M90.2,246.9h-3.8c0.3-2.1,0-3.7-1-5c-1.1-1.5-3.5-2.9-7.1-4.1l-4.3-1.4l-35.6,14.2v-4.4l30.2-11.7l-30.2-9.7
			v-4.5l40.9,13.6c4.6,1.6,7.7,3.4,9.2,5.6C90.1,241.5,90.6,244,90.2,246.9z"/>
		<path class="st1" d="M74,195.9H60.2c1.3,2.6,1.9,5.6,1.9,9c0,3.5-0.9,6.4-2.8,8.5c-1.9,2.1-4.6,3.2-8.3,3.2H38.5v-4.1h12.1
			c2.6,0,4.5-0.7,5.7-2.2c1.3-1.5,1.9-3.5,1.9-6c0-3-0.6-5.8-1.9-8.3H38.5v-4.1H74V195.9z"/>
		<path class="st1" d="M70.6,157c0-0.5-0.1-1-0.2-1.4h3.5c0.2,0.9,0.4,1.7,0.4,2.5c0,3-1.5,4.8-4.4,5.5c3.2,2.4,4.9,5.9,4.9,10.5
			c0,3.2-0.9,5.9-2.7,8c-1.8,2.2-4.4,3.2-7.9,3.2c-3.7,0-6.5-1.3-8.5-3.8c-2-2.6-3-5.9-3-10.1c0-2.2,0.3-4.6,1-7.2H50
			c-5.7,0-8.5,3-8.5,8.9c0,3.2,0.7,6.6,2.2,10.2h-4.1c-1.3-3.6-2-7.1-2-10.6c0-8.4,4.3-12.5,12.8-12.5h16.7
			C69.5,160.1,70.6,159,70.6,157z M71.1,173.5c0-4.3-1.8-7.4-5.5-9.3h-8.3c-0.6,2.2-1,4.4-1,6.6c0,3.1,0.6,5.7,1.9,7.5
			c1.3,1.9,3.1,2.8,5.6,2.8c2.3,0,4-0.7,5.3-2.1C70.4,177.6,71.1,175.8,71.1,173.5z"/>
		<path class="st1" d="M74.8,135.8c0,5.4-1.6,9.5-4.9,12.3c-3.3,2.8-7.8,4.2-13.6,4.2c-5.6,0-10.1-1.3-13.5-3.8
			c-3.4-2.6-5.1-6.1-5.1-10.6c0-4.8,1.9-8.3,5.7-10.6c3.8-2.2,8.8-3,14.9-2.4v23c8.4-0.6,12.5-4.7,12.5-12.4c0-3.1-0.6-6-1.9-8.6
			h3.9C74.1,129.6,74.8,132.5,74.8,135.8z M54.6,148v-19.2c-4.1-0.1-7.3,0.5-9.5,2.1c-2.3,1.5-3.4,3.9-3.4,7c0,3.1,1.1,5.5,3.4,7.2
			C47.4,146.9,50.6,147.8,54.6,148z"/>
		<path class="st1" d="M74,111.8H42.3v10.4h-3.8V97.1h3.8v10.5H74V111.8z"/>
		<path class="st1" d="M74.8,78c0,5.4-1.6,9.5-4.9,12.3c-3.3,2.8-7.8,4.2-13.6,4.2c-5.6,0-10.1-1.3-13.5-3.8
			c-3.4-2.6-5.1-6.1-5.1-10.6c0-4.8,1.9-8.3,5.7-10.6c3.8-2.2,8.8-3,14.9-2.4v23c8.4-0.6,12.5-4.7,12.5-12.4c0-3.1-0.6-6-1.9-8.6
			h3.9C74.1,71.8,74.8,74.7,74.8,78z M54.6,90.3V71.1c-4.1-0.1-7.3,0.5-9.5,2.1c-2.3,1.5-3.4,3.9-3.4,7c0,3.1,1.1,5.5,3.4,7.2
			C47.4,89.1,50.6,90.1,54.6,90.3z"/>
		<path class="st1" d="M46.9,55.5c0.5,0.5,0.8,1.2,0.8,2.1c0,0.8-0.3,1.5-0.8,2.1c-0.5,0.6-1.2,0.8-2.2,0.8c-0.9,0-1.7-0.3-2.2-0.8
			c-0.5-0.6-0.8-1.3-0.8-2.1c0-0.8,0.3-1.5,0.8-2.1c0.5-0.5,1.2-0.8,2.2-0.8C45.7,54.7,46.4,54.9,46.9,55.5z M73.8,55.5
			c0.5,0.5,0.8,1.2,0.8,2.1c0,0.8-0.3,1.5-0.8,2.1c-0.5,0.6-1.2,0.8-2.2,0.8c-0.9,0-1.7-0.3-2.2-0.8c-0.5-0.6-0.8-1.3-0.8-2.1
			c0-0.8,0.3-1.5,0.8-2.1c0.5-0.5,1.2-0.8,2.2-0.8C72.5,54.7,73.3,54.9,73.8,55.5z"/>
	</g>
</g>
</svg>
