<?xml version="1.0" encoding="iso-8859-1"?>
<!-- Generator: Adobe Illustrator 19.0.0, SVG Export Plug-In . SVG Version: 6.00 Build 0)  -->
<svg version="1.1" id="Capa_1" xmlns="http://www.w3.org/2000/svg" xmlns:xlink="http://www.w3.org/1999/xlink" x="0px" y="0px"
	 viewBox="0 0 496.941 496.941" style="enable-background:new 0 0 496.941 496.941;" xml:space="preserve">
<g>
	<g>
		<g>
			<path d="M456.282,30.118h-42.165C410.353,12.8,395.294,0,377.224,0s-33.129,12.8-36.894,30.118H156.612
				C152.847,12.8,137.788,0,119.718,0c-18.071,0-33.882,12.8-36.894,30.118H40.659C18.071,30.118,0,48.188,0,70.776v313.976
				c0,22.588,18.071,40.659,40.659,40.659h246.212c12.8,41.412,51.2,71.529,96.376,71.529c48.941,0,89.6-34.635,98.635-80.565
				c9.035-7.529,15.059-19.576,15.059-31.624V70.776C496.941,48.188,478.871,30.118,456.282,30.118z M377.224,15.059
				c12.8,0,22.588,9.788,22.588,22.588s-9.788,22.588-22.588,22.588s-22.588-9.788-22.588-22.588S365.176,15.059,377.224,15.059z
				 M119.718,15.059c12.8,0,22.588,9.788,22.588,22.588s-9.788,22.588-22.588,22.588c-12.8,0-22.588-9.788-22.588-22.588
				S106.918,15.059,119.718,15.059z M383.247,481.882c-47.435,0-85.835-38.4-85.835-85.835s38.4-85.835,85.835-85.835
				s85.835,38.4,85.835,85.835C469.082,443.482,430.682,481.882,383.247,481.882z M481.882,374.965
				c-9.788-45.176-50.447-79.059-98.635-79.059c-55.718,0-100.894,45.177-100.894,100.894c0,5.271,0.753,9.788,1.506,15.059h-243.2
				v-0.753c-14.306,0-25.6-12.047-25.6-26.353V127.247h466.823V374.965z M481.882,111.435H15.059V70.776
				c0-14.306,11.294-25.6,25.6-25.6h42.165c3.765,17.318,18.823,30.118,36.894,30.118c18.071,0,33.129-12.8,36.894-30.118h184.471
				c3.765,17.318,18.824,30.118,36.894,30.118c18.071,0,33.129-12.8,36.894-30.118h41.412c14.306,0,25.6,11.294,25.6,25.6V111.435z"
				/>
			<path d="M49.694,208.565h40.659c4.518,0,7.529-3.012,7.529-7.529v-40.659c0-3.765-3.012-7.529-7.529-7.529H49.694
				c-4.518,0-7.529,3.012-7.529,7.529v40.659C42.165,205.553,45.176,208.565,49.694,208.565z M57.224,167.906h25.6v25.6h-25.6
				V167.906z"/>
			<path d="M137.788,208.565h40.659c4.518,0,7.529-3.012,7.529-7.529v-40.659c0-3.765-3.012-7.529-7.529-7.529h-40.659
				c-4.518,0-7.529,3.012-7.529,7.529v40.659C130.259,205.553,133.271,208.565,137.788,208.565z M145.318,167.906h25.6v25.6h-25.6
				V167.906z"/>
			<path d="M225.882,208.565h40.659c4.518,0,7.529-3.012,7.529-7.529v-40.659c0-4.518-3.012-7.529-7.529-7.529h-40.659
				c-4.518,0-7.529,3.012-7.529,7.529v40.659C218.353,205.553,222.118,208.565,225.882,208.565z M233.412,167.906h25.6v25.6h-25.6
				V167.906z"/>
			<path d="M313.976,208.565h40.659c4.518,0,7.529-3.012,7.529-7.529v-40.659c0-4.518-3.012-7.529-7.529-7.529h-40.659
				c-4.518,0-7.529,3.012-7.529,7.529v40.659C306.447,205.553,310.212,208.565,313.976,208.565z M321.506,167.906h25.6v25.6h-25.6
				V167.906z"/>
			<path d="M402.071,208.565h40.659c4.518,0,7.529-3.012,7.529-7.529v-40.659c0-4.518-3.012-7.529-7.529-7.529h-40.659
				c-4.518,0-7.529,3.012-7.529,7.529v40.659C394.541,205.553,398.306,208.565,402.071,208.565z M409.6,167.906h25.6v25.6h-25.6
				V167.906z"/>
			<path d="M49.694,288.376h40.659c4.518,0,7.529-3.012,7.529-7.529v-40.659c0-3.765-3.012-7.529-7.529-7.529H49.694
				c-4.518,0-7.529,3.012-7.529,7.529v40.659C42.165,285.365,45.176,288.376,49.694,288.376z M57.224,248.471h25.6v25.6h-25.6
				V248.471z"/>
			<path d="M137.788,288.376h40.659c4.518,0,7.529-3.012,7.529-7.529v-40.659c0-3.765-3.012-7.529-7.529-7.529h-40.659
				c-4.518,0-7.529,3.012-7.529,7.529v40.659C130.259,285.365,133.271,288.376,137.788,288.376z M145.318,248.471h25.6v25.6h-25.6
				V248.471z"/>
			<path d="M313.976,289.129h40.659c4.518,0,7.529-3.012,7.529-7.529v-40.659c0-4.518-3.012-7.529-7.529-7.529h-40.659
				c-4.518,0-7.529,3.012-7.529,7.529V281.6C306.447,285.365,310.212,289.129,313.976,289.129z M321.506,247.718h25.6v25.6h-25.6
				V247.718z"/>
			<path d="M402.071,289.129h40.659c4.518,0,7.529-3.012,7.529-7.529v-40.659c0-4.518-3.012-7.529-7.529-7.529h-40.659
				c-4.518,0-7.529,3.012-7.529,7.529V281.6C394.541,285.365,398.306,289.129,402.071,289.129z M409.6,247.718h25.6v25.6h-25.6
				V247.718z"/>
			<path d="M49.694,368.941h40.659c4.518,0,7.529-3.012,7.529-7.529v-40.659c0-4.518-3.012-7.529-7.529-7.529H49.694
				c-4.518,0-7.529,3.012-7.529,7.529v40.659C42.165,365.929,45.176,368.941,49.694,368.941z M57.224,328.282h25.6v25.6h-25.6
				V328.282z"/>
			<path d="M137.788,368.941h40.659c4.518,0,7.529-3.012,7.529-7.529v-40.659c0-4.518-3.012-7.529-7.529-7.529h-40.659
				c-4.518,0-7.529,3.012-7.529,7.529v40.659C130.259,365.929,133.271,368.941,137.788,368.941z M145.318,328.282h25.6v25.6h-25.6
				V328.282z"/>
			<path d="M266.541,313.224h-40.659c-4.518,0-7.529,3.012-7.529,7.529v40.659c0,4.518,3.012,7.529,7.529,7.529h40.659
				c4.518,0,7.529-3.012,7.529-7.529v-40.659C274.071,316.235,271.059,313.224,266.541,313.224z M259.012,353.882h-25.6v-25.6h25.6
				V353.882z"/>
			<path d="M232.659,286.871c0.753,0.753,3.012,1.506,5.271,2.259c2.259,0,4.518-0.753,6.024-2.259l43.671-44.424
				c3.012-3.012,3.012-7.529,0-10.541s-7.529-3.012-10.541,0l-37.647,38.4l-12.047-16.565c-2.259-3.012-7.529-3.765-10.541-1.506
				c-3.012,2.259-3.765,6.776-1.506,10.541L232.659,286.871z"/>
			<path d="M390.776,376.471v-37.647c0-4.518-3.012-7.529-7.529-7.529s-7.529,3.012-7.529,7.529v37.647
				c-7.529,3.012-13.553,10.541-13.553,19.576c0,11.294,9.788,21.082,21.082,21.082c9.035,0,16.565-5.271,19.576-13.553h42.165
				c4.518,0,7.529-3.012,7.529-7.529s-3.012-7.529-7.529-7.529h-42.165C400.565,383.247,396.047,378.729,390.776,376.471z
				 M383.247,402.071c-3.012,0-6.024-3.012-6.024-6.024c0-3.012,3.012-6.023,6.024-6.023c3.012,0,6.023,3.012,6.023,6.023
				C389.271,399.059,387.012,402.071,383.247,402.071z"/>
		</g>
	</g>
</g>
<g>
</g>
<g>
</g>
<g>
</g>
<g>
</g>
<g>
</g>
<g>
</g>
<g>
</g>
<g>
</g>
<g>
</g>
<g>
</g>
<g>
</g>
<g>
</g>
<g>
</g>
<g>
</g>
<g>
</g>
</svg>
