<?xml version="1.0" encoding="utf-8"?>
<!-- Generator: Adobe Illustrator 21.0.0, SVG Export Plug-In . SVG Version: 6.00 Build 0)  -->
<svg version="1.1" id="Слой_1" xmlns="http://www.w3.org/2000/svg" xmlns:xlink="http://www.w3.org/1999/xlink" x="0px" y="0px"
	 viewBox="0 0 109.4 100" style="enable-background:new 0 0 109.4 100;" xml:space="preserve">
<style type="text/css">
	.st0{fill:#090E0D;stroke:#FFFFFF;stroke-miterlimit:10;}
</style>
<g>
	<g>
		<g>
			<path class="st0" d="M109.3,42.8L96.7,4c-0.4-1.1-1.6-1.7-2.7-1.4l-92.5,30c-1.1,0.4-1.7,1.6-1.4,2.7l6,18.4c0,0,0,0.1,0,0.1
				v40.8c0,1.2,1,2.1,2.1,2.1h97.2c1.2,0,2.1-1,2.1-2.1V53.9c0-1.2-1-2.1-2.1-2.1H88.8l19.2-6.2C109.1,45.1,109.7,43.9,109.3,42.8z
				 M103.4,56v36.5H10.5V56h11.8v23.8c0,1.2,1,2.1,2.1,2.1c1.2,0,2.1-1,2.1-2.1V56h48.8H103.4z M75,51.7H10L4.9,36.1l11.3-3.7
				l4.3,13.1c0.3,0.9,1.1,1.5,2,1.5c0.2,0,0.4,0,0.7-0.1c1.1-0.4,1.7-1.6,1.4-2.7l-4.3-13.1L93.3,7.4l11.3,34.7L75,51.7z"/>
			<path class="st0" d="M90.1,16.8c-0.4-1.1-1.6-1.7-2.7-1.4L31.7,33.5c-1.1,0.4-1.7,1.6-1.4,2.7c0.3,0.9,1.1,1.5,2,1.5
				c0.2,0,0.4,0,0.7-0.1l55.7-18.1C89.9,19.1,90.5,17.9,90.1,16.8z"/>
			<path class="st0" d="M80.7,30.6l10.5-3.4c1.1-0.4,1.7-1.6,1.4-2.7c-0.4-1.1-1.6-1.7-2.7-1.4l-10.5,3.4c-1.1,0.4-1.7,1.6-1.4,2.7
				c0.3,0.9,1.1,1.5,2,1.5C80.3,30.7,80.5,30.7,80.7,30.6z"/>
			<path class="st0" d="M89.6,40.4c0.3,0.9,1.1,1.5,2,1.5c0.2,0,0.4,0,0.7-0.1l3.3-1.1c1.1-0.4,1.7-1.6,1.4-2.7
				c-0.4-1.1-1.6-1.7-2.7-1.4L91,37.7C89.9,38.1,89.3,39.3,89.6,40.4z"/>
			<path class="st0" d="M83.5,40.2l-3.3,1.1c-1.1,0.4-1.7,1.6-1.4,2.7c0.3,0.9,1.1,1.5,2,1.5c0.2,0,0.4,0,0.7-0.1l3.3-1.1
				c1.1-0.4,1.7-1.6,1.4-2.7C85.9,40.4,84.7,39.8,83.5,40.2z"/>
			<path class="st0" d="M53.7,34.9l-19.5,6.3c-1.1,0.4-1.7,1.6-1.4,2.7c0.3,0.9,1.1,1.5,2,1.5c0.2,0,0.4,0,0.7-0.1L55.1,39
				c1.1-0.4,1.7-1.6,1.4-2.7C56.1,35.1,54.9,34.5,53.7,34.9z"/>
			<path class="st0" d="M24.4,84.8c-1.2,0-2.1,1-2.1,2.1v0.8c0,1.2,1,2.1,2.1,2.1s2.1-1,2.1-2.1v-0.8C26.6,85.7,25.6,84.8,24.4,84.8
				z"/>
			<path class="st0" d="M34.6,63.9c0,1.2,1,2.1,2.1,2.1h58.5c1.2,0,2.1-1,2.1-2.1s-1-2.1-2.1-2.1H36.8
				C35.6,61.8,34.6,62.7,34.6,63.9z"/>
			<path class="st0" d="M95.3,69.9H84.2c-1.2,0-2.1,1-2.1,2.1s1,2.1,2.1,2.1h11.1c1.2,0,2.1-1,2.1-2.1
				C97.4,70.9,96.5,69.9,95.3,69.9z"/>
			<path class="st0" d="M95.3,84.1h-3.5c-1.2,0-2.1,1-2.1,2.1s1,2.1,2.1,2.1h3.5c1.2,0,2.1-1,2.1-2.1S96.5,84.1,95.3,84.1z"/>
			<path class="st0" d="M84,84.1h-3.5c-1.2,0-2.1,1-2.1,2.1s1,2.1,2.1,2.1H84c1.2,0,2.1-1,2.1-2.1S85.1,84.1,84,84.1z"/>
			<path class="st0" d="M57.2,69.9H36.8c-1.2,0-2.1,1-2.1,2.1s1,2.1,2.1,2.1h20.5c1.2,0,2.1-1,2.1-2.1
				C59.4,70.9,58.4,69.9,57.2,69.9z"/>
		</g>
	</g>
</g>
</svg>
