<?xml version="1.0" encoding="utf-8"?>
<!-- Generator: Adobe Illustrator 21.0.0, SVG Export Plug-In . SVG Version: 6.00 Build 0)  -->
<svg version="1.1" id="Слой_1" xmlns="http://www.w3.org/2000/svg" xmlns:xlink="http://www.w3.org/1999/xlink" x="0px" y="0px"
	 viewBox="0 0 100 100" style="enable-background:new 0 0 100 100;" xml:space="preserve">
<style type="text/css">
	.st0{fill:#090E0D;}
</style>
<g>
	<path class="st0" d="M95.8,45H90V34.6c0-2.5-2-4.6-4.6-4.6H80v-4l-0.8-0.8c0,0,0,0,0,0L67,13L54,0H13.3v18.3H4.6
		c-2.5,0-4.6,2-4.6,4.6v72.8h0c0,0.9,0.3,1.9,0.9,2.6c0.8,1.1,2.1,1.7,3.4,1.7h74.6c1.9,0,3.6-1.3,4.1-3l17-46.7V50
		C100,47.1,98.2,45,95.8,45z M85.4,33.3c0.7,0,1.2,0.5,1.2,1.2V45H80V33.3H85.4z M55,5.7L74.3,25H55V5.7z M16.7,3.3h35v25h25V30v15
		H21.2c-0.2,0-0.5,0-0.7,0.1c-1.6,0.3-3,1.5-3.4,3l-0.5,1.3v-31V3.3z M3.3,22.9c0-0.7,0.5-1.2,1.2-1.2h8.8v36.7l-10,27.3V22.9z
		 M79.8,96c-0.1,0.4-0.5,0.7-0.9,0.7H4.3c-0.4,0-0.6-0.2-0.7-0.4c-0.1-0.1-0.3-0.4-0.2-0.7l10-27.5v0l6.9-19l0-0.1
		c0.1-0.4,0.5-0.7,0.9-0.7h55.4H80h10h5.8c0.6,0,0.8,0.9,0.8,1.4L79.8,96z"/>
	<path class="st0" d="M26.7,28.3h16.7c0.9,0,1.7-0.7,1.7-1.7c0-0.9-0.7-1.7-1.7-1.7H26.7c-0.9,0-1.7,0.7-1.7,1.7
		C25,27.6,25.7,28.3,26.7,28.3z"/>
	<path class="st0" d="M26.7,16.7h16.7c0.9,0,1.7-0.7,1.7-1.7s-0.7-1.7-1.7-1.7H26.7c-0.9,0-1.7,0.7-1.7,1.7S25.7,16.7,26.7,16.7z"/>
	<path class="st0" d="M26.7,40h40c0.9,0,1.7-0.7,1.7-1.7s-0.7-1.7-1.7-1.7h-40c-0.9,0-1.7,0.7-1.7,1.7S25.7,40,26.7,40z"/>
</g>
</svg>
