<?xml version="1.0" encoding="utf-8"?>
<!-- Generator: Adobe Illustrator 21.0.0, SVG Export Plug-In . SVG Version: 6.00 Build 0)  -->
<svg version="1.1" id="Слой_1" xmlns="http://www.w3.org/2000/svg" xmlns:xlink="http://www.w3.org/1999/xlink" x="0px" y="0px"
	 viewBox="0 0 78.5 100" style="enable-background:new 0 0 78.5 100;" xml:space="preserve">
<style type="text/css">
	.st0{fill:#090E0D;}
</style>
<g>
	<path class="st0" d="M53.9,0H0v99.8h78.2V24.3L53.9,0z M54.9,5.7l17.6,17.6H54.9V5.7z M3.3,96.5V3.3h48.2v23.3h23.3v69.9H3.3z"/>
	<path class="st0" d="M16.6,28.3h15c0.9,0,1.7-0.7,1.7-1.7S32.5,25,31.6,25h-15c-0.9,0-1.7,0.7-1.7,1.7S15.7,28.3,16.6,28.3z"/>
	<path class="st0" d="M16.6,41.6H25c0.9,0,1.7-0.7,1.7-1.7c0-0.9-0.7-1.7-1.7-1.7h-8.3c-0.9,0-1.7,0.7-1.7,1.7
		C15,40.9,15.7,41.6,16.6,41.6z"/>
	<path class="st0" d="M41.6,41.6h11.6c0.9,0,1.7-0.7,1.7-1.7c0-0.9-0.7-1.7-1.7-1.7H41.6c-0.9,0-1.7,0.7-1.7,1.7
		C39.9,40.9,40.7,41.6,41.6,41.6z"/>
	<path class="st0" d="M32.1,38.8c-0.3,0.3-0.5,0.7-0.5,1.2c0,0.4,0.2,0.9,0.5,1.2c0.3,0.3,0.7,0.5,1.2,0.5s0.9-0.2,1.2-0.5
		c0.3-0.3,0.5-0.7,0.5-1.2c0-0.4-0.2-0.9-0.5-1.2C33.8,38.1,32.7,38.1,32.1,38.8z"/>
	<path class="st0" d="M61.6,41.6c0.4,0,0.9-0.2,1.2-0.5c0.3-0.3,0.5-0.7,0.5-1.2c0-0.4-0.2-0.9-0.5-1.2c-0.6-0.6-1.7-0.6-2.4,0
		c-0.3,0.3-0.5,0.7-0.5,1.2c0,0.4,0.2,0.9,0.5,1.2C60.7,41.4,61.1,41.6,61.6,41.6z"/>
	<path class="st0" d="M36.6,51.6H25c-0.9,0-1.7,0.7-1.7,1.7s0.7,1.7,1.7,1.7h11.6c0.9,0,1.7-0.7,1.7-1.7S37.5,51.6,36.6,51.6z"/>
	<path class="st0" d="M16.6,54.9c0.4,0,0.9-0.2,1.2-0.5c0.3-0.3,0.5-0.7,0.5-1.2c0-0.4-0.2-0.9-0.5-1.2c-0.6-0.6-1.7-0.6-2.4,0
		c-0.3,0.3-0.5,0.7-0.5,1.2c0,0.4,0.2,0.9,0.5,1.2C15.8,54.7,16.2,54.9,16.6,54.9z"/>
	<path class="st0" d="M21.9,66.8c-3.6,1.9-4.9,5.5-5.3,9.3c-0.7-0.6-1.4-1.2-2.1-1.7c-1.6-1.4-4,1-2.4,2.4c1.6,1.3,3.1,2.6,4.7,3.9
		c1.1,0.9,2.8,0.3,2.8-1.2c0.1-3.6,0.3-7.9,3.9-9.8C25.4,68.7,23.8,65.8,21.9,66.8z"/>
	<path class="st0" d="M32.9,73.5c-2.3,0.5-4.9,3.5-6.5,0.2c-0.9-1.9-3.8-0.2-2.9,1.7c0.9,1.7,2.5,3,4.4,3.2c1,0.1,1.9,0,2.8-0.4
		c0.7-0.3,3.2-2.2,3.8-1.2c1,1.9,3.9,0.2,2.9-1.7C36.5,73.7,34.7,73.1,32.9,73.5z"/>
	<path class="st0" d="M67,57.4c-0.4-0.1-0.6-0.4-0.6-0.6c-0.1-0.2-0.2-0.5,0-0.9c0.8-1.7,0.5-3.7-0.9-5c-1.3-1.3-3.3-1.7-5-0.9
		c-0.4,0.2-0.7,0.1-0.9,0c-0.2-0.1-0.5-0.2-0.6-0.6c-0.6-1.8-2.3-2.9-4.1-2.9s-3.5,1.1-4.1,2.9c-0.1,0.4-0.4,0.6-0.6,0.6
		c-0.2,0.1-0.5,0.2-0.9,0c-1.7-0.8-3.7-0.5-5,0.9c-1.3,1.3-1.7,3.3-0.9,5c0.2,0.4,0.1,0.7,0,0.9c-0.1,0.2-0.2,0.5-0.6,0.6
		c-1.8,0.6-2.9,2.3-2.9,4.1s1.1,3.5,2.9,4.1c0.4,0.1,0.6,0.4,0.6,0.6c0.1,0.2,0.2,0.5,0,0.9c-0.8,1.7-0.5,3.7,0.9,5
		c0.6,0.6,1.4,1,2.3,1.2v20.5l8.3-8.3l8.3,8.3V73.4c0.8-0.2,1.6-0.6,2.3-1.2c1.3-1.3,1.7-3.3,0.9-5c-0.2-0.4-0.1-0.7,0-0.9
		c0.1-0.2,0.2-0.5,0.6-0.6c1.8-0.6,2.9-2.3,2.9-4.1S68.7,58.1,67,57.4z M54.9,80.8l-5,5V72.9c0,0,0,0,0,0c0.1,0,0.2,0,0.2,0.1
		c0.1,0,0.2,0.1,0.3,0.2c0.1,0.1,0.2,0.2,0.3,0.4c0.6,1.8,2.3,2.9,4.1,2.9s3.5-1.1,4.1-2.9c0.1-0.2,0.2-0.3,0.3-0.4
		c0.1-0.1,0.2-0.2,0.3-0.2c0.1,0,0.1,0,0.2-0.1c0,0,0,0,0,0v12.9L54.9,80.8z M65.8,62.6c-1.2,0.4-2.1,1.3-2.6,2.5
		c-0.5,1.1-0.4,2.4,0.1,3.6c0.3,0.6,0,1-0.2,1.2c-0.1,0.1-0.5,0.4-0.9,0.3L61.8,70c-0.2-0.1-0.3-0.1-0.5-0.2c-0.1,0-0.2-0.1-0.3-0.1
		c-0.2,0-0.3,0-0.5-0.1c-0.1,0-0.3,0-0.4,0c-0.2,0-0.3,0-0.5,0c-0.1,0-0.3,0-0.4,0c-0.3,0.1-0.6,0.1-0.9,0.3c0,0,0,0,0,0l0,0
		c-0.1,0-0.1,0.1-0.2,0.1c-0.2,0.1-0.4,0.2-0.6,0.3c-0.2,0.2-0.4,0.3-0.6,0.5c0,0,0,0-0.1,0.1c-0.4,0.4-0.7,1-1,1.6
		c-0.2,0.6-0.8,0.7-1,0.7s-0.8-0.1-1-0.7c-0.2-0.6-0.5-1.1-1-1.6c0,0,0,0-0.1,0c-0.2-0.2-0.4-0.4-0.6-0.5c-0.2-0.1-0.4-0.2-0.6-0.3
		c-0.1,0-0.1-0.1-0.2-0.1l0,0c0,0,0,0,0,0c0,0-0.1,0-0.1,0c-0.2-0.1-0.5-0.2-0.7-0.2c-0.2,0-0.4,0-0.6-0.1c-0.1,0-0.1,0-0.2,0l0,0
		c-0.6,0-1.2,0.1-1.7,0.4l-0.4,0.1c-0.5,0.1-0.8-0.1-1-0.3c-0.2-0.2-0.5-0.6-0.2-1.2c0.5-1.1,0.6-2.4,0.1-3.6
		c-0.5-1.1-1.4-2-2.6-2.5c-0.6-0.2-0.7-0.8-0.7-1s0.1-0.8,0.7-1c1.2-0.4,2.1-1.3,2.6-2.5c0.5-1.1,0.4-2.4-0.1-3.6
		c-0.3-0.6,0-1,0.2-1.2c0.2-0.2,0.6-0.5,1.2-0.2c1.1,0.5,2.4,0.6,3.6,0.1c1.1-0.5,2-1.4,2.5-2.6c0.2-0.6,0.8-0.7,1-0.7
		s0.8,0.1,1,0.7c0.4,1.2,1.3,2.1,2.5,2.6c1.1,0.5,2.4,0.4,3.6-0.1c0.6-0.3,1,0,1.2,0.2c0.2,0.2,0.5,0.6,0.2,1.2
		c-0.5,1.1-0.6,2.4-0.1,3.6c0.5,1.1,1.4,2,2.6,2.5c0.6,0.2,0.7,0.8,0.7,1S66.5,62.3,65.8,62.6z"/>
</g>
</svg>
