<?xml version="1.0" encoding="utf-8"?>
<!-- Generator: Adobe Illustrator 21.0.0, SVG Export Plug-In . SVG Version: 6.00 Build 0)  -->
<svg version="1.1" id="Слой_1" xmlns="http://www.w3.org/2000/svg" xmlns:xlink="http://www.w3.org/1999/xlink" x="0px" y="0px"
	 viewBox="0 0 131 100" style="enable-background:new 0 0 131 100;" xml:space="preserve">
<style type="text/css">
	.st0{fill:#090E0D;stroke:#FFFFFF;stroke-width:0.5;stroke-miterlimit:10;}
</style>
<g>
	<g>
		<g>
			<path class="st0" d="M115.6,44.8c-4.5-2.2-12.8-2.3-13.2-2.3c-1.1,0-1.9,0.9-1.9,1.9s0.9,1.9,1.9,1.9c2.2,0,8.4,0.3,11.5,1.8
				c0.3,0.1,0.6,0.2,0.9,0.2c0.7,0,1.4-0.4,1.7-1.1C116.9,46.4,116.6,45.3,115.6,44.8z"/>
		</g>
	</g>
	<g>
		<g>
			<path class="st0" d="M125.2,72.1l-7.9-2.3c-0.3-0.1-0.6-0.4-0.6-0.8v-2.6c0.6-0.4,1.3-0.9,1.8-1.5c2.8-2.7,4.3-6.3,4.3-10.2v-3.7
				l0.8-1.5c0.8-1.7,1.3-3.6,1.3-5.4v-9.9c0-1.1-0.9-1.9-1.9-1.9h-18.5c-6.7,0-12.2,5.5-12.2,12.2v0.1c0,1.6,0.4,3.1,1.1,4.5l1,2
				v3.1c0,5,2.4,9.4,6.2,12.1l0,2.8c0,0.4,0,0.6-1.6,1.1l-3.9,1.1l-11.2-4.1c0-0.5-0.1-1.1-0.5-1.5L79.8,62v-6.3
				c0.4-0.3,0.8-0.6,1.1-1c4.5-4.2,7.1-10.2,7.1-16.4v-5c1.4-3,2.1-6.1,2.1-9.3V3.4c0-1.1-0.9-1.9-1.9-1.9H59.4
				C49.3,1.5,41,9.7,41,19.8v4.1c0,3.2,0.7,6.4,2.1,9.3v4.3c0,7.2,3.2,13.6,8.2,17.9V62l-3.6,3.8c-0.4,0.4-0.6,0.9-0.5,1.5
				l-11.8,4.3c-0.9,0.3-1.7,0.7-2.4,1.2l-1.9-0.9c5.5-2.4,7.3-5.8,7.4-6c0.3-0.5,0.3-1.2,0-1.7c-1.4-2.8-1.6-7.8-1.7-11.9
				c0-1.4-0.1-2.6-0.2-3.8C36,39.2,29,32.3,20.4,32.3S4.8,39.2,4.1,48.4C4,49.6,4,50.9,3.9,52.2c-0.1,4.1-0.3,9.1-1.7,11.9
				c-0.3,0.5-0.3,1.2,0,1.7c0.1,0.2,1.8,3.5,7.4,5.9l-5.2,2.6C1.7,75.7,0,78.5,0,81.6v14.2c0,1.1,0.9,1.9,1.9,1.9s1.9-0.9,1.9-1.9
				V81.6c0-1.6,0.9-3.1,2.3-3.8l6.4-3.2l2.2,2.1c1.6,1.5,3.6,2.2,5.6,2.2c2,0,4-0.7,5.6-2.2l2.2-2.1l2.1,1c-1,1.6-1.5,3.4-1.5,5.4
				v14.8c0,1.1,0.9,1.9,1.9,1.9s1.9-0.9,1.9-1.9V81c0-2.6,1.7-5,4.1-5.9l12.5-4.5l5.2,7.8c0.7,1,1.7,1.6,2.9,1.7c0.1,0,0.3,0,0.4,0
				c1,0,2.1-0.4,2.8-1.2l3.2-3.2v20c0,1.1,0.9,1.9,1.9,1.9s1.9-0.9,1.9-1.9v-20l3.2,3.2c0.8,0.8,1.8,1.2,2.8,1.2c0.1,0,0.3,0,0.4,0
				c1.2-0.1,2.3-0.8,2.9-1.7l5.2-7.8l12.5,4.5c2.5,0.9,4.1,3.3,4.1,5.9v14.8c0,1.1,0.9,1.9,1.9,1.9s1.9-0.9,1.9-1.9V81
				c0-2.7-1.1-5.2-2.8-7l0.5-0.1c0.5-0.1,1.1-0.3,1.8-0.6l4.9,4.9v17.7c0,1.1,0.9,1.9,1.9,1.9s1.9-0.9,1.9-1.9V78.1l4.9-4.9
				c0.3,0.1,0.5,0.2,0.8,0.3l7.9,2.3c1.8,0.5,3.1,2.2,3.1,4.1v15.9c0,1.1,0.9,1.9,1.9,1.9c1.1,0,1.9-0.9,1.9-1.9V79.9
				C131,76.3,128.6,73.1,125.2,72.1z M12.3,68.7c-3.6-1.3-5.4-3-6.2-4c0.5-1.4,0.9-2.9,1.1-4.6c1.1,2.5,2.8,4.7,5.1,6.3V68.7z
				 M23.3,73.9c-1.6,1.6-4.2,1.6-5.8,0l-1.8-1.7c0.3-0.6,0.5-1.2,0.5-1.9v-2c1.3,0.4,2.8,0.6,4.2,0.6c1.5,0,2.9-0.2,4.2-0.6l0,2
				c0,0.7,0.2,1.3,0.5,1.9L23.3,73.9z M20.4,65.1c-5.7,0-10.4-4.7-10.4-10.4c0-1.1-0.9-1.9-1.9-1.9c-0.1,0-0.2,0-0.3,0
				c0-0.2,0-0.3,0-0.5c0-1.3,0.1-2.6,0.2-3.6c0.2-3.4,1.6-6.6,3.9-8.9c2.3-2.3,5.3-3.6,8.6-3.6s6.3,1.3,8.6,3.6
				c2.3,2.3,3.6,5.5,3.9,8.9c0.1,1.1,0.1,2.3,0.2,3.6c0,0.1,0,0.2,0,0.3c-2.1-3.2-5.3-5.6-9.5-6.9c-3.8-1.2-7.2-1.2-7.3-1.2
				c-0.5,0-1,0.2-1.3,0.6l-3.5,3.6c-0.7,0.8-0.7,2,0,2.7c0.8,0.7,2,0.7,2.7,0l2.9-3c2.5,0.1,10.5,1,13.6,7.9
				C29.9,61.4,25.5,65.1,20.4,65.1z M28.5,68.7l0-2.3c2.2-1.5,4-3.7,5.1-6.3c0.2,1.7,0.6,3.2,1.1,4.6C33.9,65.7,32.1,67.5,28.5,68.7
				z M46.9,37.6v-4.8c0-0.3-0.1-0.6-0.2-0.8c-1.2-2.6-1.9-5.3-1.9-8.1v-4.1c0-8,6.5-14.5,14.5-14.5h26.8v18.6c0,2.8-0.6,5.5-1.9,8.1
				c-0.1,0.3-0.2,0.5-0.2,0.8v5.5c0,5.2-2.1,10-5.9,13.6c-0.5,0.4-1,0.9-1.5,1.2c0,0,0,0,0,0c-3.6,2.7-7.9,4-12.5,3.7
				C54.6,56.2,46.9,47.8,46.9,37.6z M57.7,76.2c0,0,0,0-0.1,0c-0.1,0-0.1,0-0.1-0.1l-6-9l1.9-2l9.1,6.2L57.7,76.2z M65.5,68.8
				l-10.4-7.1v-3.6c2.7,1.5,5.7,2.4,8.9,2.6c0.5,0,1,0,1.5,0c3.7,0,7.2-0.9,10.4-2.5v3.5L65.5,68.8z M73.5,76.2
				C73.5,76.2,73.5,76.3,73.5,76.2c-0.2,0.1-0.2,0-0.2,0l-4.8-4.8l9.1-6.2l1.9,2L73.5,76.2z M108.6,74.6l-4.4-4.4
				c0.1-0.3,0.1-0.7,0.1-1.1l0-0.8c1.2,0.4,2.5,0.6,3.8,0.7c0.1,0,0.3,0,0.4,0c1.5,0,2.9-0.2,4.2-0.6v0.8c0,0.4,0,0.8,0.1,1.1
				L108.6,74.6z M115.8,62.2c-2,2-4.7,3-7.6,2.9c-5.6-0.2-10.1-5.1-10.1-10.9v-3.6c0-0.3-0.1-0.6-0.2-0.9l-1.2-2.4
				c-0.4-0.9-0.7-1.8-0.7-2.8v-0.1c0-4.6,3.7-8.3,8.3-8.3H121v8c0,1.3-0.3,2.6-0.9,3.7l-1,1.9c-0.1,0.3-0.2,0.6-0.2,0.9v4.1
				C119,57.6,117.9,60.2,115.8,62.2z"/>
		</g>
	</g>
	<g>
		<g>
			<path class="st0" d="M120.9,81.5c-1.1,0-1.9,0.9-1.9,1.9v12.3c0,1.1,0.9,1.9,1.9,1.9s1.9-0.9,1.9-1.9V83.5
				C122.8,82.4,122,81.5,120.9,81.5z"/>
		</g>
	</g>
	<g>
		<g>
			<path class="st0" d="M10.1,84.1c-1.1,0-1.9,0.9-1.9,1.9v9.8c0,1.1,0.9,1.9,1.9,1.9s1.9-0.9,1.9-1.9V86
				C12,84.9,11.2,84.1,10.1,84.1z"/>
		</g>
	</g>
	<g>
		<g>
			<path class="st0" d="M81.3,24.6c-7.3-7.3-22.4-5.9-28.6-4.9c-2,0.3-3.4,1.9-3.4,3.9V28c0,1.1,0.9,1.9,1.9,1.9
				c1.1,0,1.9-0.9,1.9-1.9v-4.4c0-0.1,0-0.1,0.1-0.1c2.5-0.4,7.4-0.9,12.5-0.6c6,0.4,10.3,1.9,12.9,4.5c0.7,0.7,2,0.7,2.7,0
				C82,26.6,82,25.4,81.3,24.6z"/>
		</g>
	</g>
	<g>
		<g>
			<path class="st0" d="M43,85.6c-1.1,0-1.9,0.9-1.9,1.9v8.2c0,1.1,0.9,1.9,1.9,1.9s1.9-0.9,1.9-1.9v-8.2C44.9,86.5,44,85.6,43,85.6
				z"/>
		</g>
	</g>
	<g>
		<g>
			<path class="st0" d="M88.1,85.6c-1.1,0-1.9,0.9-1.9,1.9v8.2c0,1.1,0.9,1.9,1.9,1.9s1.9-0.9,1.9-1.9v-8.2
				C90,86.5,89.2,85.6,88.1,85.6z"/>
		</g>
	</g>
</g>
</svg>
