<?xml version="1.0" encoding="iso-8859-1"?>
<!-- Generator: Adobe Illustrator 19.0.0, SVG Export Plug-In . SVG Version: 6.00 Build 0)  -->
<svg version="1.1" id="Layer_1" xmlns="http://www.w3.org/2000/svg" xmlns:xlink="http://www.w3.org/1999/xlink" x="0px" y="0px"
	 viewBox="0 0 512 512" style="enable-background:new 0 0 512 512;" xml:space="preserve">
<path style="fill:#397F49;" d="M329.171,228.537c-24.841-42.765-37.925-91.341-37.925-140.797V0h-70.492v87.74
	c0,49.456-13.084,98.031-37.925,140.797c-17.93,30.868-27.374,65.929-27.374,101.626v163.78c0,9.972,8.084,18.056,18.056,18.056
	h164.978c9.972,0,18.056-8.084,18.056-18.056v-163.78C356.545,294.467,347.1,259.405,329.171,228.537z"/>
<g>
	<path style="fill:#0F6B24;" d="M329.171,228.537c-24.841-42.765-37.925-91.341-37.925-140.797V0H256v512h82.489
		c9.972,0,18.056-8.084,18.056-18.056V330.163C356.545,294.467,347.1,259.405,329.171,228.537z"/>
	<path style="fill:#0F6B24;" d="M297.863,35.664c0,3.458-2.803,6.261-6.261,6.261h-71.204c-3.458,0-6.261-2.803-6.261-6.261V6.261
		c0-3.458,2.803-6.261,6.261-6.261h71.204c3.458,0,6.261,2.803,6.261,6.261V35.664z"/>
</g>
<path style="fill:#FACE17;" d="M206.914,174.713l33.346,33.346c4.346,4.346,10.043,6.52,15.741,6.52
	c5.698,0,11.394-2.174,15.741-6.52l33.346-33.346c-5.455-16.716-9.33-33.923-11.566-51.397L256,160.837l-37.521-37.521
	C216.243,140.791,212.369,157.999,206.914,174.713z"/>
<path style="fill:#E1E1E3;" d="M310.66,437.022H201.34c-6.352,0-11.501-5.149-11.501-11.501v-71.91
	c0-6.352,5.149-11.501,11.501-11.501H310.66c6.352,0,11.501,5.149,11.501,11.501v71.91
	C322.163,431.872,317.013,437.022,310.66,437.022z"/>
<g>
	<path style="fill:#ACACB2;" d="M310.66,342.108H201.34c-6.352,0-11.501,5.149-11.501,11.501v17.809
		c0-6.352,5.149-11.501,11.501-11.501H310.66c6.352,0,11.501,5.149,11.501,11.501v-17.809
		C322.163,347.258,317.013,342.108,310.66,342.108z"/>
	<path style="fill:#ACACB2;" d="M310.66,342.108H256v94.913h54.66c6.352,0,11.501-5.149,11.501-11.501v-71.91
		C322.163,347.258,317.013,342.108,310.66,342.108z"/>
</g>
<path style="fill:#DEB714;" d="M293.521,123.316L256,160.837v53.742c5.698,0,11.394-2.174,15.741-6.52l33.346-33.346
	C299.631,157.999,295.757,140.79,293.521,123.316z"/>
<g>
</g>
<g>
</g>
<g>
</g>
<g>
</g>
<g>
</g>
<g>
</g>
<g>
</g>
<g>
</g>
<g>
</g>
<g>
</g>
<g>
</g>
<g>
</g>
<g>
</g>
<g>
</g>
<g>
</g>
</svg>
