<?xml version="1.0" encoding="utf-8"?>
<!-- Generator: Adobe Illustrator 21.0.0, SVG Export Plug-In . SVG Version: 6.00 Build 0)  -->
<svg version="1.1" id="Слой_1" xmlns="http://www.w3.org/2000/svg" xmlns:xlink="http://www.w3.org/1999/xlink" x="0px" y="0px"
	 viewBox="0 0 100 100" style="enable-background:new 0 0 100 100;" xml:space="preserve">
<style type="text/css">
	.st0{fill:#090E0D;stroke:#FFFFFF;stroke-width:0.25;stroke-miterlimit:10;}
</style>
<g>
	<g>
		<g>
			<path class="st0" d="M68.9,14.8l-4.6,0h0c0,0,0,0,0,0v-3c0-0.8-0.7-1.5-1.5-1.5h-4.6V7.1c0-0.8-0.7-1.5-1.5-1.5H18.5
				c-0.2-2.6-2.3-4.6-5-4.6c-2.6,0-4.8,2-5,4.6H1.5C0.7,5.6,0,6.3,0,7.1v78c0,0.8,0.7,1.5,1.5,1.5h3.1v4.6c0,0.8,0.7,1.5,1.5,1.5
				h3.1v4.6c0,0.8,0.7,1.5,1.5,1.5h58.2c0.8,0,1.5-0.7,1.5-1.5V16.3C70.4,15.5,69.7,14.8,68.9,14.8z M13.6,4.1
				c0.9,0,1.7,0.7,1.9,1.5h-3.7C11.9,4.7,12.6,4.1,13.6,4.1z M3.1,83.7v-75h5.5v11.1c0,2.7,2.2,5,5,5c2.7,0,5-2.2,5-5v-6.9
				c0-0.8-0.7-1.5-1.5-1.5c-0.8,0-1.5,0.7-1.5,1.5v6.9c0,1.1-0.9,1.9-1.9,1.9s-1.9-0.9-1.9-1.9V8.7h43.4v75H3.1z M7.7,89.8v-3.1h0
				h49c0.8,0,1.5-0.7,1.5-1.5V13.3h3.1v76.5H7.7z M12.2,95.9v-3.1h50.5c0.8,0,1.5-0.7,1.5-1.5V17.8c0,0,0,0,0,0l3,0v78.1H12.2z"/>
			<path class="st0" d="M39.8,34.7H18.4c-0.8,0-1.5,0.7-1.5,1.5c0,0.8,0.7,1.5,1.5,1.5h21.4c0.8,0,1.5-0.7,1.5-1.5
				S40.6,34.7,39.8,34.7z"/>
			<path class="st0" d="M39.8,40.8H18.4c-0.8,0-1.5,0.7-1.5,1.5c0,0.8,0.7,1.5,1.5,1.5h21.4c0.8,0,1.5-0.7,1.5-1.5
				S40.6,40.8,39.8,40.8z"/>
			<path class="st0" d="M33.7,46.9h-9.2c-0.8,0-1.5,0.7-1.5,1.5c0,0.8,0.7,1.5,1.5,1.5h9.2c0.8,0,1.5-0.7,1.5-1.5
				C35.2,47.6,34.5,46.9,33.7,46.9z"/>
		</g>
	</g>
</g>
</svg>
