<?xml version="1.0" encoding="utf-8"?>
<!-- Generator: Adobe Illustrator 21.0.0, SVG Export Plug-In . SVG Version: 6.00 Build 0)  -->
<svg version="1.1" id="Слой_1" xmlns="http://www.w3.org/2000/svg" xmlns:xlink="http://www.w3.org/1999/xlink" x="0px" y="0px"
	 viewBox="0 0 512 182.3" style="enable-background:new 0 0 512 182.3;" xml:space="preserve">
<style type="text/css">
	.st0{fill-rule:evenodd;clip-rule:evenodd;fill:#CED2D5;}
	.st1{fill:#FFFFFF;}
	.st2{fill-rule:evenodd;clip-rule:evenodd;fill:#FFE64A;}
	.st3{fill-rule:evenodd;clip-rule:evenodd;}
</style>
<g>
	<g>
		<path d="M248.4,74.9c0.5-0.8,1-1.5,1.5-2.3h0.3v17h7.7V60.7h-7.7l-8.7,13.2c-0.5,0.8-1,1.5-1.5,2.2c-0.5,0.7-1,1.5-1.5,2.2h-0.3
			V60.7h-7.7v28.9h7.7c1.5-2,2.9-4.1,4.3-6.2c1.4-2.1,2.8-4.2,4.2-6.2C247.4,76.5,247.9,75.7,248.4,74.9"/>
		<polygon points="273,77.6 284.5,77.6 284.5,89.7 292.3,89.7 292.3,60.7 284.5,60.7 284.5,71.7 273,71.7 273,60.7 265.3,60.7 
			265.3,89.7 273,89.7 		"/>
		<path d="M324.2,80.4c0-3-1-5.3-3.1-6.9c-2.1-1.6-4.8-2.5-8.3-2.5h-5.6V60.7h-7.7v28.9h13.7c3.3,0,6-0.7,8-2.2
			C323.2,86,324.2,83.6,324.2,80.4 M315.3,83c-0.8,0.6-1.8,0.8-3,0.8h-5v-7.1h4.9c1.3,0,2.3,0.3,3.1,0.9c0.8,0.6,1.1,1.5,1.1,2.7
			C316.5,81.6,316.1,82.5,315.3,83"/>
		<path d="M423.7,85.9c1.4-1.3,2.4-2.8,3.2-4.7c0.8-1.8,1.2-3.9,1.2-6.2c0-2.2-0.4-4.1-1.2-5.9c-0.8-1.8-1.8-3.3-3.2-4.6
			c-1.4-1.3-3-2.3-4.9-3c-1.9-0.7-3.9-1.1-6.1-1.3V49.3l-7.3,2.8v8.1c-2.1,0.1-4.2,0.6-6.1,1.3c-1.9,0.8-3.5,1.8-4.9,3.1
			c-1.4,1.3-2.5,2.8-3.3,4.6c-0.8,1.8-1.2,3.7-1.2,5.8c0,2.3,0.4,4.4,1.1,6.2c0.7,1.8,1.8,3.4,3.1,4.7c1.4,1.3,3,2.4,4.9,3.1
			c1.9,0.7,4,1.1,6.3,1.3v12.2l7.3-2.8v-9.5c2.1-0.1,4.1-0.6,6-1.3C420.8,88.2,422.4,87.2,423.7,85.9 M405.6,84.6
			c-1.1-0.1-2.1-0.3-3.1-0.8c-1-0.4-1.8-1-2.6-1.8c-0.7-0.8-1.3-1.7-1.7-2.9c-0.4-1.1-0.6-2.4-0.6-3.9c0-2.5,0.7-4.6,2.1-6.4
			c1.4-1.7,3.4-2.7,5.9-2.9V84.6z M415.8,83.9c-0.9,0.4-1.9,0.7-3,0.8V65.9c2.5,0.2,4.5,1.2,5.9,2.9c1.4,1.7,2.1,3.8,2.1,6.4
			c0,1.5-0.2,2.8-0.7,4c-0.4,1.1-1,2.1-1.8,2.9C417.6,82.8,416.8,83.4,415.8,83.9"/>
		<path d="M469,81.2c0.8-1.8,1.2-3.9,1.2-6.2c0-2.2-0.4-4.1-1.2-5.9c-0.8-1.8-1.8-3.3-3.2-4.6c-1.4-1.3-3-2.3-4.9-3
			c-1.9-0.7-3.9-1.2-6.1-1.3V49.3l-7.3,2.8v8.1c-2.2,0.1-4.2,0.6-6.1,1.3c-1.9,0.8-3.5,1.8-4.9,3.1c-1.4,1.3-2.5,2.8-3.3,4.5
			c-0.8,1.8-1.2,3.7-1.2,5.8c0,2.3,0.4,4.4,1.1,6.2c0.7,1.8,1.8,3.4,3.1,4.7c1.4,1.3,3,2.3,4.9,3.1c1.9,0.7,4,1.1,6.3,1.3v12.2
			l7.3-2.8v-9.5c2.1-0.1,4.1-0.6,6-1.3c1.9-0.7,3.5-1.8,4.8-3.1C467.1,84.6,468.2,83,469,81.2 M447.6,84.6c-1.1-0.1-2.1-0.3-3.1-0.8
			c-1-0.4-1.8-1-2.6-1.8c-0.7-0.8-1.3-1.7-1.7-2.9c-0.4-1.1-0.6-2.4-0.6-3.9c0-2.5,0.7-4.6,2.1-6.4c1.4-1.7,3.4-2.7,5.9-2.9V84.6z
			 M462.1,79.1c-0.4,1.1-1,2.1-1.8,2.9c-0.7,0.8-1.6,1.4-2.5,1.8c-1,0.4-1.9,0.7-3,0.8V65.9c2.5,0.2,4.5,1.2,5.9,2.9
			c1.4,1.7,2.1,3.8,2.1,6.4C462.8,76.7,462.6,78,462.1,79.1"/>
		<polygon points="199.3,55.2 210.6,55.2 210.6,89.7 218.6,89.7 218.6,55.2 229.5,55.2 229.5,48.4 199.3,48.4 		"/>
		<polygon points="356.4,60.9 347.6,60.9 337.2,73.2 337.2,60.7 329.5,60.7 329.5,89.7 337.2,89.7 337.2,75.6 347.3,89.7 
			356.5,89.7 345.1,74.2 		"/>
		<path d="M382.2,64.3c-1.2-1.3-2.7-2.3-4.5-3c-1.7-0.7-3.6-1-5.7-1c-2.1,0-4,0.3-5.7,1c-1.7,0.7-3.2,1.7-4.5,3
			c-1.3,1.3-2.2,2.9-2.9,4.7c-0.7,1.9-1,4-1,6.4c0,2.3,0.3,4.4,1,6.2c0.7,1.9,1.6,3.4,2.8,4.7c1.2,1.3,2.7,2.3,4.4,3
			c1.7,0.7,3.7,1.1,5.8,1.1c2.1,0,4-0.3,5.7-1c1.7-0.7,3.2-1.7,4.5-3c1.3-1.3,2.2-2.9,2.9-4.8c0.7-1.9,1.1-4,1.1-6.4
			c0-2.3-0.3-4.4-1-6.2C384.4,67.1,383.4,65.6,382.2,64.3 M377.9,78.7c-0.3,1.1-0.7,2-1.2,2.8c-0.5,0.8-1.2,1.4-2,1.9
			c-0.8,0.5-1.7,0.7-2.7,0.7c-2.1,0-3.7-0.8-4.8-2.3c-1.1-1.6-1.7-3.8-1.7-6.6c0-2.5,0.5-4.6,1.6-6.3c1.1-1.7,2.6-2.5,4.7-2.5
			c2.2,0,3.8,0.8,4.9,2.5c1.1,1.6,1.6,3.8,1.6,6.4C378.4,76.5,378.2,77.7,377.9,78.7"/>
	</g>
	<g>
		<path d="M222,117.1c2.9,0,5.1,0.7,6.7,2c1.6,1.4,2.4,3.4,2.4,6.1c0,2.7-0.8,4.7-2.4,6.1c-1.6,1.4-3.8,2.1-6.7,2.1h-11.5v-28.1
			h17.9v3h-14.8v8.8H222z M227.9,125.3c0-1.7-0.5-3-1.5-3.9c-1-0.9-2.4-1.4-4.3-1.4h-8.4v10.5h8.4c1.8,0,3.3-0.4,4.3-1.3
			C227.4,128.3,227.9,127,227.9,125.3z"/>
		<path d="M243.5,112c2.4,0,4.3,0.6,5.6,1.7c1.3,1.1,2,2.8,2,5.1v14.6H248v-2.1h-0.1c-1.1,1-2.2,1.7-3.3,2c-1.1,0.3-2.2,0.5-3.2,0.5
			c-0.8,0-1.7-0.1-2.5-0.4c-0.8-0.2-1.6-0.6-2.3-1.2c-0.7-0.5-1.2-1.2-1.6-2c-0.4-0.8-0.6-1.9-0.6-3.1c0-1,0.2-2,0.6-2.8
			c0.4-0.8,0.9-1.5,1.6-2.1c0.7-0.6,1.5-1,2.5-1.4c1-0.3,2-0.5,3.2-0.5c0.9,0,1.9,0.1,2.8,0.3c0.9,0.2,1.9,0.6,3,1.1v-2.6
			c0-1.6-0.4-2.8-1.2-3.6c-0.8-0.7-2-1.1-3.7-1.1c-1,0-2,0.1-2.9,0.4c-0.9,0.3-1.8,0.6-2.7,1l-1-2.4c1-0.5,2.1-0.9,3.2-1.2
			C240.8,112.2,242.1,112,243.5,112z M248,124.5c-0.9-0.5-1.7-0.9-2.6-1.2c-0.9-0.3-1.9-0.4-3.1-0.4c-1.4,0-2.5,0.4-3.5,1.1
			c-0.9,0.7-1.4,1.8-1.4,3.2c0,1.4,0.4,2.4,1.2,3.2c0.8,0.7,2,1.1,3.5,1.1c1.1-0.1,2.2-0.4,3.2-0.9c1-0.5,1.9-1.2,2.7-2V124.5z"/>
		<path d="M270,133.5v-9.7h-11.1v9.7h-3.1v-21.1h3.1v8.7H270v-8.7h3.1v21.1H270z"/>
		<path d="M293.3,112.4l-9.5,9.7l9.8,11.3h-3.7l-9.2-10.8v10.8h-3.1v-21h3.1v9.3l9.1-9.3H293.3z"/>
	</g>
	<g>
		<g>
			<path class="st0" d="M82,116.2c1.9-1.5,3.4-2.2,3.3-5.8c-2.8,1.4-10.7,1.4-14.1-3.2c-0.9-1.3,0.1-1.9,1-0.9
				c2.3,2.6,6.5,1.4,8,0.7c-0.2-0.9-0.9-2-1.5-2.5c0.6-0.6,2.2-1.4,2.5-2.9c-0.9-0.5-4.2-0.8-4.2-0.8c0.5-0.5,1.2-1.2,0.8-3.2
				c-3.4,1.1-7.7-0.4-8.7-1.7c-0.9-1.3,0-2.4,0.8-1.6c1.7,1.8,10.2,3.9,13.3,0.7c-1.2-0.3-2.5-1.4-2.7-2c2.9-0.3,5.2-2,5.4-4.2
				c-1.6,0-4.6-0.1-5.7-0.9c1.4-0.5,2.3-1,2.7-2.6c-5.3-0.3-5.7-4.3-5.8-4.9c3.5,2,9.6,1.1,8-3.8c-2.9-0.2-5.8-4.8,2.1-9.1
				c7.2-3.9,15.4-8.1,14.7-15c-0.5-4.4-7.8-7.5-8.7-9.7c-3,1.4-3.7,3.1-2.3,5.9c0,0-6.8,0.7-7.3-3.5c-0.2-1.9,1-3.6,2.4-5
				c-0.8,0-5.9-1.4-7.4,2.8c-2.9-2-5.3-1.9-7.2,0.2c3.1,1.8,5,8.1,10.1,10c-3.6,2-9.5,1.1-12.9-4.9c-3.2,4.9-5.1,9.7,1.8,14.9
				C57.9,68.9,58,79.9,47,85.1c1.1,3,3.5,3,6.5,2.5c-4.7,6.2-0.7,12.6-8.2,15.3c0.7,2.5,2.1,4.5,4.9,3.8c-0.8,1.2-1.3,1.2-2.5,2.6
				c4.1,2.6,9,0.7,10.1-7.6c0.2-1.5,2.2-0.6,1.5,0.9c-4.7,9.7,7.2,17,3,24.1c3.7-0.2,6.5-0.4,8.1-1.7c0.8,1.5,1.2,3,1,4.4
				c2-0.4,2.8-1.6,2.9-3c1.3,3.9,6.1,8.1,13.8,8.1C83.9,128.7,87.7,122.8,82,116.2 M74.4,123.3l-1.6,2.8c-0.6-1.8-1.6-3.7-2.3-5.1
				c-1.3,2.7-3.4,2.8-5.4,2.8c0.4-6.5-7.7-13-4.1-20.4c0.7-1.5,0.3-3.3-1.3-4.1c-5.5-2.8-2.9,8.7-8.4,9.1c1-1.3,1.4-4,1.6-4.3
				c-1.2,0.3-3.9,2.1-5.2-0.2c3.2-1.7,4.1-4.3,4.6-7c0.6-3.3,0.9-4.9,1.6-6.2c0.7-1.5,1.7-2.7,4.1-5.7c-0.5,0.1-6.7,1.4-8.1,0.7
				c10.6-6.5,8.2-14.8,24.4-22.2c-4.2-3.2-8.6-5.7-5.5-11.7c4.4,5.3,12.9,3.5,17.4,1C81.7,52,75.9,48,74.6,43.6
				c1.7-0.3,3.9,1.6,5.2,2.4c0.6-1.6,0.8-3.5,2.8-3.9c-2.6,5.6,2.6,8.6,7.5,8.6c0.8,0,4-0.3,4-0.3c-0.5-1.1-2.6-3.9-1.1-5.1
				c1.2,1.1,2.7,2,4,3.1c9.6,7.5-4.6,14.4-10.4,17.5c-9.1,4.9-6.7,10.8-2.9,12.3c0,0.7-0.4,1-1.1,1.2c-2.7,0.9-5.2-1-7.3-2.2
				c0.1,3.7-0.1,7.2,3.9,9.3l-2.8,1c2.4,1.8,3.1,2.8,6.1,3.2c-1.4,0.7-3,0.6-4.5,0.8c0.4,1,0.7,2.4,1.4,3.3
				c-5.9,0.7-8.3-2.7-10.2-2.6c-3.9,0.3-3.7,7.7,6,7.7l-1,1.7c0,0,1.8,1.1,3.5,1.3c-0.6,0.5-1.3,1.2-1.8,1.8l1.5,1.3
				c-3.9,0.7-5.1-3.5-7.6-1.5c-3.9,3.1,4.7,9.6,12.9,8.6c-0.7,0.9-2.6,2.2-3.5,2.9c6.7,6.3,3.4,12.3,6.2,16.7
				C79.7,132.2,75.4,127.9,74.4,123.3"/>
			<path class="st0" d="M63.8,100.2c1.4,1.5,3.1,1.6,6.3,1.4c-3.5-0.4-5.5-1.3-6.7-3.6c-0.2-1.2-0.3-2.5-0.4-3.9
				c-0.1-3.7,1.1-8.1,3.7-13c0,3,2.4,7.8,7.8,8.6c-4.8-2.1-7.7-6.9-6.1-11.5c1-1.6,2.1-3.3,3.4-4.9c0.6-0.8,1.3-1.6,1.9-2.3
				c-0.6,2.3,2.2,4.8,4.1,5.2c-1-1-3.2-4.3,1.9-9.7c-1.4,0.7-3,1.6-4.2,2.6c9.3-10,16.9-10.3,20.4-15.3c-5.1,3.5-18.5,5.3-24.5,3.7
				c3.3,2.2,11.3,2,13.3,1.6C78,65.3,63.8,71.9,61.3,77.7c3.5-3.8,5.7-4.5,8.7-5.5c-2.4,3.5-4.5,6.6-6,10.3
				c-3.8,8.2-8.9,8.3-9.2,15.1c1.7-5.3,5.2-6.6,7.7-10.1c-0.4,2.2-0.6,4.7-0.6,7.5c0.1,3.1,0.7,5.8,1.7,8.2
				c-0.2,3.4,0.1,9.1,3.9,12.9c-2.6-3.3-3.2-8.7-2.9-10.8c3,5.8,11.6,13.9,15.8,19.3C76.2,117.7,66,109.5,63.8,100.2"/>
			<path class="st0" d="M159,72.2c3,1,5.3,1.7,8.7,5.5c-2.5-5.8-16.7-12.4-23.3-18.8c2,0.4,10,0.6,13.3-1.6
				c-6,1.6-19.4-0.2-24.5-3.7c3.5,5,11.1,5.3,20.4,15.3c-1.2-0.9-2.8-1.9-4.2-2.6c5.1,5.4,2.9,8.7,1.9,9.7c1.9-0.4,4.7-2.8,4.1-5.2
				c0.6,0.7,1.2,1.5,1.9,2.3c1.3,1.7,2.4,3.3,3.4,4.9c1.5,4.6-1.3,9.3-6.1,11.5c5.4-0.8,7.8-5.6,7.7-8.6c2.6,4.8,3.8,9.3,3.7,13
				c0,1.4-0.2,2.7-0.3,3.9c-1.2,2.3-3.2,3.2-6.7,3.6c3.2,0.2,4.9,0.1,6.3-1.4c-2.2,9.4-12.4,17.5-16.5,24.4
				c4.2-5.4,12.8-13.4,15.8-19.3c0.2,2.1-0.3,7.5-2.9,10.8c3.8-3.8,4.1-9.5,3.9-12.9c1-2.4,1.6-5.1,1.7-8.2c0.1-2.8-0.1-5.3-0.6-7.5
				c2.4,3.5,5.9,4.8,7.7,10.1c-0.3-6.8-5.4-6.9-9.2-15.1C163.5,78.9,161.4,75.8,159,72.2"/>
			<path class="st0" d="M175.5,87.7c3,0.5,5.3,0.5,6.5-2.5c-11-5.2-10.9-16.2-23.5-22c6.9-5.2,5.1-10,1.8-14.9
				c-3.4,6-9.3,6.9-12.9,4.9c5.1-1.9,7-8.1,10.1-10c-1.9-2.1-4.4-2.1-7.2-0.2c-1.6-4.2-6.7-2.8-7.4-2.8c1.3,1.3,2.6,3.1,2.4,5
				c-0.5,4.2-7.3,3.5-7.3,3.5c1.4-2.8,0.8-4.5-2.3-6c-0.9,2.2-8.2,5.3-8.7,9.7c-0.7,6.9,7.5,11.1,14.7,15c7.9,4.3,5,9,2.1,9.1
				c-1.6,4.9,4.5,5.8,8,3.8c0,0.7-0.5,4.6-5.8,4.9c0.4,1.6,1.3,2.1,2.7,2.6c-1,0.8-4.1,0.9-5.7,0.9c0.2,2.1,2.5,3.9,5.4,4.1
				c-0.2,0.6-1.5,1.7-2.7,2c3.1,3.1,11.6,1.1,13.3-0.7c0.8-0.8,1.8,0.3,0.8,1.6c-1,1.3-5.2,2.7-8.7,1.7c-0.4,1.9,0.3,2.7,0.8,3.2
				c0,0-3.4,0.3-4.2,0.8c0.3,1.4,2,2.3,2.5,2.9c-0.6,0.5-1.3,1.6-1.5,2.5c1.5,0.7,5.7,1.9,8-0.7c0.9-1,1.9-0.4,1,0.9
				c-3.3,4.6-11.3,4.6-14.1,3.2c-0.1,3.6,1.5,4.3,3.3,5.8c-5.7,6.6-1.9,12.5-6,18.3c7.6,0,12.4-4.2,13.8-8.1c0.1,1.4,0.9,2.6,2.9,3
				c-0.2-1.5,0.3-2.9,1-4.4c1.6,1.2,4.4,1.5,8.1,1.7c-4.2-7.1,7.7-14.4,3-24.1c-0.7-1.5,1.3-2.4,1.5-0.9c1.1,8.3,6,10.2,10.1,7.6
				c-1.2-1.4-1.7-1.3-2.5-2.6c2.8,0.7,4.2-1.3,4.9-3.8C176.3,100.3,180.3,93.8,175.5,87.7 M176.2,104.1c0.1,0.2,0.5,3,1.6,4.3
				c-5.5-0.3-2.9-11.9-8.4-9.1c-1.5,0.8-2,2.6-1.3,4.1c3.6,7.4-4.6,13.9-4.1,20.4c-2,0-4.1-0.1-5.4-2.8c-0.7,1.3-1.7,3.2-2.3,5.1
				l-1.6-2.8c-1,4.6-5.3,8.9-11.1,9.2c2.7-4.4-0.6-10.3,6.2-16.7c-0.8-0.7-2.8-2-3.5-2.9c8.3,1,16.8-5.5,12.9-8.6
				c-2.6-2-3.7,2.2-7.6,1.5l1.5-1.3c-0.5-0.5-1.2-1.2-1.8-1.8c1.7-0.2,3.5-1.3,3.5-1.3l-1-1.7c9.7,0,9.9-7.4,6-7.7
				c-1.8-0.1-4.2,3.3-10.2,2.6c0.8-0.9,1.1-2.3,1.4-3.3c-1.4-0.1-3.1-0.1-4.5-0.8c2.9-0.4,3.6-1.4,6.1-3.2l-2.8-1
				c4.1-2,3.8-5.6,3.9-9.3c-2.1,1.2-4.6,3.1-7.3,2.2c-0.6-0.2-1-0.5-1.1-1.2c3.8-1.5,6.3-7.4-2.9-12.3c-5.8-3.1-20.1-10.1-10.4-17.5
				c1.3-1,2.8-1.9,4-3.1c1.5,1.2-0.6,4-1.1,5.1c0,0,3.2,0.3,4,0.3c5,0,10.2-3,7.5-8.6c2,0.4,2.2,2.3,2.8,3.9
				c1.3-0.9,3.5-2.7,5.2-2.4c-1.4,4.4-7.2,8.4-11.7,9.3c4.5,2.5,13,4.3,17.4-1c3.1,6-1.2,8.5-5.5,11.7c16.2,7.4,13.8,15.7,24.4,22.2
				c-1.4,0.6-7.5-0.7-8.1-0.7c2.3,3,3.4,4.3,4.1,5.7c0.6,1.4,0.9,2.9,1.6,6.2c0.5,2.6,1.4,5.2,4.6,7
				C180.1,106.2,177.3,104.4,176.2,104.1"/>
			<path class="st0" d="M99,122.3l2.3-2l-0.4-0.7c-0.3-0.5-0.1-0.5,0.2-0.7l1.2-0.9c0.3-0.2,0.6-0.2,0.9-0.1l3.7,0.9h-3.9
				c-0.9,0.1-1.2,0.4-1.5,1.1l-0.3,0.5l-1,2c-0.3,0.7-0.5,1.6,0.4,2.7l0.7,0.8l-1.4,2.9h1.2l1-2c0.1-0.1,1.5-1.4,1.8-2.8
				c-0.4-0.3-0.7-0.6-0.5-1.1l0.4-1c0.1-0.3,0.2-0.4,0.6-0.4l3.8,0.8c0.5,0.1,1.2,0.3,1.7-0.4c0.5-0.8,0.6-0.7,1.8-0.6l2,0.2
				c2.7,0.3,5.4-0.4,6.4-1.2c0.4,0.8,1.1,1.5,1.4,2.1c0.1,0.2-0.1,0.6-0.2,1l-2.2,5.3h3.4l1.9-4.8c0.2-0.5,0.4-0.8,0.6-1l-1.1,5.8
				h3.3l0.9-5.8c0.2-1.3,0.1-1.7-0.5-2.2c-1.4-1.2-1.3-3.6-1.8-5.1c0.2-0.1,0.5-0.2,0.8-0.2c0.7,0.1,1.3,1.9,2.1,3.1
				c1.7,2.4,4,5,6.6,1.3c-0.3-0.4-0.5-0.8-0.9-1.2l-0.7-0.9c-0.4-0.5-2.5-2.8-3.3-3.7c-1.9-1.9-4.9-1.6-6.1-0.7
				c-2.7-1.4-5.5,0.1-6.2,0l-4.6-0.3c-0.2,0-0.5-0.1-0.8-0.4l0.9-0.3c-0.8-3.3-2.8-6.1-6.3-6.6c0,0-0.2-1.1-0.7-1.3l-1.1,1.2
				c-0.3,0-0.6,0.1-0.9,0.2l-4.5-1.7l3.4,3.4c0,0-1.8,2.5-2.3,3c-0.3,0.5-0.3,0.8,0.1,1.3l0.7,0.9c0.3,0.4,0.7,0.4,1.2,0.1l0.7-0.4
				c0.3-0.3,1.4,0.3,1.9-0.2c-0.3,1-0.4,1.9-0.5,2.6l-3-0.4c-0.7-0.1-1,0-1.4,0.3l-2.6,2c-0.8,0.6-1.1,1.8-0.6,2.9L99,122.3z
				 M124.1,122.9l-2.1,5.1h-1.3l2-4.9c0.2-0.6-0.2-0.9-0.7-1.6c0.8,0.4,1.3,0.7,2.2,1.1C124.2,122.6,124.1,122.7,124.1,122.9
				 M104.3,111.9l-0.6,0.3c-0.4,0.2-0.6,0.3-1-0.1l-0.3-0.3c-0.1-0.2-0.2-0.5,0.1-0.8l2.5-2.9l-2.3-1.9l3,1.1l1.1-1.3
				c0.3,0.3,0.2,1.1,0.2,1.1c1.2,0,4.7,1.7,4.8,6.1c0,0,0.8,1.2,1.8,1.2l5.1,0.3c0.8,0,3-1.6,5.7-0.1c0.7-0.4,1.4-0.7,2.2-0.8
				c2.4-0.2,4.2,1.5,5.5,3.2c1,1.2,2.3,3.1,2.3,3.1c-0.6,0.7-1.1,0.9-1.6,0.7c-0.7-0.4-0.9-0.9-1.2-1.7c-0.4-1.3-1.7-2.3-1.7-2.3
				c0.5,0.8,0.6,1.8,0.8,2.7c-2-2-2.4-4.4-3.8-4.7c-0.6-0.2-1.3,0.1-2,0.9c0.7,1.6,0.7,3.5,1.4,4.8c0.5,1,0.7,1,0.9,1.2
				c0.6,0.4,0.3,1.2,0.2,1.7l-0.8,4.8h-1.3l0.8-4.7c0.3-1.4-3.7-1.4-5.8-4.1c-1.7,2-6.6,1.5-8.7,1.2c-0.9-0.1-1.7-0.1-2.1,0.8
				c-0.3,0.5-0.7,0.3-1,0.3l-3.8-0.8c-0.7-0.2-1,0-1.3,0.6l-0.8,1.6c-0.2,0.4-0.2,0.6,0.1,0.9l0.4,0.4c-0.2,0.8-0.9,1.3-0.9,1.3
				l-0.8-0.9c-0.4-0.5-0.4-1.2-0.1-1.8l1.2-2.6c0.1-0.3,0.4-0.6,0.9-0.6l4.8-0.1l-1.5-2.4c-1.1-1.8,0.7-5,0.4-6.5
				C107.1,112.5,104.6,111.6,104.3,111.9 M99.1,117.9l2.3-1.7c0.4-0.3,0.7-0.5,1.1-0.4l3.2,0.4c0.2,0.8,0.7,1.5,0.7,1.5l-3.4-0.7
				c-0.5-0.1-0.6,0-1.1,0.3l-1.6,1.2c-0.3,0.3-0.3,0.6-0.1,1l0.3,0.6l-1.1,0.8l-0.4-0.8C98.4,119.2,98.4,118.4,99.1,117.9"/>
			<path class="st0" d="M108.9,56.8c1.2,0.9,3.4,1.8,3.4,1.8v-1.5l-4.8-1.8C107.5,55.3,107.5,55.9,108.9,56.8"/>
			<path class="st0" d="M112.3,55.1v-1.4l-5.5-2c0,0,0.6,0.7,2,1.6C110.1,54.2,112.3,55.1,112.3,55.1"/>
			<path class="st0" d="M112.3,51.8v-1.5l-6-2.2c0,0,1.2,0.9,2.6,1.9C110.1,50.9,112.3,51.8,112.3,51.8"/>
			<path class="st0" d="M129.1,71.6h6.1c-0.3-0.9-1.2-1.8-3-1.8C130.5,69.8,129.5,70.8,129.1,71.6"/>
			<path class="st0" d="M122.7,48.1l-6,2.2v1.5c0,0,2.2-0.9,3.4-1.8C121.5,49.1,122.7,48.1,122.7,48.1"/>
			<path class="st0" d="M121.5,55.3l-4.8,1.8v1.5c0,0,2.2-0.9,3.4-1.8C121.5,55.9,121.5,55.3,121.5,55.3"/>
			<path class="st0" d="M122.2,51.7l-5.4,2v1.4c0,0,2.2-0.9,3.4-1.7C121.5,52.4,122.2,51.7,122.2,51.7"/>
			<path class="st0" d="M96.8,69.8c-1.8,0-2.7,0.9-3,1.8h6.1C99.5,70.8,98.5,69.8,96.8,69.8"/>
			<path class="st0" d="M126.6,44.2c0-3.4-5.8-6.5-12.1-6.5c-6.4,0-12.1,3.1-12.1,6.5l0.1,0.8l2.5,14.6l-12,7
				c-1.3,0.8-2.9,2.8-3.1,4.9h2.2c0.4-2.1,2-4.4,5.1-4.2c2.8,0.2,4.4,1.8,6.1,4.2l0.4,0.6l0.6,1H86.6c1.3,2.6,2.5,5.4,2.5,8.4v36.8
				c0,9.5,7.3,14,15.1,14c6.1,0,6.9-0.3,10.2,3.1c3.3-3.4,4.2-3.1,10.2-3.1c7.9,0,15.1-4.5,15.1-14V81.5c0-3,1.2-5.8,2.5-8.4h-17.7
				l0.6-1l0.4-0.6c1.6-2.4,3.3-4.1,6-4.2c3.1-0.1,4.7,2.2,5.1,4.2h2.2c-0.2-2.1-1.8-4.2-3.1-4.9l-12-7l2.5-14.6L126.6,44.2z
				 M104.8,45.9l9,3.1v14l-6.6-3.5L104.8,45.9z M107,75.7c1.2,1.6,3.1,2.8,5.4,3.3c0.2,0.9,0.7,1.8,1.6,2.5
				c-0.4,2.5,0.7,4.8,3.4,5.5c0.3,1.3,1.1,2.2,2.4,2.7l-1.9,2.2c-0.7,0.8-1.6,1.1-2.4,1l-8.4-1c0.4-0.9-0.6-2-3.3-1.5l3.3-9.2
				l-2-4.3l-3.8,3.3l-0.3,9.7L99.4,89c-2.1-0.9-2.8,2.9-0.7,2.9l0.8,0c0,0.4,0.1,0.8,0.4,1c-0.4,0.2-0.5,0.9,0,1.1
				c-0.5,0.2-0.5,1-0.2,1.3c-0.4,0.7-0.5,2.3,1,2.6c1.2,0.3,2-1,2.2-1.7l13,4c1.8,0.5,3.2,0.2,4.7-1.1l3.4-3
				c-0.4,1.9,0.3,3.7,1.8,4.3c0,0-0.2,1.7-0.1,2.5H91.7V81.5c0-2-0.6-4-1.3-5.8H107z M121.1,83.8c-0.7,1.4-0.6,2.9,0.2,4.4l-0.6,0.5
				c-2.4-0.3-3.4-3.9-3.4-3.9c0,0.3-0.1,0.7-0.1,1c-1.4-0.5-2.3-1.8-2.3-3.5c0.5,0.3,1.1,0.5,1.8,0.6l0.2-1.1
				c-1.7-0.3-2.7-1.4-3.1-2.6c-0.1,0-0.2,0-0.2,0c0.3,0,0.6,0.1,0.9,0.1c1,0,2-0.2,2.9-0.4c0.7,1,2,1.7,3.2,1.9
				C120.4,81.5,120.5,82.5,121.1,83.8 M124.7,93.5c-0.2,0.3-0.4,0.7-0.6,1.1l-1.4,1.3c0.3-2-1.1-4.4-2.3-5.3l1.5-1.4l0.3,0.3
				C121.7,90.7,122.7,93.2,124.7,93.5 M118.1,92.9l1.1-1.1c1.1,1,2.6,3.2,2.2,5.3l-1.2,1.1c-0.2,0.2-0.5,0.4-0.8,0.6
				C120.2,96.9,119.2,94,118.1,92.9 M115.7,93.8L115.7,93.8c0.4,0.1,0.9,0,1.3-0.2c0.9,1.2,1.5,4,0.5,5.7c-0.6,0-1.2-0.1-1.7-0.2
				l-0.4-0.1C116.2,97.7,116.1,95.3,115.7,93.8 M112.9,93.4l1.6,0.2c0.2,1.3,0.1,3.6-0.8,4.9l-1.8-0.5
				C112.7,96.9,113,94.6,112.9,93.4 M109.6,93l1.9,0.2c0.2,1.1-0.2,3.3-0.9,4.4l-2-0.6C109.4,96,109.7,94.2,109.6,93 M101.8,92.5
				c-0.9,0.3-1.3-0.4-1.2-0.9c1.7-0.6,2.5-0.2,3,0.1c0.5,0.3,0.9,1.1,1.5,1.7c-0.1,0.7-0.3,1.8-0.6,2.5c-1.8-0.5-1.9-2-1.2-3
				C102.9,92.4,102.5,92.3,101.8,92.5 M100.5,96c0,0,0.5,0.2,1.2,0.3c-0.1,0.4-0.4,0.7-0.8,0.6C100.5,96.8,100.4,96.4,100.5,96
				 M98.8,90.9C98.3,90.6,98.5,90,99,90c0.5,0,1.3,0.6,2,0.9C101,90.9,99.1,91.1,98.8,90.9 M100.6,94.6c0.4,0.4,1.5,0.2,1.5,0.2
				l0,0.2C101.7,95.8,100.3,95.5,100.6,94.6 M102.2,93.8c-0.8,0.3-1.7-0.1-1.4-0.7c0.4,0.4,1.5,0.2,1.5,0.2L102.2,93.8z M103.4,84.2
				l-1.6,5.8l0.5-9.3l2.5-2.1l1.3,2.7l-3.2,9.1l0.8-6.1C103.8,83.8,103.4,83.8,103.4,84.2 M103.5,91.2c0,0,1.8-0.1,2.3,0.1
				c0.4,0.2,0.1,0.8-0.4,0.7C104.9,92,103.5,91.2,103.5,91.2 M106.3,92.6l1.9,0.2c0.1,1.1-0.1,2.8-0.8,3.8l-1.9-0.5
				C106,95,106.1,93.9,106.3,92.6 M137.4,118.3c0,4.5-2.1,7.9-5.5,9.8l1.2-2.5h-1.2l-1.6,3.2c-1.6,0.6-3.5,1-5.6,1
				c-6.3,0-7.9,0.3-10.2,2.6c-2.3-2.3-4-2.6-10.2-2.6c-2,0-3.9-0.3-5.5-0.9h0l1.6-3.2h-1.2l-1.4,2.8c-0.3-0.2-0.6-0.3-1-0.5l1.1-2.3
				h-1.2l-0.8,1.7c-2.7-2-4.3-5.1-4.3-9v-14.1h45.7V118.3z M138.6,75.7c-0.7,1.8-1.3,3.8-1.3,5.8V103h-2.5c-1.1-1.1-2.1-4.8-2.1-4.8
				c-0.6,1.3,0.1,4,0.8,4.8h-3.2c-0.8-1.1-1.5-4.9-1.5-4.9c-1,1.1-0.4,4.1,0.2,4.9h-2.1c-0.1-1.5,0.3-3.2,0.3-3.2
				c-1.1-0.2-2.3-0.8-2.3-2c0.6,0.5,0.8,0.5,1.6,0.5l0.9-0.7c-3,0.1-3.1-3.2-0.8-4.8c-2.4,0.1-4.2-1.3-3.3-3.9c-1.7-0.9-2.3-3.7-1-5
				c-0.9-1-1.1-2.9-0.5-4.2c-1.2,0-2.6-0.5-3.3-1.3c-0.1,0-0.1,0-0.2,0.1c1.5-0.6,2.8-1.6,3.6-2.8H138.6z M129.5,65.4
				c-2.5,0.4-4.6,3.5-6.4,6.2l-0.2,0.3h-1.9l0,0.3c-0.2,2.1-2.2,5-6.6,5c-2,0-3.6-0.6-4.6-1.5c-0.9-0.7-1.5-1.7-1.8-2.5
				c-0.1-0.3-0.2-0.6-0.2-1l0-0.3H106l-0.2-0.3c-1.8-2.7-3.9-5.8-6.4-6.2l6.7-3.9l8.3,4.5l8.3-4.5L129.5,65.4z M121.8,59.5l-6.6,3.5
				V49l9-3.1L121.8,59.5z M114.5,47.4l-9.8-3.9c0.8-2,4.7-3.7,9.8-3.7s9,1.7,9.8,3.7L114.5,47.4z"/>
			<path class="st0" d="M136.3,89.6l0-1.1c-3.3-0.1-4.1-4-4.1-4C131.3,87.4,133.8,89.5,136.3,89.6"/>
			<path class="st0" d="M132.2,96.2l-0.3-1c-2.8,0.7-4.3-3.7-4.3-3.7C126.7,94.6,129.8,96.9,132.2,96.2"/>
			<path class="st0" d="M134.1,92c-3.4,0.5-4.7-3.4-4.7-3.4c-0.4,2.1,1,4.3,3.2,4.5c-0.5,2.8,2.1,4.2,4.3,3.2l-0.3-1
				C134.7,96.1,132.8,94.1,134.1,92"/>
			<path class="st0" d="M132.1,80.9l0-1.1c-4.4-0.9-4.1-4-4.1-4C127.1,78.7,129.6,80.8,132.1,80.9"/>
			<polygon class="st0" points="104,125.6 102.4,128.8 103.6,128.8 105.2,125.6 			"/>
			<polygon class="st0" points="106.4,125.6 104.8,128.8 106,128.8 107.6,125.6 			"/>
			<polygon class="st0" points="116,125.6 114.4,128.8 115.6,128.8 117.2,125.6 			"/>
			<polygon class="st0" points="118.4,125.6 116.8,128.8 118,128.8 119.6,125.6 			"/>
			<polygon class="st0" points="113.6,125.6 112,128.8 113.2,128.8 114.8,125.6 			"/>
			<polygon class="st0" points="127.6,128.8 128.8,128.8 130.4,125.6 129.2,125.6 			"/>
			<polygon class="st0" points="108.8,125.6 107.2,128.8 108.4,128.8 110,125.6 			"/>
			<polygon class="st0" points="111.2,125.6 109.6,128.8 110.8,128.8 112.4,125.6 			"/>
			<path class="st0" d="M105.7,108.2c-0.2,0-0.4,0.2-0.4,0.5c0,0.3,0.2,0.5,0.4,0.5c0.2,0,0.4-0.2,0.4-0.5
				C106.2,108.5,106,108.2,105.7,108.2"/>
			<path class="st0" d="M114.5,35.6c4.9,0,8.9,1.6,11,3.4c0,0,0.7-3.9,2.9-7.3l-4,0.4l-2.1-4.4l-4,2.1l-3.9-3.8l-3.9,3.8l-4-2.1
				l-2.1,4.4l-4-0.4c2.2,3.4,2.9,7.3,2.9,7.3C105.6,37.2,109.6,35.6,114.5,35.6 M105.3,33.8l1.9-4l3.5,1.9l3.9-3.8l3.9,3.8l3.5-1.9
				l1.9,4l2.3-0.4c-0.6,1.1-1,2.1-1.5,3.5c-2.5-1.5-6.3-2.6-10.1-2.6c-3.8,0-7.6,1.1-10.1,2.6c-0.4-1.4-0.9-2.3-1.5-3.5L105.3,33.8z
				"/>
			<path class="st0" d="M118.6,27.7c0.6,0,1.1-0.4,1.1-1c0.1-0.6-0.8-2.1-0.8-2.1s-1.3,1.4-1.3,1.9C117.6,27.1,118,27.6,118.6,27.7"
				/>
			<path class="st0" d="M125.1,30c0.5,0.3,1.1,0.1,1.4-0.4c0.3-0.5,0.1-2.2,0.1-2.2s-1.7,0.8-2,1.3C124.4,29.1,124.6,29.7,125.1,30"
				/>
			<path class="st0" d="M110.5,27.7c0.6-0.1,1-0.6,1-1.1c-0.1-0.6-1.3-1.9-1.3-1.9s-0.8,1.5-0.8,2.1
				C109.4,27.3,109.9,27.7,110.5,27.7"/>
			<path class="st0" d="M104,30c0.5-0.3,0.7-0.9,0.4-1.4c-0.3-0.5-1.9-1.3-1.9-1.3s-0.2,1.7,0.1,2.2C102.8,30.1,103.5,30.3,104,30"
				/>
			<path class="st0" d="M181.9,65.7c1.4-0.5,2.5-1.8,3-3c-3.5-0.5-12.9-4.4-20.6-1.2c2.9-2.7,5.5-3.1,5.7-7c1.2,0.9,3.2,1.3,4.4-0.7
				c-0.8-2.3-2.8-0.4-3.1-1.1c-0.4-0.9,2.5,0.3,3.2-2.8c-2.3-0.8-3,1.1-3.4,0.6c-0.4-0.4,1.4-1.2,0.1-3.6c-2.4,1.4-1.1,2.9-1.6,3.1
				c-0.6,0.2-0.1-1.7-2.7-1.6c-0.3,2.8,2.5,2.9,2,3.3c-0.5,0.5-1.2-1.6-3.2-0.5c0,2.3,1.9,3.5,3.8,3c-0.3,4.3-4.3,3.5-7.2,8.4
				c6.2,3.2,9,8.8,12.9,12.6c1.3-0.9,3.4-4.9,3.4-4.9c4.1,3.2,7.1,0,7.1,0C184.2,68.8,184.1,67.7,181.9,65.7 M175.9,66.5
				c0.4,1,1.3,4.3-0.8,6.8c-2.3-4.6-5.5-8.6-8.1-10.3c-0.6-0.4,0.3-1,1.9-1.2c4.8-0.9,10.4,1.1,13.1,1.8c-1.2,0.9-2.3,1.3-3.5,1.5
				c1.9,1.6,3.4,3,4.4,4.5C181,70.2,179.9,69,175.9,66.5"/>
			<path class="st0" d="M113.4,142.1l-2.7-0.1l-0.3,1.1l0.3,0c0.1,0,0.1-0.2,0.2-0.3c0.1,0,0.5-0.1,0.9-0.1l1.1,0.1
				c-0.7,1.4-2.4,2.7-2.4,3.6c0,0.5,0.5,0.6,0.8,0.6c0.5,0,0.7-0.4,0.9-1c0.3-1.4,1-2.4,1.5-4L113.4,142.1L113.4,142.1z"/>
			<path class="st0" d="M115.2,143.8l0-0.8h2.3l-0.1-0.9c-0.6,0-1.6,0.2-2.5,0.2l-0.2,1.8c1.1,0,1.8,0.4,1.8,1.6
				c0,0.4-0.3,1.2-0.8,1.3c-0.1,0-0.3,0-0.3-0.1c-0.2-0.2,0.1-0.4,0.1-0.7c0-0.4-0.4-0.5-0.6-0.5c-0.4,0-0.6,0.3-0.6,0.6
				c0,0.7,1,0.9,1.4,0.9c1,0,2.1-0.5,2.1-1.6C117.9,144.1,116.3,143.8,115.2,143.8"/>
			<path class="st0" d="M120.3,141.9c-0.8,0-1.5,0.6-1.5,1.5c0,1.4,1.4,1.8,2.5,1.3c0.1,1-0.1,1.8-0.5,1.8c-0.3,0-0.3-0.3-0.3-0.5
				c-0.1-0.4-0.4-0.5-0.7-0.4c-0.3,0.1-0.4,0.4-0.3,0.6c0.2,0.5,0.8,0.5,1.1,0.5c1.4-0.2,2-1.2,2-2.3
				C122.5,143.1,121.7,141.9,120.3,141.9 M120.8,144.5c-0.8,0-1-1.3-1-1.9c0-0.2,0.2-0.4,0.3-0.4c0.8,0,1,1.8,1,2.3
				C121.1,144.4,121,144.5,120.8,144.5"/>
			<path class="st0" d="M108.8,141.6c-0.1,0.2-0.7,0.9-1.9,1.8l0.1,0.2c0.1-0.1,0.4-0.2,0.7-0.4l-0.7,2.6c0,0.1-0.2,0.2-0.3,0.1
				l-0.4-0.1l-0.1,0.3l2.4,0.4l0.1-0.3l-0.4-0.1c-0.1,0-0.2-0.1-0.2-0.3l1.1-4.3L108.8,141.6z"/>
			<path class="st0" d="M135.9,138.3v-5.3c-4.1,1.9-9.2,3.4-15.9,4l-0.3,1.9c0.6,0.1,1.3,0.1,2.2,0.2c-2.5,0.3-5.6,0.5-7.4,0.5
				c-1.7,0-4.9-0.2-7.4-0.5c1-0.1,1.7-0.1,2.2-0.2l-0.3-1.9c-6.7-0.6-11.8-2.1-15.9-4v5.3l-5.5,2.3c4.1,2.1,8.8,3.9,14.2,5.3
				l-0.6,2.2c3.1,0.9,8.1,1.8,13.3,1.8c5.2,0,10.2-0.9,13.3-1.8l-0.6-2.2c5.4-1.4,10.1-3.1,14.2-5.3L135.9,138.3z M90.6,140.7
				l3.7-1.5V135c2.4,0.9,5.5,1.9,10,2.8l-2.1,6.9C97.6,143.6,93.8,142.2,90.6,140.7 M114.5,148.7c-4.2,0-8.3-0.6-11.8-1.5l2.2-7.2
				c1.5,0.3,5.2,0.8,9.6,0.8c4.4,0,8.1-0.5,9.6-0.8l2.2,7.2C122.8,148,118.7,148.7,114.5,148.7 M126.8,144.6l-2.1-6.9
				c4.5-0.9,7.6-1.9,10-2.8v4.3l3.7,1.5C135.3,142.2,131.4,143.6,126.8,144.6"/>
			<path class="st0" d="M50.5,70.3c0,0,2.2,4,3.4,4.9c3.8-3.8,6.7-9.4,12.9-12.6c-2.9-4.8-6.9-4-7.2-8.4c1.9,0.5,3.7-0.7,3.8-3
				c-2-1.1-2.7,1.1-3.2,0.5c-0.4-0.5,2.3-0.5,2-3.3c-2.6-0.1-2.1,1.8-2.7,1.6c-0.5-0.2,0.7-1.7-1.6-3.1c-1.3,2.5,0.5,3.2,0.1,3.6
				c-0.4,0.4-1.1-1.4-3.4-0.6c0.6,3,3.5,1.9,3.1,2.8c-0.3,0.6-2.3-1.3-3.1,1.1c1.1,2,3.2,1.6,4.3,0.7c0.2,3.9,2.8,4.3,5.7,7
				c-7.7-3.2-17.1,0.7-20.6,1.2c0.5,1.2,1.6,2.5,3,3c-2.2,2-2.2,3.1-3.7,4.6C43.5,70.3,46.4,73.5,50.5,70.3 M46.2,69.7
				c1-1.5,2.4-2.9,4.4-4.5c-1.3-0.2-2.3-0.6-3.5-1.5c2.7-0.7,8.3-2.7,13.1-1.8c1.6,0.2,2.5,0.9,1.9,1.2c-2.6,1.7-5.8,5.7-8.1,10.3
				c-2-2.5-1.2-5.8-0.7-6.8C49.1,69,48.1,70.2,46.2,69.7"/>
			<path class="st0" d="M111.1,67.4v2.3c0.8-1,2.3-0.8,2.3-0.8v3.3c0,0-0.1,1.6-0.6,2.4h1.7h1.7c-0.6-0.7-0.6-2.4-0.6-2.4v-3.3
				c0,0,1.5-0.2,2.3,0.8v-2.3h-3.4H111.1z"/>
		</g>
		<g>
			<g>
				<path class="st1" d="M187.6,68.4c-0.4-0.4-0.6-0.8-1-1.3c-0.2-0.3-0.4-0.6-0.6-0.9c0.6-0.7,1.1-1.5,1.4-2.3l1.5-3.4l-3.7-0.5
					c-0.6-0.1-1.6-0.4-2.8-0.7c-2.3-0.6-5.1-1.3-8.3-1.7c1.1-0.5,2-1.3,2.6-2.5l0.6-1.1c0,0-0.2-1.5-0.8-2c0.2-0.5,0.4-1,0.5-1.6
					l0.5-2.4l-2.3-0.8c-0.4-0.1-0.7-0.2-1.1-0.3c-0.1-0.4-0.3-0.9-0.6-1.4l-1.4-2.6l-2.5,1.5c-0.6,0.4-1.2,0.8-1.6,1.3
					c-0.4-0.1-0.8-0.1-1.2-0.1c0,0-1.4-0.2-3,0.4l-2-2.1l-2.4-2.6c-2.2-2.4-5.3-3.1-8.4-1.9c-1.2-1.2-3-2.2-5.9-2.2
					c-1,0-1.8,0.1-2.3,0.2c0,0-3.9,0.7-6.2,2.8l-2.7-1.3c-1.8,2.8-4.9,3.7-4.9,3.7c-0.2-0.8-0.6-1.6-1.1-2.3l0.2-1
					c0,0,0.6-3.4,2.4-6.3l3.2-5l-4.5,0.5c0-0.5,0-1-0.1-1.6l-0.4-3.9l-3.6,1.6c-0.4,0.2-0.7,0.4-1,0.5l-0.7-1.5l-1.6,0.8
					c-0.2-0.4-0.4-0.9-0.7-1.4l-1.9-3.4l-2.7,2.9c-0.3,0.3-0.5,0.6-0.7,0.8l-1.6-1.6l-1.6,1.6c-0.2-0.3-0.4-0.5-0.7-0.8l-2.7-2.9
					l-1.9,3.5c-0.3,0.5-0.5,1-0.7,1.4l-1.6-0.8l-0.7,1.5c-0.3-0.2-0.6-0.3-1-0.5l-3.6-1.6l-0.4,3.9c-0.1,0.6-0.1,1.2-0.1,1.6
					L95,28.2l3.2,5c1.8,2.9,2.4,6.2,2.4,6.3l0.2,1c-0.5,0.7-0.9,1.5-1.1,2.3c0,0-2.9-1.2-4.9-3.7l-2.7,1.3c-3.1-2.1-5.1-2.9-8.4-3
					c-2.9-0.1-4.7,1-5.9,2.2c-3.1-1.2-6.1-0.5-8.4,1.9c0,0-1.5,1.6-2.4,2.6c-0.9,1-2.3,1.8-2.3,1.8s-1.9-0.4-3.9,0
					c-0.4-0.5-1-0.9-1.6-1.3L56.7,43l-1.4,2.6c-0.3,0.5-0.5,1-0.6,1.4c-0.4,0.1-0.7,0.1-1.1,0.3L51.3,48l0.5,2.4
					c0.1,0.6,0.3,1.1,0.5,1.6c-0.1,0.3-0.3,0.5-0.4,0.8L51.6,54l0.6,1.1c0.6,1.1,1.5,2,2.6,2.5c-3.2,0.3-6,1.1-8.3,1.7
					c-1.2,0.3-2.2,0.6-2.8,0.7l-3.7,0.5l0.8,1.9l0.7,1.5c0.4,0.8,0.9,1.6,1.5,2.3c-0.2,0.3-1.1,1.8-1.6,2.2l-1.9,1.9l1.8,2
					c0.2,0.2,2.2,2.3,5.5,2.3c0.9,0,1.8-0.2,2.6-0.5c0.9,1.4,1.9,2.7,2.8,3.4c-1.7,2-3.7,3.8-6.5,5.1l-2.3,1.1l1,2.7
					c0.7,1.6,1.9,3.4,4.4,4.1c-0.5,1.6-0.8,3.1-1,4.4c-0.5,3.2-0.7,4.5-3.5,5.4l-2.5,0.9l0.7,2.5c0.6,2.1,1.4,3.4,2.4,4.3l-1.7,1.8
					c0,0,3.9,3,7.8,3.3c0.1,0,3.3,0.2,4.8-1.7c0.6,2.1,1.5,4.1,2.4,5.9c1.7,3.7,2.7,5.8,1.5,7.8l-2.6,4.5l5.2-0.2
					c2.3-0.1,4.4-0.2,6.2-0.7c0,0.1,0,0.2,0,0.3l-0.4,3.8l4.5-1c0.5-0.1,0.9-0.3,1.3-0.6c2.8,3.3,7.6,5.9,14,5.9h0.4l-7.4,3l5.4,2.8
					c3.6,1.8,7.5,3.4,12,4.7l-0.6,2.2l2.7,0.8c1.6,0.5,7.2,2,14.1,2c6.9,0,12.5-1.5,14.1-2l2.7-0.8l-0.6-2.2c4.5-1.3,8.5-2.9,12-4.7
					l5.4-2.8l-7.4-3h0.4c6.4,0,11.2-2.6,14-5.9c0.4,0.2,0.9,0.4,1.3,0.6l4.5,1l-0.4-3.8c0-0.1,0-0.2,0-0.3c1.8,0.4,3.9,0.6,6.2,0.7
					l5.2,0.2l-2.6-4.5c-1.2-2-0.2-4.2,1.5-7.8c0.8-1.8,1.8-3.8,2.4-5.9c1,0.8,2.1,1.2,3.1,1.5c0,0,0.8,0.2,1.6,0.3
					c2.3,0.1,3.4-0.6,5-1.6l2.9-1.8l-1.7-1.8c0.9-0.9,1.8-2.3,2.4-4.3l0.7-2.6l-2.5-0.9c-2.8-1-3-2.3-3.5-5.4
					c-0.2-1.3-0.5-2.8-1-4.4c2.5-0.7,3.7-2.4,4.4-4.1l1-2.7l-2.3-1.1c-2.8-1.3-4.8-3.1-6.5-5.1c0.9-0.7,2-2,2.8-3.4
					c0.9,0.3,1.7,0.5,2.6,0.5l0,0c3.2,0,5.3-2.1,5.5-2.3l1.8-2L187.6,68.4z"/>
				<path class="st2" d="M91.7,103V81.6c0-2-0.6-4-1.3-5.8h16.6c1.5,2.1,4.3,3.5,7.5,3.5c3.2,0,5.9-1.4,7.5-3.5h16.6
					c-0.7,1.8-1.3,3.8-1.3,5.8V103H91.7z M114.5,132.3c-2.3-2.3-4-2.6-10.3-2.6c-7.5,0-12.6-4.4-12.6-11.4v-14.1h45.7v14.1
					c0,7-5.1,11.4-12.6,11.4C118.5,129.7,116.8,130,114.5,132.3"/>
				<path class="st1" d="M94.3,135v4.3l-3.7,1.5c3.1,1.4,7,2.8,11.6,3.9l2.1-6.9C99.9,136.8,96.7,135.9,94.3,135"/>
				<path class="st1" d="M114.5,140.8c-4.4,0-8.1-0.5-9.6-0.8l-2.2,7.2c3.5,0.9,7.6,1.5,11.8,1.5c4.2,0,8.3-0.6,11.8-1.5l-2.2-7.2
					C122.6,140.3,118.9,140.8,114.5,140.8"/>
				<path class="st1" d="M134.7,135c-2.4,0.9-5.5,1.9-10,2.8l2.1,6.9c4.6-1,8.5-2.5,11.6-3.9l-3.7-1.5V135z"/>
				<path class="st1" d="M86.5,65.9c5.8-3.1,20.1-10.1,10.4-17.5c-1.3-1-2.8-1.9-4-3.1c-1.5,1.2,0.6,4,1.1,5.1c0,0-3.2,0.3-4,0.3
					c-5,0-10.2-3-7.5-8.6c-2,0.4-2.2,2.3-2.8,3.9c-1.3-0.9-3.5-2.7-5.2-2.4c1.4,4.4,7.2,8.4,11.7,9.3c-4.6,2.5-13,4.3-17.4-1
					c-3.1,6,1.2,8.5,5.5,11.7C58.1,71,60.5,79.3,49.9,85.8c1.4,0.6,7.5-0.7,8.1-0.7c-2.3,3-3.4,4.3-4.1,5.7
					c-0.6,1.4-0.9,2.9-1.6,6.2c-0.5,2.6-1.4,5.2-4.6,7c1.2,2.3,4,0.5,5.2,0.2c-0.2,0.2-0.5,3-1.6,4.3c5.5-0.4,2.9-11.9,8.4-9.1
					c1.5,0.8,2,2.6,1.3,4.1c-3.6,7.4,4.6,13.9,4.1,20.4c2,0,4.1-0.1,5.4-2.8c0.7,1.3,1.7,3.2,2.3,5.1l1.6-2.8
					c1,4.6,5.3,8.8,11.1,9.2c-2.8-4.4,0.5-10.3-6.2-16.7c0.8-0.7,2.8-2,3.5-2.9c-8.2,1-16.8-5.5-12.9-8.6c2.6-2,3.7,2.2,7.6,1.5
					l-1.5-1.3c0.5-0.5,1.2-1.2,1.8-1.8c-1.7-0.2-3.5-1.3-3.5-1.3l1-1.6c-9.7,0-9.9-7.4-6-7.7c1.8-0.1,4.2,3.3,10.2,2.6
					c-0.8-0.9-1.1-2.3-1.4-3.3c1.4-0.1,3.1-0.1,4.5-0.8c-2.9-0.4-3.6-1.3-6.1-3.2l2.8-1c-4.1-2-3.8-5.6-3.9-9.3
					c2.1,1.2,4.6,3.1,7.3,2.2c0.6-0.2,1-0.5,1.1-1.2C79.9,76.7,77.4,70.8,86.5,65.9 M79.6,66.5c-5.1,5.4-2.9,8.7-1.9,9.7
					c-1.9-0.4-4.7-2.8-4.1-5.2c-0.6,0.7-1.2,1.5-1.9,2.3c-1.3,1.7-2.4,3.3-3.4,4.9c-1.5,4.6,1.3,9.3,6.1,11.4
					c-5.4-0.8-7.8-5.6-7.7-8.6c-2.6,4.8-3.8,9.2-3.7,13c0,1.4,0.2,2.7,0.3,3.9c1.2,2.3,3.2,3.2,6.7,3.6c-3.2,0.2-4.9,0.1-6.3-1.4
					c2.2,9.4,12.4,17.5,16.5,24.4c-4.2-5.4-12.8-13.4-15.8-19.3c-0.2,2.1,0.3,7.5,2.9,10.8c-3.9-3.8-4.2-9.5-3.9-12.9
					c-1-2.4-1.6-5.1-1.7-8.2c-0.1-2.8,0.1-5.3,0.6-7.5c-2.4,3.5-5.9,4.8-7.7,10.1c0.3-6.8,5.4-6.9,9.2-15.1c1.5-3.6,3.6-6.7,6-10.3
					c-3,1-5.3,1.7-8.7,5.5C63.8,71.9,78,65.4,84.6,59c-2,0.4-10,0.6-13.3-1.6c6,1.6,19.4-0.2,24.5-3.7c-3.5,5-11.1,5.3-20.4,15.3
					C76.6,68.1,78.2,67.1,79.6,66.5"/>
				<path class="st1" d="M176.7,97c-0.6-3.3-0.9-4.9-1.6-6.2c-0.7-1.5-1.7-2.7-4.1-5.7c0.6,0.1,6.7,1.4,8.1,0.7
					c-10.6-6.5-8.2-14.8-24.4-22.2c4.3-3.2,8.6-5.7,5.5-11.7c-4.4,5.3-12.9,3.5-17.4,1c4.5-0.9,10.3-4.9,11.7-9.3
					c-1.7-0.3-3.9,1.6-5.2,2.4c-0.6-1.6-0.8-3.5-2.8-3.9c2.6,5.6-2.6,8.6-7.5,8.6c-0.8,0-4-0.3-4-0.3c0.5-1.1,2.6-3.9,1.1-5.1
					c-1.2,1.1-2.7,2-4,3.1c-9.6,7.5,4.6,14.4,10.4,17.5c9.1,4.9,6.7,10.8,2.9,12.3c0,0.7,0.4,1,1.1,1.2c2.7,0.9,5.2-1,7.3-2.2
					c-0.1,3.7,0.1,7.2-3.9,9.3l2.8,1c-2.4,1.8-3.1,2.8-6,3.2c1.3,0.7,3,0.6,4.5,0.8c-0.4,1-0.7,2.4-1.4,3.3
					c5.9,0.7,8.3-2.7,10.2-2.6c3.9,0.3,3.7,7.7-6,7.7l1,1.7c0,0-1.8,1.1-3.5,1.3c0.6,0.5,1.3,1.2,1.8,1.8l-1.5,1.3
					c3.9,0.7,5.1-3.5,7.6-1.5c3.9,3.1-4.7,9.6-12.9,8.6c0.7,0.9,2.6,2.2,3.5,2.9c-6.7,6.3-3.4,12.3-6.2,16.7
					c5.8-0.4,10.1-4.6,11.1-9.2l1.6,2.8c0.6-1.8,1.7-3.7,2.3-5.1c1.3,2.7,3.4,2.8,5.4,2.8c-0.5-6.5,7.7-13,4.1-20.4
					c-0.7-1.5-0.3-3.3,1.3-4.1c5.5-2.8,2.9,8.7,8.4,9.1c-1-1.3-1.4-4-1.6-4.3c1.2,0.3,3.9,2.1,5.2-0.2
					C178.2,102.2,177.2,99.6,176.7,97 M166.5,87.6c0.4,2.2,0.6,4.7,0.6,7.5c-0.1,3.1-0.7,5.8-1.7,8.2c0.2,3.4-0.1,9.1-3.9,12.9
					c2.6-3.3,3.2-8.7,2.9-10.8c-3,5.8-11.6,13.9-15.8,19.3c4.2-6.9,14.3-15.1,16.5-24.4c-1.4,1.5-3.1,1.6-6.3,1.4
					c3.5-0.4,5.5-1.3,6.7-3.6c0.2-1.2,0.3-2.5,0.4-3.9c0.1-3.7-1.1-8.1-3.7-13c0,3-2.4,7.8-7.7,8.6c4.8-2.1,7.7-6.9,6.1-11.4
					c-1-1.6-2.1-3.3-3.4-4.9c-0.6-0.8-1.3-1.6-1.9-2.3c0.6,2.3-2.2,4.8-4.1,5.2c1-1,3.2-4.3-1.9-9.7c1.4,0.7,3,1.6,4.2,2.6
					c-9.3-10-16.9-10.3-20.4-15.3c5.1,3.5,18.5,5.3,24.5,3.7c-3.3,2.2-11.3,2-13.3,1.6c6.5,6.4,20.8,12.9,23.3,18.7
					c-3.5-3.8-5.7-4.5-8.7-5.5c2.4,3.5,4.5,6.6,6,10.2c3.8,8.2,8.9,8.3,9.2,15.1C172.5,92.4,168.9,91,166.5,87.6"/>
				<path class="st1" d="M122,75.7c-1.5,2.1-4.3,3.5-7.5,3.5c-0.7,0-1.4-0.1-2.1-0.2c0.2,0.9,0.6,1.8,1.6,2.5
					c-0.4,2.5,0.7,4.9,3.4,5.5c0.3,1.3,1.1,2.2,2.4,2.7l-1.9,2.2c-0.7,0.8-1.7,1.1-2.4,1l-8.4-1c0.4-0.9-0.6-2-3.3-1.5l3.3-9.2
					l-2-4.3l-3.8,3.3l-0.3,9.7L99.4,89c-2.1-0.9-2.7,2.9-0.7,2.9l0.8,0c-0.1,0.4,0.1,0.8,0.4,1c-0.4,0.2-0.5,0.9,0,1.1
					c-0.5,0.2-0.5,1-0.2,1.3c-0.4,0.7-0.5,2.2,1,2.6c1.2,0.3,2-1,2.2-1.7l13,4c1.8,0.5,3.2,0.2,4.7-1.1l3.4-3
					c-0.4,1.9,0.3,3.7,1.7,4.3c0,0-0.2,1.8-0.1,2.5l4.6,0h7.2V81.6c0-2,0.6-4,1.3-5.8h-8.5H122z"/>
				<path class="st1" d="M102.5,111.8l0.3,0.3c0.4,0.4,0.6,0.3,1,0.1l0.6-0.3c0.4-0.3,2.8,0.6,2.9-1.4c0.3,1.5-1.5,4.7-0.4,6.4
					l1.5,2.4l-4.8,0.1c-0.5,0-0.8,0.3-0.9,0.6l-1.2,2.6c-0.3,0.7-0.3,1.4,0.1,1.9l0.8,0.9c0,0,0.7-0.6,0.9-1.3l-0.4-0.4
					c-0.3-0.3-0.3-0.6-0.1-0.9l0.8-1.6c0.3-0.6,0.6-0.8,1.3-0.6l3.8,0.8c0.3,0.1,0.7,0.2,1-0.3c0.5-0.8,1.3-0.9,2.1-0.8
					c2.1,0.3,7,0.8,8.7-1.2c2,2.7,6,2.7,5.8,4.1l-0.8,4.7h1.3l0.8-4.8c0.1-0.6,0.4-1.3-0.2-1.7c-0.2-0.2-0.4-0.3-0.9-1.2
					c-0.7-1.3-0.7-3.2-1.4-4.8c0.7-0.8,1.4-1,2-0.9c1.4,0.3,1.8,2.8,3.8,4.7c-0.2-0.9-0.3-1.8-0.8-2.7c0,0,1.4,1.1,1.7,2.3
					c0.2,0.8,0.5,1.4,1.2,1.7c0.5,0.2,1-0.1,1.6-0.7c0,0-1.3-1.9-2.3-3.1c-1.3-1.7-3.1-3.4-5.5-3.2c-0.8,0.1-1.5,0.4-2.2,0.8
					c-2.7-1.5-4.9,0.1-5.7,0.1l-5.1-0.3c-1-0.1-1.8-1.2-1.8-1.2c-0.1-4.3-3.6-6.1-4.8-6.1c0,0,0.1-0.8-0.2-1.1l-1.1,1.3l-3-1.1
					l2.3,1.9l-2.5,2.9C102.3,111.3,102.3,111.6,102.5,111.8"/>
				<path class="st1" d="M99.1,117.9c-0.7,0.6-0.7,1.3-0.3,2.2l0.4,0.8l1.1-0.9l-0.3-0.5c-0.2-0.4-0.2-0.8,0.1-1l1.6-1.2
					c0.4-0.3,0.6-0.4,1.1-0.3l3.4,0.7c0,0-0.5-0.7-0.7-1.5l-3.2-0.4c-0.5-0.1-0.7,0.1-1.1,0.4L99.1,117.9z"/>
				<path class="st1" d="M120.7,127.9h1.3l2-5.1c0.1-0.2,0.2-0.3,0.2-0.4c-0.9-0.4-1.5-0.6-2.2-1.1c0.5,0.7,0.9,1,0.7,1.6
					L120.7,127.9z"/>
				<path class="st1" d="M121.8,59.6l2.4-13.6l-9,3v14L121.8,59.6z M116.7,50.4l6-2.2c0,0-1.2,0.9-2.5,1.9c-1.2,0.9-3.4,1.8-3.4,1.8
					V50.4z M116.7,53.7l5.4-1.9c0,0-0.7,0.7-2,1.6c-1.2,0.8-3.4,1.8-3.4,1.8V53.7z M116.7,57.2l4.8-1.8c0,0,0,0.6-1.4,1.5
					c-1.2,0.9-3.4,1.8-3.4,1.8V57.2z"/>
				<path class="st1" d="M105.8,71.6l0.2,0.3h1.8l0,0.3c0,0.3,0.1,0.6,0.2,0.9c0.3,0.9,0.9,1.8,1.8,2.5c1.1,0.9,2.6,1.5,4.6,1.5
					c4.4,0,6.4-2.9,6.6-5l0-0.3h1.9l0.2-0.3c1.7-2.7,3.9-5.8,6.4-6.2l-6.7-3.9l-8.3,4.5l-8.3-4.5l-6.7,3.9
					C102,65.8,104.1,68.9,105.8,71.6"/>
				<path class="st1" d="M113.8,63V49l-9-3.1l2.4,13.6L113.8,63z M112.3,58.6c0,0-2.2-0.9-3.4-1.8c-1.4-0.9-1.4-1.5-1.4-1.5l4.8,1.8
					V58.6z M112.3,50.4v1.5c0,0-2.2-0.9-3.4-1.8c-1.4-0.9-2.6-1.9-2.6-1.9L112.3,50.4z M112.3,53.7v1.4c0,0-2.2-0.9-3.4-1.8
					c-1.4-1-2-1.6-2-1.6L112.3,53.7z"/>
				<path class="st1" d="M114.5,39.9c-5.1,0-9,1.7-9.8,3.6l9.8,3.9l9.8-3.9C123.5,41.6,119.6,39.9,114.5,39.9"/>
				<path class="st1" d="M114.5,34.3c3.8,0,7.6,1.1,10.1,2.6c0.4-1.4,0.9-2.3,1.5-3.5l-2.3,0.4l-1.9-4l-3.5,1.9l-3.9-3.8l-3.9,3.8
					l-3.5-1.9l-1.9,4l-2.3-0.4c0.6,1.1,1,2.1,1.5,3.5C107,35.5,110.7,34.3,114.5,34.3"/>
				<path class="st1" d="M178.5,65.2c1.3-0.2,2.3-0.6,3.5-1.5c-2.7-0.7-8.3-2.7-13.1-1.8c-1.6,0.2-2.5,0.9-1.9,1.2
					c2.6,1.7,5.8,5.7,8.1,10.3c2-2.5,1.2-5.8,0.8-6.8c4.1,2.4,5.1,3.6,7,3.2C181.9,68.2,180.4,66.8,178.5,65.2"/>
				<path class="st1" d="M53.9,73.3c2.3-4.6,5.5-8.6,8.1-10.3c0.6-0.4-0.3-1-1.9-1.2c-4.8-0.9-10.4,1.1-13.1,1.8
					c1.3,0.9,2.3,1.3,3.5,1.5c-1.9,1.6-3.4,3-4.4,4.5c1.9,0.5,2.9-0.7,7-3.2C52.8,67.5,51.9,70.8,53.9,73.3"/>
				<path class="st3" d="M82,116.2c1.9-1.5,3.4-2.2,3.3-5.8c-2.8,1.4-10.7,1.4-14.1-3.2c-0.9-1.3,0.1-2,1-0.9c2.3,2.6,6.5,1.4,8,0.7
					c-0.2-0.9-0.9-2-1.5-2.5c0.6-0.6,2.2-1.4,2.5-2.9c-0.9-0.5-4.2-0.8-4.2-0.8c0.5-0.5,1.2-1.2,0.8-3.2c-3.4,1.1-7.7-0.4-8.7-1.7
					c-0.9-1.3,0-2.4,0.8-1.6c1.7,1.8,10.2,3.9,13.3,0.7c-1.2-0.3-2.5-1.4-2.7-2c2.9-0.3,5.2-2,5.4-4.1c-1.6,0-4.6-0.1-5.7-0.9
					c1.4-0.5,2.3-1,2.7-2.6c-5.3-0.3-5.7-4.3-5.8-4.9c3.5,2,9.6,1.1,8-3.8c-2.9-0.2-5.8-4.8,2.1-9.1c7.2-3.9,15.4-8.1,14.7-15
					c-0.5-4.4-7.8-7.5-8.7-9.7c-3,1.4-3.7,3.1-2.3,5.9c0,0-6.8,0.7-7.3-3.5c-0.2-1.9,1-3.6,2.4-5c-0.8,0-5.9-1.4-7.4,2.8
					c-2.9-2-5.3-1.9-7.2,0.2c3.1,1.8,5,8.1,10.1,9.9c-3.6,2-9.5,1.1-12.9-4.9c-3.2,4.9-5.1,9.7,1.8,14.8
					c-12.6,5.7-12.5,16.7-23.5,22c1.1,3,3.5,3,6.5,2.5c-4.7,6.2-0.7,12.6-8.2,15.3c0.7,2.5,2.1,4.5,4.9,3.8
					c-0.8,1.2-1.3,1.2-2.5,2.6c4.1,2.6,9,0.7,10.1-7.6c0.2-1.5,2.2-0.6,1.5,0.9c-4.7,9.7,7.2,17,3,24.1c3.7-0.2,6.5-0.4,8-1.7
					c0.8,1.5,1.2,3,1,4.4c2-0.4,2.8-1.6,2.9-3c1.3,3.9,6.1,8.1,13.8,8.1C84,128.7,87.7,122.8,82,116.2 M74.4,123.3l-1.6,2.8
					c-0.6-1.8-1.6-3.7-2.3-5.1c-1.3,2.7-3.4,2.8-5.4,2.8c0.4-6.5-7.7-13-4.1-20.4c0.7-1.5,0.2-3.3-1.3-4.1c-5.5-2.8-2.9,8.7-8.4,9.1
					c1-1.3,1.4-4,1.6-4.3c-1.2,0.3-3.9,2.1-5.2-0.2c3.2-1.7,4.1-4.3,4.6-7c0.6-3.3,0.9-4.9,1.6-6.2c0.7-1.5,1.7-2.7,4.1-5.7
					c-0.5,0.1-6.7,1.4-8.1,0.7c10.6-6.5,8.2-14.8,24.4-22.2c-4.2-3.2-8.6-5.7-5.5-11.7c4.4,5.3,12.9,3.5,17.4,1
					C81.7,52,75.9,48,74.6,43.6c1.7-0.3,3.9,1.6,5.2,2.4c0.6-1.6,0.8-3.5,2.8-3.9c-2.6,5.6,2.6,8.6,7.5,8.6c0.8,0,4-0.3,4-0.3
					c-0.5-1.1-2.6-3.9-1.1-5.1c1.2,1.1,2.7,2,4,3.1c9.6,7.5-4.6,14.4-10.4,17.5c-9.1,4.9-6.7,10.8-2.9,12.3c0,0.7-0.4,1-1.1,1.2
					c-2.7,0.9-5.2-1-7.3-2.2c0.1,3.7-0.1,7.2,3.9,9.3l-2.8,1c2.4,1.8,3.1,2.8,6.1,3.2c-1.4,0.7-3,0.6-4.5,0.8c0.4,1,0.7,2.4,1.4,3.3
					c-5.9,0.7-8.3-2.7-10.2-2.6c-3.9,0.3-3.7,7.7,6,7.7l-1,1.7c0,0,1.8,1.1,3.5,1.3c-0.6,0.5-1.3,1.2-1.8,1.8l1.5,1.3
					c-3.9,0.7-5.1-3.5-7.6-1.5c-3.9,3.1,4.7,9.6,12.9,8.6c-0.7,0.9-2.6,2.2-3.5,2.9c6.7,6.3,3.4,12.3,6.2,16.7
					C79.7,132.2,75.5,127.9,74.4,123.3"/>
				<path class="st3" d="M63.9,100.2c1.4,1.5,3.1,1.6,6.3,1.4c-3.5-0.4-5.5-1.3-6.7-3.6c-0.2-1.2-0.3-2.5-0.3-3.9
					c-0.1-3.7,1.1-8.1,3.7-13c0,3,2.4,7.8,7.7,8.6c-4.8-2.1-7.7-6.9-6.1-11.4c1-1.6,2.1-3.3,3.4-4.9c0.6-0.8,1.3-1.6,1.9-2.3
					c-0.6,2.3,2.2,4.8,4.1,5.2c-1-1-3.2-4.3,1.9-9.7c-1.4,0.7-3,1.6-4.2,2.6c9.3-10,16.9-10.3,20.4-15.3c-5.1,3.5-18.5,5.3-24.5,3.7
					c3.3,2.2,11.3,2,13.3,1.6C78,65.4,63.8,71.9,61.3,77.7c3.5-3.8,5.7-4.5,8.7-5.5c-2.4,3.5-4.5,6.6-6,10.2
					c-3.8,8.2-8.9,8.3-9.2,15.1c1.7-5.3,5.2-6.6,7.7-10.1c-0.4,2.2-0.6,4.7-0.6,7.5c0.1,3.1,0.7,5.8,1.7,8.2
					c-0.2,3.4,0.1,9.1,3.9,12.9c-2.6-3.3-3.2-8.7-2.9-10.8c3,5.8,11.6,13.9,15.8,19.3C76.2,117.7,66,109.5,63.9,100.2"/>
				<path class="st3" d="M159,72.3c3,1,5.2,1.7,8.7,5.5c-2.5-5.8-16.7-12.4-23.3-18.7c2,0.4,10,0.6,13.3-1.6
					c-6,1.6-19.4-0.2-24.5-3.7c3.5,5,11.1,5.3,20.4,15.3c-1.2-0.9-2.8-1.9-4.2-2.6c5.1,5.4,2.9,8.7,1.9,9.7c1.9-0.4,4.7-2.8,4.1-5.2
					c0.6,0.7,1.2,1.5,1.9,2.3c1.3,1.7,2.4,3.3,3.4,4.9c1.5,4.6-1.3,9.3-6.1,11.4c5.4-0.8,7.8-5.6,7.7-8.6c2.6,4.8,3.8,9.2,3.7,13
					c0,1.4-0.2,2.7-0.3,3.9c-1.2,2.3-3.2,3.2-6.7,3.6c3.2,0.2,4.9,0.1,6.3-1.4c-2.2,9.4-12.4,17.5-16.5,24.4
					c4.2-5.4,12.7-13.4,15.8-19.3c0.2,2.1-0.3,7.5-2.9,10.8c3.9-3.8,4.1-9.5,3.9-12.9c1-2.4,1.6-5.1,1.7-8.2
					c0.1-2.8-0.1-5.3-0.6-7.5c2.4,3.5,5.9,4.8,7.7,10.1c-0.3-6.8-5.4-6.9-9.2-15.1C163.5,78.9,161.4,75.8,159,72.3"/>
				<path class="st3" d="M175.5,87.7c3,0.5,5.3,0.5,6.5-2.5c-11-5.2-10.9-16.2-23.5-22c6.9-5.1,5.1-10,1.8-14.8
					c-3.4,6-9.3,6.9-12.9,4.9c5.1-1.8,7-8.1,10.1-9.9c-1.9-2.1-4.4-2.1-7.3-0.2c-1.5-4.2-6.7-2.8-7.4-2.8c1.3,1.3,2.6,3.1,2.4,5
					c-0.5,4.2-7.3,3.5-7.3,3.5c1.4-2.8,0.8-4.5-2.3-5.9c-0.9,2.2-8.2,5.3-8.7,9.7c-0.7,6.9,7.5,11.1,14.7,15c7.9,4.3,5,8.9,2.1,9.1
					c-1.6,4.9,4.5,5.8,8,3.8c0,0.7-0.5,4.6-5.8,4.9c0.4,1.6,1.3,2.1,2.7,2.6c-1,0.8-4.1,0.9-5.7,0.9c0.2,2.1,2.5,3.9,5.4,4.1
					c-0.2,0.6-1.5,1.7-2.7,2c3.1,3.1,11.6,1.1,13.3-0.7c0.8-0.8,1.7,0.3,0.8,1.6c-1,1.3-5.2,2.7-8.7,1.7c-0.4,1.9,0.3,2.7,0.8,3.2
					c0,0-3.4,0.3-4.2,0.8c0.3,1.4,2,2.3,2.5,2.9c-0.6,0.5-1.3,1.6-1.5,2.5c1.5,0.7,5.7,1.9,8-0.7c0.9-1,1.9-0.4,1,0.9
					c-3.3,4.6-11.3,4.6-14.1,3.2c-0.1,3.6,1.5,4.3,3.3,5.8c-5.7,6.6-1.9,12.5-6,18.3c7.6,0,12.4-4.2,13.8-8.1c0.2,1.4,0.9,2.6,2.9,3
					c-0.2-1.5,0.3-2.9,1-4.4c1.5,1.2,4.4,1.5,8.1,1.7c-4.2-7.1,7.7-14.4,3-24.1c-0.7-1.5,1.3-2.4,1.5-0.9c1.1,8.3,6,10.2,10.1,7.6
					c-1.2-1.3-1.7-1.3-2.5-2.6c2.8,0.7,4.2-1.3,4.9-3.8C176.2,100.3,180.3,93.8,175.5,87.7 M176.2,104.2c0.1,0.2,0.5,3,1.6,4.3
					c-5.5-0.4-2.9-11.9-8.4-9.1c-1.5,0.8-2,2.6-1.3,4.1c3.6,7.4-4.6,13.9-4.1,20.4c-2,0-4.1-0.1-5.4-2.8c-0.7,1.3-1.7,3.2-2.3,5.1
					l-1.6-2.8c-1,4.6-5.3,8.8-11.1,9.2c2.7-4.4-0.6-10.3,6.2-16.7c-0.8-0.7-2.8-2-3.5-2.9c8.2,1,16.8-5.5,12.9-8.6
					c-2.6-2-3.7,2.2-7.6,1.5l1.5-1.3c-0.5-0.5-1.2-1.2-1.8-1.8c1.7-0.2,3.5-1.3,3.5-1.3l-1-1.7c9.7,0,9.9-7.4,6-7.7
					c-1.8-0.1-4.2,3.3-10.2,2.6c0.7-0.9,1.1-2.3,1.4-3.3c-1.4-0.1-3.1-0.1-4.5-0.8c2.9-0.4,3.6-1.3,6-3.2l-2.8-1
					c4.1-2,3.8-5.6,3.9-9.3c-2.1,1.2-4.6,3.1-7.3,2.2c-0.6-0.2-1-0.5-1.1-1.2c3.8-1.5,6.3-7.4-2.9-12.3
					c-5.8-3.1-20.1-10.1-10.4-17.5c1.3-1,2.8-1.9,4-3.1c1.5,1.2-0.6,4-1.1,5.1c0,0,3.2,0.3,4,0.3c5,0,10.2-3,7.5-8.6
					c2,0.4,2.2,2.3,2.8,3.9c1.3-0.9,3.5-2.7,5.2-2.4c-1.4,4.4-7.2,8.4-11.7,9.3c4.5,2.5,13,4.3,17.4-1c3.1,6-1.2,8.5-5.5,11.7
					c16.2,7.4,13.8,15.7,24.4,22.2c-1.4,0.6-7.5-0.7-8.1-0.7c2.3,3,3.4,4.3,4.1,5.7c0.6,1.4,0.9,2.9,1.6,6.2c0.5,2.6,1.4,5.2,4.6,7
					C180.1,106.2,177.3,104.5,176.2,104.2"/>
				<path class="st3" d="M99,122.3l2.3-2l-0.4-0.7c-0.3-0.5-0.1-0.5,0.1-0.7l1.2-0.9c0.3-0.2,0.6-0.2,0.9-0.1l3.7,0.9h-3.9
					c-0.9,0.1-1.2,0.4-1.5,1.1l-0.3,0.5l-1,2c-0.3,0.7-0.5,1.6,0.4,2.7l0.7,0.8l-1.4,2.9h1.2l1-2c0.1-0.1,1.5-1.4,1.8-2.8
					c-0.4-0.3-0.7-0.6-0.5-1.1l0.4-1c0.1-0.3,0.2-0.4,0.6-0.4l3.8,0.8c0.5,0.1,1.2,0.3,1.7-0.4c0.5-0.8,0.6-0.7,1.8-0.6l2,0.2
					c2.7,0.3,5.4-0.4,6.4-1.2c0.4,0.8,1.1,1.5,1.4,2.1c0.1,0.2-0.1,0.6-0.2,1l-2.2,5.3h3.4l1.9-4.8c0.2-0.5,0.4-0.8,0.6-1l-1.1,5.8
					h3.3l0.9-5.7c0.2-1.3,0.1-1.7-0.5-2.2c-1.4-1.2-1.3-3.6-1.8-5.1c0.2-0.1,0.5-0.2,0.8-0.2c0.7,0.1,1.3,1.9,2.1,3.1
					c1.7,2.4,4,5,6.6,1.3c-0.3-0.4-0.5-0.8-0.8-1.2l-0.7-0.9c-0.4-0.5-2.5-2.8-3.3-3.7c-1.9-1.9-4.9-1.6-6.1-0.7
					c-2.7-1.4-5.5,0.1-6.2,0l-4.6-0.3c-0.2,0-0.5-0.1-0.8-0.4l0.9-0.3c-0.8-3.3-2.8-6.1-6.3-6.6c0,0-0.2-1.1-0.7-1.3l-1.1,1.2
					c-0.3,0-0.6,0.1-0.9,0.2l-4.5-1.7l3.4,3.4c0,0-1.8,2.5-2.3,3c-0.3,0.5-0.3,0.8,0.1,1.3l0.7,0.9c0.3,0.4,0.7,0.4,1.2,0.2l0.7-0.4
					c0.3-0.3,1.4,0.3,1.9-0.2c-0.3,1-0.4,1.9-0.5,2.6l-3-0.4c-0.7-0.1-1,0-1.4,0.3l-2.6,2c-0.8,0.6-1.1,1.8-0.6,2.9L99,122.3z
					 M124.1,122.9l-2.1,5.1h-1.3l2-4.9c0.2-0.6-0.2-0.9-0.7-1.6c0.8,0.4,1.3,0.7,2.2,1.1C124.2,122.6,124.1,122.7,124.1,122.9
					 M104.3,111.9l-0.6,0.3c-0.4,0.2-0.6,0.3-1-0.1l-0.3-0.3c-0.1-0.2-0.2-0.5,0.1-0.8l2.5-2.9l-2.3-1.9l3,1.1l1.1-1.3
					c0.3,0.3,0.2,1,0.2,1c1.2,0,4.7,1.7,4.8,6.1c0,0,0.8,1.2,1.8,1.2l5.1,0.3c0.8,0,3-1.6,5.7-0.1c0.7-0.4,1.4-0.7,2.2-0.8
					c2.4-0.2,4.2,1.5,5.5,3.2c1,1.2,2.3,3.1,2.3,3.1c-0.6,0.7-1.1,0.9-1.6,0.7c-0.7-0.4-0.9-0.9-1.2-1.7c-0.4-1.3-1.7-2.3-1.7-2.3
					c0.5,0.8,0.6,1.8,0.8,2.7c-2-2-2.4-4.4-3.8-4.7c-0.6-0.2-1.3,0.1-2,0.9c0.7,1.6,0.7,3.5,1.4,4.8c0.6,0.9,0.7,1,0.9,1.2
					c0.6,0.4,0.3,1.2,0.2,1.7l-0.8,4.8h-1.3l0.8-4.7c0.3-1.4-3.7-1.4-5.8-4.1c-1.7,2-6.6,1.5-8.7,1.2c-0.8-0.1-1.7-0.1-2.1,0.8
					c-0.3,0.5-0.7,0.3-1,0.3l-3.8-0.8c-0.7-0.2-1,0-1.3,0.6l-0.8,1.6c-0.2,0.4-0.2,0.6,0.1,0.9l0.4,0.4c-0.2,0.8-0.9,1.3-0.9,1.3
					l-0.8-0.9c-0.4-0.5-0.4-1.2-0.1-1.8l1.2-2.6c0.1-0.3,0.4-0.6,0.9-0.6l4.8-0.1l-1.5-2.4c-1.1-1.8,0.7-4.9,0.4-6.4
					C107.1,112.6,104.6,111.6,104.3,111.9 M99.1,117.9l2.3-1.7c0.4-0.3,0.7-0.5,1.1-0.4l3.2,0.4c0.2,0.8,0.7,1.5,0.7,1.5l-3.4-0.7
					c-0.5-0.1-0.6,0-1.1,0.3l-1.6,1.2c-0.3,0.2-0.3,0.6-0.1,1l0.3,0.6l-1.1,0.8l-0.4-0.8C98.4,119.2,98.4,118.4,99.1,117.9"/>
				<path class="st3" d="M108.9,56.9c1.2,0.8,3.4,1.8,3.4,1.8v-1.4l-4.8-1.8C107.5,55.3,107.5,55.9,108.9,56.9"/>
				<path class="st3" d="M112.3,55.1v-1.4l-5.4-1.9c0,0,0.6,0.7,2,1.6C110.1,54.2,112.3,55.1,112.3,55.1"/>
				<path class="st3" d="M112.3,51.8v-1.5l-6-2.2c0,0,1.2,0.9,2.6,1.9C110.1,50.9,112.3,51.8,112.3,51.8"/>
				<path class="st3" d="M129.1,71.6h6.1c-0.3-0.9-1.2-1.8-3-1.8C130.5,69.8,129.5,70.8,129.1,71.6"/>
				<path class="st3" d="M122.7,48.2l-6,2.2v1.5c0,0,2.2-0.9,3.4-1.8C121.5,49.1,122.7,48.2,122.7,48.2"/>
				<path class="st3" d="M121.5,55.3l-4.8,1.8v1.4c0,0,2.2-0.9,3.4-1.8C121.5,55.9,121.5,55.3,121.5,55.3"/>
				<path class="st3" d="M122.2,51.7l-5.4,1.9v1.4c0,0,2.2-0.9,3.4-1.8C121.5,52.4,122.2,51.7,122.2,51.7"/>
				<path class="st3" d="M96.8,69.8c-1.8,0-2.7,0.9-3,1.8h6.1C99.5,70.8,98.5,69.8,96.8,69.8"/>
				<path class="st3" d="M126.6,44.3c0-3.4-5.8-6.5-12.1-6.5c-6.4,0-12.1,3.1-12.1,6.5l0.1,0.8l2.5,14.6l-12,7
					c-1.3,0.7-2.9,2.8-3.1,4.9h2.2c0.4-2.1,2-4.4,5.1-4.2c2.8,0.1,4.4,1.8,6.1,4.2l0.4,0.6l0.6,0.9H86.6c1.3,2.6,2.5,5.4,2.5,8.4
					v36.8c0,9.5,7.3,14,15.1,14c6.1,0,6.9-0.3,10.2,3.1c3.3-3.4,4.2-3.1,10.2-3.1c7.9,0,15.1-4.5,15.1-14V81.6c0-3,1.2-5.8,2.5-8.4
					h-17.7l0.6-0.9l0.4-0.6c1.6-2.4,3.3-4.1,6.1-4.2c3.1-0.1,4.7,2.2,5.1,4.2h2.2c-0.2-2.1-1.8-4.2-3.1-4.9l-12-7l2.5-14.6
					L126.6,44.3z M104.9,45.9l9,3v14l-6.6-3.5L104.9,45.9z M107.1,75.7c1.2,1.6,3.1,2.8,5.4,3.3c0.2,0.9,0.7,1.8,1.6,2.5
					c-0.4,2.5,0.7,4.8,3.4,5.5c0.3,1.3,1.1,2.2,2.4,2.7l-1.9,2.2c-0.7,0.8-1.6,1.1-2.4,1l-8.4-1c0.4-0.9-0.6-2-3.3-1.5l3.3-9.2
					l-2-4.3l-3.8,3.3l-0.3,9.7L99.4,89c-2.1-0.9-2.7,2.9-0.7,2.9l0.8,0c-0.1,0.4,0.1,0.8,0.4,1c-0.4,0.2-0.5,0.9,0,1.1
					c-0.5,0.2-0.5,1-0.2,1.3c-0.4,0.7-0.5,2.2,1,2.6c1.2,0.3,2-1,2.2-1.7l13,4c1.8,0.5,3.2,0.2,4.7-1.1l3.4-3
					c-0.4,1.9,0.3,3.7,1.8,4.3c0,0-0.2,1.7-0.1,2.5H91.7V81.6c0-2-0.6-4-1.3-5.8H107.1z M121.1,83.9c-0.7,1.4-0.6,2.9,0.2,4.4
					l-0.6,0.6c-2.4-0.3-3.4-4-3.4-4c0,0.3-0.1,0.6-0.1,1c-1.4-0.5-2.3-1.8-2.3-3.5c0.5,0.3,1.1,0.5,1.8,0.6l0.2-1.1
					c-1.7-0.3-2.7-1.4-3.1-2.6c-0.1,0-0.2,0-0.2,0c0.3,0,0.6,0,0.9,0c1,0,2-0.2,2.9-0.4c0.7,1,2,1.7,3.2,1.9
					C120.4,81.5,120.5,82.6,121.1,83.9 M124.7,93.5c-0.2,0.3-0.4,0.7-0.6,1.1l-1.4,1.3c0.3-2-1.1-4.4-2.3-5.3l1.4-1.4l0.3,0.3
					C121.7,90.7,122.7,93.2,124.7,93.5 M118.1,92.9l1.1-1.1c1.1,1,2.6,3.2,2.2,5.3l-1.2,1.1c-0.3,0.2-0.5,0.4-0.8,0.6
					C120.2,96.9,119.2,94,118.1,92.9 M115.7,93.8L115.7,93.8c0.4,0.1,0.9,0,1.3-0.2c0.9,1.2,1.5,4,0.5,5.7c-0.6,0-1.2-0.1-1.7-0.2
					l-0.4-0.1C116.2,97.7,116.1,95.3,115.7,93.8 M112.9,93.5l1.6,0.2c0.3,1.3,0.1,3.6-0.8,4.9l-1.8-0.5
					C112.7,96.9,113,94.7,112.9,93.5 M109.6,93.1l1.9,0.2c0.2,1.1-0.2,3.3-0.9,4.4l-2-0.6C109.4,96.1,109.7,94.2,109.6,93.1
					 M101.8,92.5c-0.9,0.3-1.3-0.4-1.2-0.9c1.8-0.6,2.5-0.2,3,0.1c0.5,0.3,0.9,1.1,1.5,1.7c-0.1,0.7-0.3,1.8-0.6,2.5
					c-1.8-0.5-1.9-2-1.2-3C102.9,92.4,102.5,92.3,101.8,92.5 M100.5,96c0,0,0.5,0.2,1.2,0.3c-0.1,0.4-0.4,0.7-0.8,0.6
					C100.5,96.9,100.4,96.4,100.5,96 M98.8,90.9C98.3,90.6,98.5,90,99,90c0.5,0,1.3,0.6,2,0.9C101,90.9,99.1,91.2,98.8,90.9
					 M100.6,94.6c0.4,0.4,1.5,0.2,1.5,0.2l0,0.2C101.7,95.8,100.3,95.5,100.6,94.6 M102.2,93.9c-0.8,0.3-1.7-0.1-1.4-0.7
					c0.4,0.3,1.5,0.2,1.5,0.2L102.2,93.9z M103.4,84.2l-1.6,5.8l0.5-9.3l2.5-2.1l1.3,2.7l-3.2,9.1l0.8-6.1
					C103.8,83.8,103.4,83.8,103.4,84.2 M103.5,91.2c0,0,1.8-0.1,2.3,0.1c0.4,0.2,0.1,0.8-0.4,0.7C104.9,92,103.5,91.2,103.5,91.2
					 M106.3,92.6l1.9,0.2c0.1,1.1-0.1,2.8-0.8,3.8l-1.9-0.5C106,95,106.1,93.9,106.3,92.6 M137.4,118.3c0,4.5-2.1,7.9-5.5,9.8
					l1.2-2.5h-1.2l-1.6,3.2c-1.6,0.6-3.5,1-5.5,1c-6.3,0-7.9,0.3-10.2,2.6c-2.3-2.3-4-2.6-10.2-2.6c-2,0-3.9-0.3-5.5-0.9h0l1.6-3.2
					h-1.2l-1.4,2.8c-0.3-0.2-0.7-0.3-1-0.5l1.1-2.3h-1.2l-0.8,1.7c-2.7-2-4.3-5.1-4.3-9v-14.1h45.7V118.3z M138.6,75.7
					c-0.7,1.8-1.3,3.8-1.3,5.8V103h-2.5c-1.1-1.1-2.1-4.8-2.1-4.8c-0.6,1.3,0.1,4,0.8,4.8h-3.2c-0.8-1.1-1.5-4.9-1.5-4.9
					c-1,1.1-0.4,4.1,0.2,4.9h-2.1c-0.1-1.5,0.3-3.2,0.3-3.2c-1.1-0.2-2.3-0.8-2.3-2c0.6,0.5,0.8,0.5,1.6,0.5l0.9-0.7
					c-3,0.1-3.1-3.2-0.8-4.7c-2.4,0.1-4.2-1.3-3.3-3.9c-1.7-0.9-2.3-3.7-1-5c-0.9-1-1.1-2.9-0.5-4.2c-1.2,0-2.6-0.5-3.3-1.3
					c-0.1,0-0.1,0-0.2,0.1c1.5-0.6,2.8-1.6,3.6-2.8H138.6z M129.5,65.4c-2.5,0.4-4.6,3.5-6.4,6.2l-0.2,0.3h-1.9l0,0.3
					c-0.2,2.1-2.2,5-6.6,5c-2,0-3.6-0.6-4.6-1.5c-0.9-0.7-1.5-1.7-1.8-2.5c-0.1-0.3-0.2-0.6-0.2-0.9l0-0.3H106l-0.2-0.3
					c-1.8-2.7-3.9-5.8-6.3-6.2l6.7-3.9l8.3,4.5l8.3-4.5L129.5,65.4z M121.8,59.6l-6.6,3.5V49l9-3L121.8,59.6z M114.5,47.5l-9.8-3.9
					c0.8-2,4.7-3.6,9.8-3.6c5.1,0,9,1.7,9.8,3.6L114.5,47.5z"/>
				<path class="st3" d="M136.3,89.6l0-1.1c-3.3-0.1-4.1-4-4.1-4C131.3,87.4,133.8,89.5,136.3,89.6"/>
				<path class="st3" d="M132.2,96.2l-0.3-1c-2.8,0.7-4.3-3.7-4.3-3.7C126.7,94.7,129.8,96.9,132.2,96.2"/>
				<path class="st3" d="M134.1,92c-3.4,0.5-4.7-3.4-4.7-3.4c-0.4,2.1,1,4.3,3.2,4.5c-0.5,2.8,2.1,4.2,4.3,3.2l-0.3-1
					C134.6,96.1,132.8,94.2,134.1,92"/>
				<path class="st3" d="M132.1,80.9l0-1.1c-4.4-0.9-4.1-4-4.1-4C127.1,78.7,129.6,80.8,132.1,80.9"/>
				<polygon class="st3" points="104,125.6 102.4,128.8 103.6,128.8 105.2,125.6 				"/>
				<polygon class="st3" points="106.4,125.6 104.8,128.8 106,128.8 107.6,125.6 				"/>
				<polygon class="st3" points="116,125.6 114.4,128.8 115.6,128.8 117.2,125.6 				"/>
				<polygon class="st3" points="118.4,125.6 116.8,128.8 118,128.8 119.6,125.6 				"/>
				<polygon class="st3" points="113.6,125.6 112,128.8 113.2,128.8 114.8,125.6 				"/>
				<polygon class="st3" points="127.6,128.8 128.8,128.8 130.4,125.6 129.2,125.6 				"/>
				<polygon class="st3" points="108.8,125.6 107.2,128.8 108.4,128.8 110,125.6 				"/>
				<polygon class="st3" points="111.2,125.6 109.6,128.8 110.8,128.8 112.4,125.6 				"/>
				<path class="st3" d="M105.8,108.3c-0.2,0-0.4,0.2-0.4,0.5c0,0.3,0.2,0.5,0.4,0.5c0.2,0,0.4-0.2,0.4-0.5
					C106.2,108.5,106,108.3,105.8,108.3"/>
				<path class="st3" d="M114.5,35.6c4.9,0,8.9,1.6,11,3.4c0,0,0.7-3.9,2.9-7.3l-4,0.4l-2.1-4.4l-4,2.1l-3.9-3.8l-3.9,3.8l-4-2.1
					l-2.1,4.4l-4-0.4c2.2,3.4,2.9,7.3,2.9,7.3C105.6,37.2,109.6,35.6,114.5,35.6 M105.3,33.8l1.9-4l3.5,1.9l3.9-3.8l3.9,3.8l3.5-1.9
					l1.9,4l2.3-0.4c-0.6,1.1-1,2.1-1.5,3.5c-2.5-1.5-6.3-2.6-10.1-2.6c-3.8,0-7.6,1.1-10.1,2.6c-0.4-1.4-0.9-2.3-1.5-3.5L105.3,33.8
					z"/>
				<path class="st3" d="M118.6,27.7c0.6,0,1.1-0.4,1.1-1c0.1-0.6-0.8-2.1-0.8-2.1s-1.3,1.4-1.3,1.9C117.6,27.1,118,27.6,118.6,27.7
					"/>
				<path class="st3" d="M125.1,30c0.5,0.3,1.1,0.1,1.4-0.4c0.3-0.5,0.1-2.2,0.1-2.2s-1.7,0.8-1.9,1.3
					C124.4,29.1,124.6,29.8,125.1,30"/>
				<path class="st3" d="M110.5,27.7c0.6-0.1,1-0.6,1-1.1c-0.1-0.6-1.3-1.9-1.3-1.9s-0.8,1.5-0.8,2.1
					C109.4,27.3,109.9,27.7,110.5,27.7"/>
				<path class="st3" d="M104,30c0.5-0.3,0.7-0.9,0.4-1.4c-0.3-0.5-1.9-1.3-1.9-1.3s-0.2,1.7,0.1,2.2C102.8,30.1,103.5,30.3,104,30"
					/>
				<path class="st3" d="M181.9,65.8c1.4-0.5,2.5-1.8,3-3c-3.5-0.5-12.9-4.4-20.6-1.2c2.9-2.7,5.5-3.1,5.7-7
					c1.2,0.9,3.2,1.3,4.3-0.7c-0.8-2.3-2.8-0.4-3.1-1.1c-0.4-0.9,2.5,0.3,3.2-2.8c-2.3-0.8-2.9,1.1-3.4,0.6
					c-0.4-0.4,1.4-1.2,0.1-3.6c-2.4,1.4-1.1,2.9-1.6,3.1c-0.6,0.2-0.1-1.7-2.7-1.6c-0.3,2.8,2.5,2.9,2,3.3c-0.5,0.5-1.2-1.6-3.2-0.5
					c0,2.3,1.9,3.5,3.8,3c-0.3,4.3-4.3,3.5-7.2,8.4c6.2,3.2,9,8.8,12.9,12.6c1.3-0.9,3.4-4.9,3.4-4.9c4.1,3.2,7.1,0,7.1,0
					C184.1,68.9,184.1,67.8,181.9,65.8 M175.9,66.5c0.4,1,1.3,4.3-0.8,6.8c-2.3-4.6-5.5-8.6-8.1-10.3c-0.6-0.4,0.3-1,1.9-1.2
					c4.8-0.9,10.4,1.1,13.1,1.8c-1.2,0.9-2.3,1.3-3.5,1.5c1.9,1.6,3.4,3,4.4,4.5C181,70.2,179.9,69,175.9,66.5"/>
				<path class="st3" d="M113.4,142.1l-2.7-0.1l-0.3,1.1l0.3,0c0.1,0,0.1-0.2,0.2-0.3c0.1,0,0.5-0.1,0.9-0.1l1.1,0.1
					c-0.7,1.4-2.4,2.7-2.4,3.6c0,0.5,0.5,0.6,0.8,0.6c0.5,0,0.7-0.4,0.9-1c0.3-1.4,1-2.4,1.5-4L113.4,142.1L113.4,142.1z"/>
				<path class="st3" d="M115.2,143.8l0-0.8h2.3l-0.1-0.9c-0.6,0-1.6,0.2-2.4,0.2l-0.2,1.8c1.1,0,1.8,0.4,1.8,1.6
					c0,0.4-0.3,1.2-0.8,1.3c-0.1,0-0.3,0-0.3-0.1c-0.2-0.2,0.1-0.4,0.1-0.7c0-0.4-0.4-0.5-0.6-0.5c-0.4,0-0.5,0.3-0.5,0.6
					c0,0.7,1,0.9,1.4,0.9c1,0,2.1-0.5,2.1-1.6C117.9,144.1,116.3,143.8,115.2,143.8"/>
				<path class="st3" d="M120.3,141.9c-0.8,0-1.5,0.6-1.5,1.5c0,1.4,1.4,1.8,2.5,1.3c0.1,1-0.1,1.8-0.5,1.8c-0.3,0-0.3-0.3-0.3-0.5
					c-0.1-0.4-0.4-0.5-0.7-0.4c-0.4,0.1-0.4,0.4-0.3,0.6c0.2,0.5,0.8,0.5,1.1,0.5c1.4-0.2,2-1.2,2-2.3
					C122.5,143.1,121.7,141.9,120.3,141.9 M120.8,144.5c-0.8,0-1-1.3-1-1.9c0-0.2,0.2-0.4,0.3-0.4c0.8,0,1,1.8,1,2.3
					C121.1,144.4,121,144.5,120.8,144.5"/>
				<path class="st3" d="M108.8,141.6c-0.1,0.2-0.7,0.9-1.9,1.8l0.1,0.2c0.1-0.1,0.4-0.2,0.7-0.4l-0.7,2.6c0,0.1-0.2,0.2-0.3,0.1
					l-0.4-0.1l-0.1,0.3l2.4,0.4l0.1-0.3l-0.4-0.1c-0.1,0-0.2-0.1-0.2-0.3l1.1-4.3L108.8,141.6z"/>
				<path class="st3" d="M135.9,138.4v-5.3c-4.1,1.9-9.2,3.4-15.9,4l-0.3,1.9c0.6,0.1,1.3,0.1,2.2,0.2c-2.5,0.3-5.6,0.5-7.4,0.5
					c-1.7,0-4.9-0.2-7.4-0.5c1-0.1,1.7-0.1,2.2-0.2l-0.3-1.9c-6.7-0.6-11.8-2.1-15.9-4v5.3l-5.5,2.3c4.1,2.1,8.8,3.9,14.2,5.3
					l-0.6,2.2c3.1,0.9,8.1,1.8,13.3,1.8c5.2,0,10.2-0.9,13.3-1.8l-0.6-2.2c5.4-1.4,10.1-3.1,14.2-5.3L135.9,138.4z M90.6,140.7
					l3.7-1.5V135c2.4,0.9,5.5,1.9,10,2.8l-2.1,6.9C97.7,143.6,93.8,142.2,90.6,140.7 M114.5,148.7c-4.2,0-8.3-0.6-11.8-1.5l2.2-7.2
					c1.5,0.3,5.2,0.8,9.6,0.8c4.4,0,8.1-0.5,9.6-0.8l2.2,7.2C122.8,148,118.7,148.7,114.5,148.7 M126.8,144.6l-2.1-6.9
					c4.5-0.9,7.6-1.9,10-2.8v4.3l3.7,1.5C135.3,142.2,131.4,143.6,126.8,144.6"/>
				<path class="st3" d="M50.5,70.3c0,0,2.2,4,3.4,4.9c3.8-3.8,6.7-9.4,12.9-12.6c-2.9-4.8-6.9-4-7.2-8.4c1.9,0.5,3.7-0.7,3.8-3
					c-2-1.1-2.7,1.1-3.2,0.5c-0.4-0.5,2.3-0.5,2-3.3c-2.6-0.1-2.1,1.8-2.7,1.6c-0.5-0.2,0.7-1.7-1.6-3.1c-1.3,2.5,0.5,3.2,0.1,3.6
					c-0.4,0.4-1.1-1.4-3.4-0.6c0.6,3,3.5,1.9,3.1,2.8c-0.3,0.6-2.3-1.3-3.1,1.1c1.1,2.1,3.2,1.6,4.3,0.7c0.3,3.9,2.8,4.3,5.7,7
					c-7.7-3.2-17,0.7-20.6,1.2c0.5,1.2,1.6,2.5,3,3c-2.2,2-2.2,3.1-3.7,4.6C43.5,70.3,46.4,73.5,50.5,70.3 M46.2,69.7
					c1-1.5,2.4-2.9,4.4-4.5c-1.3-0.2-2.3-0.6-3.5-1.5c2.7-0.7,8.3-2.7,13.1-1.8c1.6,0.2,2.5,0.9,1.9,1.2c-2.6,1.7-5.8,5.7-8.1,10.3
					c-2-2.5-1.2-5.8-0.7-6.8C49.1,69,48.1,70.2,46.2,69.7"/>
				<path class="st3" d="M111.2,67.4v2.3c0.8-1,2.3-0.8,2.3-0.8v3.3c0,0-0.1,1.6-0.6,2.4h1.7h1.7c-0.6-0.7-0.6-2.4-0.6-2.4v-3.3
					c0,0,1.5-0.2,2.3,0.8v-2.3h-3.4H111.2z"/>
			</g>
		</g>
	</g>
</g>
</svg>
