<?xml version="1.0" encoding="utf-8"?>
<!-- Generator: Adobe Illustrator 21.0.0, SVG Export Plug-In . SVG Version: 6.00 Build 0)  -->
<svg version="1.1" id="Слой_1" xmlns="http://www.w3.org/2000/svg" xmlns:xlink="http://www.w3.org/1999/xlink" x="0px" y="0px"
	 viewBox="0 0 512 182.3" style="enable-background:new 0 0 512 182.3;" xml:space="preserve">
<style type="text/css">
	.st0{fill-rule:evenodd;clip-rule:evenodd;fill:none;}
	.st1{fill-rule:evenodd;clip-rule:evenodd;}
	.st2{fill-rule:evenodd;clip-rule:evenodd;fill:#D24A48;}
</style>
<g>
	<polygon class="st0" points="105.8,7.1 422.4,7.1 422.4,177.5 105.8,177.5 105.8,7.1 	"/>
	<path class="st1" d="M240.1,23.8H119.8V99h30.1c-4.7-6.3-7.5-14.1-7.5-22.6c0-20.8,16.8-37.6,37.6-37.6c20.8,0,37.6,16.8,37.6,37.6
		c0,8.5-2.8,16.3-7.5,22.6h30.1V23.8L240.1,23.8z"/>
	<path class="st2" d="M165.4,69h-0.5v90.2h90.2v-0.5C212.1,146,178.1,112.1,165.4,69L165.4,69z"/>
	<path class="st1" d="M356.2,93.4c-0.2,0.4-0.3,0.9-0.6,1.6c-0.2,0.7-0.3,1.3-0.3,1.8c0,0.4,0.1,0.8,0.3,1c0.2,0.2,0.5,0.4,1,0.6
		c0.3,0.1,0.5,0.1,0.9,0.2c0.3,0,0.6,0.1,0.9,0.1v0.9h-7.9v-0.9c0.5-0.1,1-0.2,1.5-0.5c0.5-0.2,0.9-0.5,1.2-0.9
		c0.3-0.3,0.5-0.6,0.7-1c0.2-0.4,0.3-0.6,0.4-0.8l10.2-26.6h0.8l10.5,29.7h3.1v0.9h-12.7v-0.9h4.1l-3.4-9.5h-9L356.2,93.4
		L356.2,93.4z M362.6,76.7l-4.5,11.6h8.5L362.6,76.7L362.6,76.7z M408.4,69.9h-3.6v28.8h3.6v0.9h-12.3v-0.9h3.6V69.9h-5.2
		c-0.4,0-1,0-1.7,0.1c-0.7,0.1-1.3,0.4-1.9,0.9c-0.4,0.4-0.7,0.9-0.9,1.4c-0.1,0.5-0.2,1-0.3,1.5c-0.1,0.5-0.1,1.1-0.1,1.7
		c0,0.6-0.1,1.3-0.1,2.2c0,0.8,0,1.8,0,2.9c0,1.1,0,2.4-0.1,3.9l-0.2,7.2c0,1.2-0.1,2.2-0.1,3.1c0,0.9-0.2,1.7-0.5,2.5
		c-0.2,0.6-0.5,1-0.8,1.4c-0.3,0.3-0.7,0.5-1.1,0.7c-0.5,0.2-1.1,0.3-2,0.3c-1.5,0-2.8-0.3-3.7-1c-0.4-0.3-0.8-0.7-1.2-1.3
		c-0.4-0.5-0.5-1.3-0.5-2.1c0-1,0.3-1.8,0.8-2.5c0.6-0.7,1.4-1,2.4-1c0.9,0,1.6,0.2,2.1,0.7c0.5,0.5,0.8,1.1,0.8,1.8
		c0,0.8-0.2,1.5-0.6,2.2c-0.2,0.2-0.3,0.4-0.4,0.6c-0.1,0.2-0.2,0.4-0.2,0.5c0,0.2,0.1,0.4,0.2,0.6c0.2,0.2,0.5,0.4,1,0.4
		c0.4,0,0.9-0.1,1.3-0.4c0.4-0.3,0.9-0.8,1.1-1.4c0.2-0.6,0.4-1.3,0.4-2.1c0-0.8,0.1-1.8,0.1-3l0.2-7.2c0-1.6,0.1-2.8,0.1-3.8
		c0-1,0-1.7,0-2.3v-3.8c0-0.5,0-1-0.1-1.6c0-0.6-0.3-1.2-0.7-1.7c-0.3-0.3-0.5-0.6-0.8-0.7c-0.3-0.2-0.6-0.3-0.9-0.4
		c-0.3-0.1-0.8-0.2-1.5-0.2h-1.1v-0.9h25V69.9L408.4,69.9z M306.8,69.9h-3.9l9.2,19.5l5.8-14.7c0.2-0.3,0.3-0.8,0.4-1.4
		c0.1-0.6,0.2-1.1,0.2-1.5c0-0.6-0.2-1.1-0.6-1.4c-0.4-0.3-0.9-0.4-1.5-0.4h-0.7v-0.9h8v0.9c-0.7,0-1.3,0.1-1.8,0.4
		c-0.5,0.3-0.9,0.5-1.2,0.9c-0.3,0.3-0.6,0.7-0.8,1c-0.2,0.3-0.3,0.6-0.4,0.8l-6.6,17.1c-0.4,0.9-0.8,1.8-1.1,2.5
		c-0.4,0.7-0.7,1.4-1.1,2.1c-0.5,0.8-0.7,1.2-1.2,1.9c-0.6,0.7-0.9,1.1-1.5,1.7c-0.6,0.5-1.1,0.9-1.7,1.1c-0.5,0.2-1.2,0.3-1.9,0.3
		c-1,0-1.8-0.1-2.5-0.4c-0.7-0.3-1.3-0.7-1.9-1.1c-0.8-0.7-1.3-1.4-1.6-2.1c-0.2-0.7-0.4-1.4-0.4-2c0-0.4,0.1-0.8,0.2-1.2
		c0.1-0.4,0.3-0.8,0.6-1.1c0.3-0.3,0.6-0.6,1-0.8c0.4-0.2,0.9-0.3,1.5-0.3c1,0,1.8,0.3,2.3,0.8c0.5,0.6,0.8,1.1,0.8,1.7
		c0,0.3-0.1,0.7-0.2,1c-0.1,0.3-0.3,0.6-0.5,0.9c-0.4,0.5-0.8,0.9-1.3,1.1c-0.5,0.3-0.7,0.6-0.7,1c0,0.3,0.2,0.7,0.6,1
		c0.4,0.4,1,0.6,1.9,0.6c0.7,0,1.4-0.2,2-0.5c0.6-0.3,1.2-0.8,1.6-1.2c0.3-0.4,0.7-0.8,0.9-1.3c0.3-0.5,0.5-0.8,0.6-0.9l-12-24.8
		h-3.2v-0.9h12.9V69.9L306.8,69.9z M292.9,77c0-0.5-0.2-1-0.3-1.6c-0.2-0.6-0.5-1.2-0.8-1.8c-0.4-0.6-0.9-1.2-1.5-1.8
		c-1.2-1.1-2.6-1.9-4.3-2.3c-1.6-0.4-3.2-0.5-4.8-0.5h-13.3v0.9h3.6v28.8h-3.6v0.9H280v-0.9h-3.6V87.4h4.6c1.8,0,3.6-0.2,5.3-0.6
		c1.7-0.4,3.1-1.2,4.1-2.2c0.2-0.2,0.5-0.5,0.8-0.9c0.3-0.4,0.6-0.8,0.8-1.3c0.3-0.5,0.5-1.1,0.7-1.8c0.2-0.7,0.3-1.5,0.3-2.3
		C292.9,77.9,292.9,77.5,292.9,77L292.9,77z M285.5,84.5c-0.3,0.3-0.6,0.6-1.1,0.9c-0.4,0.2-0.8,0.4-1.3,0.5
		c-0.5,0.1-0.9,0.2-1.4,0.3c-0.5,0.1-0.9,0.1-1.3,0.2c-0.4,0-0.7,0-0.9,0h-3.2V69.9h3.2c0.9,0,1.8,0.1,2.7,0.2
		c0.8,0.1,1.6,0.5,2.3,1c0.1,0,0.1,0.1,0.2,0.1c0,0,0.1,0.1,0.2,0.1c0.2,0.2,0.5,0.4,0.7,0.7c1.2,1.4,2,3.7,2,6.1
		C287.8,80.7,286.9,83,285.5,84.5L285.5,84.5z M346.6,68.9h-1.1c-0.3,1-0.8,1.5-1.6,1.5c-0.3,0-0.7-0.1-1.1-0.2
		c-0.4-0.1-0.9-0.3-1.6-0.6c-0.6-0.2-1.2-0.4-1.8-0.5c-0.5-0.1-1.2-0.2-1.9-0.2c-0.7,0-1.7,0-2.7,0.2c-0.9,0.2-2,0.3-3.1,0.9
		c-1,0.5-1.6,0.8-2.6,1.6c-0.9,0.8-1.8,1.9-2.7,3.2c-0.9,1.5-1.6,3.1-2,4.7c-0.4,1.6-0.6,3.3-0.6,5.1c0,2.1,0.2,3.9,0.7,5.5
		c0.5,1.6,1.1,3,1.8,4.2c0.7,1,1.4,1.9,2.2,2.6c0.8,0.7,1.6,1.2,2.5,1.7c0.9,0.4,1.8,0.7,2.7,0.8c0.9,0.1,1.9,0.1,2.8,0.1
		c1,0,2-0.1,2.9-0.3c0.9-0.2,1.7-0.6,2.5-1c0.5-0.2,0.9-0.5,1.3-0.7c0.4-0.2,0.4-0.3,0.8-0.3c0.3,0,0.6,0.1,0.7,0.2
		c0.2,0.2,0.3,0.3,0.4,0.5c0.1,0.2,0.2,0.4,0.2,0.6c0,0.2,0.1,0.9,0.1,0.9h1.1l0-10.2h-0.9c0,0.2,0,0.5,0,0.7c0,1.6-0.4,3.1-1.2,4.2
		c0,0.1-0.1,0.1-0.1,0.2c-0.8,1.2-1.9,2.2-3.2,3c-1.3,0.8-2.7,1.2-4,1.2c-0.8,0-1.7-0.2-2.5-0.6c-0.8-0.4-1.5-0.8-2.2-1.4
		c-0.4-0.4-0.8-0.8-1.2-1.3c-0.4-0.5-0.7-1.1-1.1-2.4c-0.1-0.2-0.2-0.5-0.2-0.7c-0.5-2.1-0.8-4.9-0.8-7.9c0-5.9,1.2-9.7,2.5-11.4
		c0.1-0.1,0.3-0.3,0.3-0.4c0.2-0.3,0.5-0.6,0.9-0.9c0.3-0.3,0.7-0.6,1.2-0.9c0.6-0.3,1-0.5,1.7-0.7c0.7-0.2,1.4-0.2,2.2-0.2
		c1.2,0,2.4,0.3,3.4,0.8c1,0.5,1.8,1.2,2.4,2c0.3,0.4,0.5,0.9,0.7,1.4c0.2,0.6,0.4,1.1,0.6,1.7c0.2,0.6,0.3,1.2,0.4,1.7
		c0.1,0.5,0.2,1,0.2,1.3h0.9V68.9L346.6,68.9z"/>
</g>
</svg>
