<?xml version="1.0" encoding="utf-8"?>
<!-- Generator: Adobe Illustrator 21.0.0, SVG Export Plug-In . SVG Version: 6.00 Build 0)  -->
<svg version="1.1" id="Слой_1" xmlns="http://www.w3.org/2000/svg" xmlns:xlink="http://www.w3.org/1999/xlink" x="0px" y="0px"
	 viewBox="0 0 512 182.3" style="enable-background:new 0 0 512 182.3;" xml:space="preserve">
<style type="text/css">
	.st0{fill:#D24A43;}
	.st1{fill:#211C1D;}
</style>
<g transform="matrix(1.25,0,0,-1.25,209.15146,959.834)">
	<g transform="translate(-157.01488,752.9562)">
		<path class="st0" d="M133.4-55.1H130c-5.4,0-10.6,3.9-10.6,13.7c0,10.2,4.9,14.3,9.9,14.3l4.2,0V-55.1z M138.8-21.9h-9.3
			c-9.1,0-16.9-6.9-16.9-20.4c0-8.1,3.8-14,10.4-17l-12.5-22.5c-0.4-0.7,0-1.3,0.7-1.3h5.8c0.5,0,0.8,0.2,1,0.6l11.3,22.1h4.1v-22.1
			c0-0.2,0.2-0.6,0.6-0.6h5.1c0.5,0,0.7,0.2,0.7,0.7v59.7C139.7-22.1,139.3-21.9,138.8-21.9"/>
	</g>
	<g transform="translate(-140.86568,758.7815)">
		<path class="st1" d="M153.3-47.9h-5.1c-0.4,0-0.7-0.3-0.7-0.6v-15.6h-9.4v15.6c0,0.4-0.2,0.6-0.6,0.6h-5.1c-0.4,0-0.7-0.2-0.7-0.6
			v-39.6c0-0.4,0.2-0.7,0.6-0.7h5.1c0.3,0,0.6,0.2,0.6,0.7v18.9h9.4v-18.9c0-0.4,0.2-0.7,0.7-0.7h5.1c0.4,0,0.6,0.3,0.6,0.7v39.6
			C153.8-48.2,153.6-47.9,153.3-47.9"/>
	</g>
	<g transform="translate(-89.129977,741.6412)">
		<path class="st1" d="M216.9-69l-0.7,2.8c-0.1,0.2-0.2,0.3-0.4,0.3c-0.4,0-2.6-0.9-5.8-0.9c-6.2,0-9.2,6-9.2,15.4
			c0,8.3,2.5,16.6,6.8,16.6c1.1,0,2.5-0.3,4.7-2.4c0.2-0.2,0.4-0.3,0.7-0.3s0.5,0.2,0.7,0.6l2.2,3.6c0.2,0.2,0.2,0.5,0.2,0.7
			c0,0.3-0.3,0.6-0.8,0.8c-3.3,1.7-5.6,2-7.6,2c-7.7,0-13.6-9.1-13.6-23.4c0-12.3,5.7-19.4,13.9-19.4c3.4,0,7.1,1.6,8.6,2.7
			C216.9-69.7,217-69.4,216.9-69"/>
	</g>
	<g transform="translate(-105.01378,750.522)">
		<path class="st1" d="M197.4-58.1l9.8,17.9c0.2,0.2,0.1,0.6-0.2,0.6h-4.8c-1.4,0-1.9-0.5-2.4-1.6l-7.3-15.2
			c-0.4-0.9-0.8-1.5-1.2-1.7v17.9c0,0.3-0.2,0.6-0.5,0.6h-5.3c-0.2,0-0.5-0.2-0.5-0.6V-80c0-0.2,0.2-0.6,0.5-0.6h5.3
			c0.3,0,0.5,0.2,0.5,0.6v20.5c0.2-0.2,0.4-0.4,0.6-0.7l9.3-19.1c0.5-1,1.2-1.2,2.3-1.2h5.2c0.3,0,0.4,0.3,0.2,0.6L197.4-58.1"/>
	</g>
	<g transform="translate(-129.90198,742.7742)">
		<path class="st1" d="M166.8-67.7h-11.8c4.2,7.1,5.8,15.1,6.4,24.9c0.2,2.1,0.2,4.3,0.2,5.7h5.2V-67.7z M175.6-67.7h-1
			c-1.2,0-1.6,0.5-1.6,1.5v33.7c0,0.4-0.2,0.6-0.5,0.6h-16.3c-0.4,0-0.7-0.2-0.7-0.6v-2.9c0-9.9-0.6-22.6-5.8-32.2H148
			c-0.5,0-0.7-0.2-0.7-0.7v-11.9c0-0.4,0.3-0.6,0.6-0.6h3.9c0.9,0,1.2,0.7,1.2,1.2v6.8h17.4v-7.4c0-0.3,0.2-0.6,0.6-0.6h4.2
			c0.5,0,1,0.4,1,1.2v11.3C176.2-67.9,176-67.7,175.6-67.7"/>
	</g>
	<g transform="translate(-118.90158,751.2895)">
		<path class="st1" d="M180.3-57.2c-1.9,0-4.8-0.3-4.8-0.3s0,1.2,0.2,2.5c0.7,6.9,2.4,10.4,5.3,10.4c2.6,0,4.2-3.6,4.6-9.9
			c0.1-1.3,0.1-2.8,0.1-2.8H180.3z M181.2-39.5c-8.8,0-12.7-11.1-12.7-23.2c0-12.3,5.5-19.6,13.7-19.6c4,0,7.5,1.5,9.3,2.7
			c0.3,0.2,0.4,0.4,0.3,0.7l-0.7,2.8c-0.1,0.3-0.2,0.5-0.7,0.5c-0.3,0-2.7-0.9-6-0.9c-6.3,0-9.2,5.5-9.2,12.6v1.9
			c0,0,3.2-0.4,5.1-0.4h11.9v3.4C192.2-46.2,187.7-39.5,181.2-39.5"/>
	</g>
</g>
</svg>
