<?xml version="1.0" encoding="utf-8"?>
<!-- Generator: Adobe Illustrator 21.0.0, SVG Export Plug-In . SVG Version: 6.00 Build 0)  -->
<svg version="1.1" id="Слой_1" xmlns="http://www.w3.org/2000/svg" xmlns:xlink="http://www.w3.org/1999/xlink" x="0px" y="0px"
	 viewBox="0 0 512 182.3" style="enable-background:new 0 0 512 182.3;" xml:space="preserve">
<style type="text/css">
	.st0{fill:#B74F46;}
	.st1{fill:#211C1D;}
</style>
<path class="st0" d="M133.3,56v2.9h24.7c1.6,0,4.1,0,5.8,1.6c1.6,1.7,1.6,4.1,1.6,5.8v24.7c0,1.7,0,4.1-1.6,5.8
	c-1.6,1.6-4.1,1.6-5.8,1.6h-12c-2.1,0-4.7,0-5.8-2.3c-1-2.3,0.4-4.3,1.6-6l16.1-21.4h-24.7L123.4,82c-1.7,2.2-3.1,4.1-3.1,6.6
	c0,2.5,1.3,4.3,3.1,6.6l2.5,3.3c2.5,3.3,4.9,6.6,8.2,8.2c3.3,1.6,7.2,1.6,12.6,1.6h10.7c6.2,0,15.5,0,21.7-6.2
	c6.2-6.2,6.2-15.3,6.2-18.6v-9.9c0-3.3,0-12.4-6.2-18.6c-6.2-6.2-15.5-6.2-21.7-6.2l-17.1,0c-1.6,0-3.7,0-5.4,1.7
	C133.3,52.3,133.3,54.4,133.3,56"/>
<polyline class="st0" points="103.6,68.8 128.4,68.8 98.7,108.4 73.9,108.4 103.6,68.8 "/>
<path class="st0" d="M7.1,75.8c0-1.6,0-3.7,1.6-5.4s3.7-1.6,5.4-1.6h41.4c5.4,0,9.3,0,12.6,1.6c3.3,1.6,5.8,4.9,8.2,8.2l2.5,3.3
	c1.8,2.3,3.1,4.1,3.1,6.6c0,2.5-1.4,4.4-3.1,6.6L69,108.4H44.2l16.1-21.4c1.2-1.6,2.7-3.7,1.6-6c-1-2.3-3.7-2.3-5.8-2.3H36.8v49.5
	H17V78.7H7.1V75.8"/>
<path class="st1" d="M208.8,101.3c-1.5,2-3,4-4.5,6v1.1h4.2c2-2.7,3.1-4.2,3.1-5.8h4.1v5.8h3.9v-5.8h4.1c0,1.6,1.1,3.1,3.1,5.8h4.2
	v-1.1l-4.5-6c3.8-2.9,3.8-2.9,3.8-6.6v-1.2H226v1.2c0,4.5,0,4.5-4.5,4.5h-2v-5.8h-3.9v5.8h-2c-4.5,0-4.5,0-4.5-4.5v-1.2H205v1.2
	C205,98.4,205,98.4,208.8,101.3"/>
<path class="st1" d="M238.5,99.6c0-3.3,0-3.3,3.7-3.3c3.7,0,3.7,0,3.7,3.3H238.5 M238.5,102.2h3.7c3.8,0,5,0,6.2-0.3l1.5-0.4v-1.5
	c0-2.5,0-7.1-7-7.1h-1.4c-7,0-7,4.6-7,7.1v1.4c0,2.7,0.1,7.1,7.8,7.1c1.2,0,3.8,0,6.6-0.7v-3.2H248l-2.9,0.7h-3
	C238.5,105.5,238.5,105.5,238.5,102.2z"/>
<path class="st1" d="M256.5,93.4c0,2.3-0.2,9.1-3.7,13.8v1.2h4.4c2.6-3.4,2.6-7.9,2.6-11.7h6.1v11.7h3.9v-15L256.5,93.4"/>
<path class="st1" d="M278.8,99.6c0-3.3,0-3.3,3.7-3.3c3.7,0,3.7,0,3.7,3.3H278.8 M278.8,102.2h3.7c3.8,0,5,0,6.2-0.3l1.5-0.4v-1.5
	c0-2.5,0-7.1-7-7.1h-1.4c-7,0-7,4.6-7,7.1v1.4c0,2.7,0.1,7.1,7.8,7.1c1.2,0,3.8,0,6.6-0.7v-3.2h-0.8l-2.9,0.7h-3
	C278.8,105.5,278.8,105.5,278.8,102.2z"/>
<path class="st1" d="M304.6,101.1v-0.4c3-0.8,3-2.6,3-3.4c0-1.4,0-4.3-7.2-4.3c-1.1,0-3.6,0-6.4,0.7V97h0.8l2.9-0.7h3.3
	c2.3,0,2.4,0,2.4,1.7c0,1.6,0,1.6-2.4,1.6h-3.3v2.7h3.3c2.3,0,2.4,0,2.4,1.6c0,1.7,0,1.7-2.4,1.7h-3.3l-2.9-0.7H294v3.2
	c2.9,0.7,5.3,0.7,6.4,0.7c7.2,0,7.2-2.8,7.2-4.3C307.6,103.8,307.6,101.9,304.6,101.1"/>
<polyline class="st1" points="323.9,93.4 323.9,99.2 316.1,99.2 316.1,93.4 312.1,93.4 312.1,108.4 316.1,108.4 316.1,102.6 
	323.9,102.6 323.9,108.4 327.8,108.4 327.8,93.4 323.9,93.4 "/>
<path class="st1" d="M340.2,100.9c3.1,0,3.1,0,3.1,2.3c0,2.3,0,2.3-3.1,2.3h-3.1v-4.6H340.2 M354.2,93.4h-3.9v15h3.9V93.4z
	 M340.7,108.4c4.7,0,6.7-1,6.7-5.1c0-2.2,0-5.4-6.1-5.4c-0.9,0-2.4,0.1-4.2,0.5v-5h-3.9v15H340.7z"/>
<path class="st1" d="M363,99.6c0-3.3,0-3.3,3.7-3.3s3.7,0,3.7,3.3H363 M363,102.2h3.7c3.8,0,5,0,6.2-0.3l1.5-0.4v-1.5
	c0-2.5,0-7.1-7-7.1H366c-7,0-7,4.6-7,7.1v1.4c0,2.7,0.1,7.1,7.8,7.1c1.2,0,3.8,0,6.6-0.7v-3.2h-0.8l-2.9,0.7h-3
	C363,105.5,363,105.5,363,102.2z"/>
<path class="st1" d="M390.8,100.4c0-4,0-3.9,5.3-3.9c0.7,0,1.7,0.1,2.9,0.4v6.4l-3.8,0.9C390.8,104.2,390.8,104.2,390.8,100.4
	 M388.5,110.7v3.4c2.9,0.7,5.2,0.7,6.1,0.7c8.1,0,8.3-3.5,8.4-7.5V93.4h-1.3l-1.9,1.4c-1.3-1.7-4.5-1.8-5.5-1.8
	c-7.5,0-7.5,4.8-7.5,6.9v0.7c0,2.5,0,6.6,6.4,6.6c1.9,0,4.2-0.5,5.9-1.8v1.2c0,4.6-0.1,4.6-4.8,4.6h-2l-2.9-0.7L388.5,110.7
	L388.5,110.7z"/>
<path class="st1" d="M414.8,93.1c-7.6,0-7.6,4.5-7.6,7.1v1.4c0,2.7,0,7.1,7.6,7.1h1.4c7.6,0,7.6-4.5,7.6-7.1v-1.4
	c0-2.7,0-7.1-7.6-7.1H414.8 M415.5,96.4c4.2,0,4.2,0,4.2,4.5s0,4.5-4.2,4.5c-4.2,0-4.2,0-4.2-4.5S411.3,96.4,415.5,96.4z"/>
<path class="st1" d="M440.2,100.9c0,4.5,0,4.5-4.4,4.5c-1.1,0-2.4,0-3.8-0.4v-7.5l3.8-0.9C440.2,96.6,440.2,96.6,440.2,100.9
	 M428.1,93.4v21h3.9v-6.5c1.8,0.4,3.2,0.8,5.3,0.8c6.9,0,6.9-5.1,6.9-7.1v-1.4c0-2.5,0-7.1-6.5-7.1c-3.3,0-5.3,1.5-6.3,2.3l-1.4-1.9
	C430.1,93.4,428.1,93.4,428.1,93.4z"/>
<path class="st1" d="M456.1,93.1c-7.6,0-7.6,4.5-7.6,7.1v1.4c0,2.7,0,7.1,7.6,7.1h1.4c7.6,0,7.6-4.5,7.6-7.1v-1.4
	c0-2.7,0-7.1-7.6-7.1H456.1 M456.8,96.4c4.2,0,4.2,0,4.2,4.5s0,4.5-4.2,4.5s-4.2,0-4.2-4.5S452.7,96.4,456.8,96.4z"/>
<path class="st1" d="M476.4,93.1c-1.4,0-3.3,0-6.1,0.7V97h0.8l2.9-0.7h3.7c2,0,2,0,2,1.1c0,0.8,0,1-1.5,1.3l-3.6,0.9
	c-2,0.5-4.9,1.3-4.9,4.4c0,2,0,4.8,7.2,4.8c1.4,0,3.3,0,6.1-0.7v-3.2h-0.8c-1.2,0.3-2.3,0.6-2.8,0.7h-3.7c-2,0-2,0-2-1.1
	c0-0.7,0-0.8,0.8-1.1l2-0.5l2.3-0.6c2-0.5,4.9-1.2,4.9-4.4C483.6,95.8,483.6,93.1,476.4,93.1"/>
<path class="st1" d="M502,108.8l2.9-2.2c-1.1-1.4-1.1-1.4-1.1-3.9v-9.3h-3.9v10.9l-3.8,1c-4,0-4,0-4-4.1v-7.7h-3.9v8.3
	c0,2.9,0,7,6,7c3.1,0,5-1.5,6.1-2.3L502,108.8"/>
<path class="st1" d="M205.1,57.7v21h4.3v-5.8h3.4c5.8,0,10.3,0,10.3-7.6c0-7.6-4.5-7.6-10.3-7.6H205.1 M209.3,69.2v-7.8h5.2
	c3.8,0,4,0,4,3.9c0,3.8,0,3.9-4,3.9H209.3z"/>
<path class="st1" d="M233.9,63.4c-7.6,0-7.6,4.5-7.6,7.1v1.4c0,2.7,0,7.1,7.6,7.1h1.4c7.6,0,7.6-4.5,7.6-7.1v-1.4
	c0-2.7,0-7.1-7.6-7.1H233.9 M234.6,66.7c4.2,0,4.2,0,4.2,4.5s0,4.5-4.2,4.5s-4.2,0-4.2-4.5S230.4,66.7,234.6,66.7z"/>
<path class="st1" d="M254.6,79c1.1,0,3.8,0,6.7-0.7v-3.2h-0.8l-2.9,0.7h-1.7c-5,0-5,0-5-4.6s0-4.6,3.7-4.6c3.1,0,3.1,0,3.8,2.9
	l3.6-0.9c0-1.4,0-5.3-6.7-5.3h-1.4c-7,0-7,4.5-7,7.1v1.4C246.8,74.6,246.8,79,254.6,79"/>
<path class="st1" d="M273.4,79c1.1,0,3.8,0,6.7-0.7v-3.2h-0.8l-2.9,0.7h-1.7c-5,0-5,0-5-4.6s0-4.6,3.7-4.6c3.1,0,3.1,0,3.8,2.9
	l3.6-0.9c0-1.4,0-5.3-6.7-5.3h-1.4c-7,0-7,4.5-7,7.1v1.4C265.6,74.6,265.6,79,273.4,79"/>
<path class="st1" d="M298.6,79.1l2.9-2.2c-1.1-1.4-1.1-1.4-1.1-3.9v-9.3h-3.9v10.9l-3.8,0.9c-4,0-4,0-4-4.1v-7.7h-3.9V72
	c0,2.9,0,7,6,7c3.1,0,5-1.5,6.1-2.3L298.6,79.1"/>
<path class="st1" d="M312.4,58.4c-1.9,0-1.9,0-2.9-1.1l-1.7,1.3c1.9,2.4,2.8,2.6,5.6,2.6h0.7c2.7,0,3.7-0.2,5.5-2.6l-1.7-1.3
	c-0.9,1.1-0.9,1.1-2.9,1.1H312.4 M319.7,79.1l2.9-2.2c-1.1-1.4-1.1-1.4-1.1-3.9v-9.3h-3.9v10.9l-3.8,0.9c-3.9,0-4,0-4-4.1v-7.7h-3.9
	V72c0,2.9,0,7,6,7c3.1,0,5-1.5,6.1-2.3L319.7,79.1z"/>
<path class="st1" d="M334.3,79c1.1,0,3.8,0,6.7-0.7v-3.2h-0.8l-2.9,0.7h-1.7c-5,0-5,0-5-4.6s0-4.6,3.7-4.6c3.1,0,3.1,0,3.8,2.9
	l3.6-0.9c0-1.4,0-5.3-6.7-5.3h-1.4c-7,0-7,4.5-7,7.1v1.4C326.5,74.6,326.5,79,334.3,79"/>
<path class="st1" d="M346.1,63.7v15h3.9v-5.8h4.8c0,1.6,1.1,3.1,3.1,5.8h4.2v-1.1l-4.5-6c3.8-2.9,3.8-2.9,3.8-6.6v-1.2h-4.3V65
	c0,4.5,0,4.5-4.5,4.5H350v-5.8L346.1,63.7"/>
<path class="st1" d="M379.9,79.1l2.9-2.2c-1.1-1.4-1.1-1.4-1.1-3.9v-9.3h-3.9v10.9l-3.8,0.9c-4,0-4,0-4-4.1v-7.7H366V72
	c0,2.9,0,7,6,7c3.1,0,5-1.5,6.1-2.3L379.9,79.1"/>
<path class="st1" d="M390.5,69.9c0-3.3,0-3.3,3.7-3.3c3.7,0,3.7,0,3.7,3.3H390.5 M390.5,72.5h3.7c3.8,0,5,0,6.2-0.3l1.5-0.4v-1.5
	c0-2.5,0-7.1-7-7.1h-1.4c-7,0-7,4.6-7,7.1v1.4c0,2.7,0.1,7.1,7.8,7.1c1.2,0,3.8,0,6.6-0.7v-3.2h-0.8l-2.9,0.7h-3
	C390.5,75.8,390.5,75.8,390.5,72.5z"/>
</svg>
