<?xml version="1.0" encoding="utf-8"?>
<!-- Generator: Adobe Illustrator 21.0.0, SVG Export Plug-In . SVG Version: 6.00 Build 0)  -->
<svg version="1.1" id="Слой_1" xmlns="http://www.w3.org/2000/svg" xmlns:xlink="http://www.w3.org/1999/xlink" x="0px" y="0px"
	 viewBox="0 0 512 182.3" style="enable-background:new 0 0 512 182.3;" xml:space="preserve">
<style type="text/css">
	.st0{fill:#3F5193;}
	.st1{fill:#5393D6;}
	.st2{fill:#D57B2B;}
	.st3{fill:#55964A;}
	.st4{fill:#C2112B;}
</style>
<g>
	<path class="st0" d="M139.9,78.4h11c4.3,0,6,1.5,6,5.1c0,3.5-1.6,5-6,5h-11V78.4z M122.8,115.3h17.1v-15h18.3
		c12.1,0,16.5-7.2,16.5-16.4c0-10.7-4.5-16.8-16.6-16.8h-35.3V115.3z"/>
	<polygon class="st0" points="180.4,67.1 226.4,67.1 226.4,78.8 197.5,78.8 197.5,85.3 224.3,85.3 224.3,97 197.5,97 197.5,103.5 
		226.4,103.5 226.4,115.3 180.4,115.3 	"/>
	<path class="st0" d="M250.7,78.4h11c4.3,0,5.9,1.5,5.9,5.1c0,3.5-1.6,5-5.9,5h-11V78.4z M233.6,115.3h17.1v-15H269
		c12.1,0,16.5-7.2,16.5-16.4c0-10.7-4.5-16.8-16.6-16.8h-35.3V115.3z"/>
	<path class="st0" d="M302.1,94.8c-8.4-1.4-11.8-6.8-11.8-13.6c0-12.5,11-15.9,25.1-15.9c19.3,0,27.2,5.6,27.8,15.8h-19.9
		c0-2-1-3.2-2.6-3.9c-1.5-0.7-3.5-1-5.3-1c-5.1,0-6.9,1.4-6.9,3.4c0,1.4,0.5,2.2,2.2,2.5l20.4,3.4c8.6,1.4,14,5.9,14,14
		c0,11.7-8.6,17.3-27.9,17.3c-13.2,0-27.5-2-27.6-16.2h20.6c0.1,1.6,0.6,2.7,1.8,3.4c1.3,0.7,3.1,1,5.8,1c5.3,0,6.8-1.6,6.8-3.9
		c0-1.4-0.8-2.8-3.1-3.2L302.1,94.8z"/>
	<rect x="350.7" y="67.1" class="st0" width="17.1" height="48.2"/>
	<path class="st0" d="M431.2,96.5c-1.1,6.3-3,11.5-7.3,15c-4.2,3.5-10.7,5.5-21.2,5.5c-10.4,0-29.6-0.8-29.6-25.8
		c0-25,19.2-25.8,29.6-25.8c10.3,0,26.2,1.5,28.5,20.6h-19.3c-0.5-3.4-2.5-8.4-9.2-8.4c-7,0-11.4,3.9-11.4,13.6
		c0,9.8,4.3,13.6,10.6,13.6c5.4,0,8.6-2.5,10-8.3H431.2z"/>
	<path class="st0" d="M453.6,91.1c0-9.8,4.4-13.6,11.4-13.6c7,0,11.4,3.8,11.4,13.6c0,9.8-4.4,13.6-11.4,13.6
		C458,104.8,453.6,100.9,453.6,91.1 M435.4,91.1c0,25,19.2,25.8,29.6,25.8c10.4,0,29.6-0.8,29.6-25.8c0-25-19.2-25.8-29.6-25.8
		C454.6,65.4,435.4,66.2,435.4,91.1"/>
	<path class="st0" d="M139.9,78.4h11c4.3,0,6,1.5,6,5.1c0,3.5-1.6,5-6,5h-11V78.4z M122.8,115.3h17.1v-15h18.3
		c12.1,0,16.5-7.2,16.5-16.4c0-10.7-4.5-16.8-16.6-16.8h-35.3V115.3z"/>
	<polygon class="st0" points="180.4,67.1 226.4,67.1 226.4,78.8 197.5,78.8 197.5,85.3 224.3,85.3 224.3,97 197.5,97 197.5,103.5 
		226.4,103.5 226.4,115.3 180.4,115.3 	"/>
	<path class="st0" d="M250.7,78.4h11c4.3,0,5.9,1.5,5.9,5.1c0,3.5-1.6,5-5.9,5h-11V78.4z M233.6,115.3h17.1v-15H269
		c12.1,0,16.5-7.2,16.5-16.4c0-10.7-4.5-16.8-16.6-16.8h-35.3V115.3z"/>
	<path class="st0" d="M302.1,94.8c-8.4-1.4-11.8-6.8-11.8-13.6c0-12.5,11-15.9,25.1-15.9c19.3,0,27.2,5.6,27.8,15.8h-19.9
		c0-2-1-3.2-2.6-3.9c-1.5-0.7-3.5-1-5.3-1c-5.1,0-6.9,1.4-6.9,3.4c0,1.4,0.5,2.2,2.2,2.5l20.4,3.4c8.6,1.4,14,5.9,14,14
		c0,11.7-8.6,17.3-27.9,17.3c-13.2,0-27.5-2-27.6-16.2h20.6c0.1,1.6,0.6,2.7,1.8,3.4c1.3,0.7,3.1,1,5.8,1c5.3,0,6.8-1.6,6.8-3.9
		c0-1.4-0.8-2.8-3.1-3.2L302.1,94.8z"/>
	<rect x="350.7" y="67.1" class="st0" width="17.1" height="48.2"/>
	<path class="st0" d="M431.2,96.5c-1.1,6.3-3,11.5-7.3,15c-4.2,3.5-10.7,5.5-21.2,5.5c-10.4,0-29.6-0.8-29.6-25.8
		c0-25,19.2-25.8,29.6-25.8c10.3,0,26.2,1.5,28.5,20.6h-19.3c-0.5-3.4-2.5-8.4-9.2-8.4c-7,0-11.4,3.9-11.4,13.6
		c0,9.8,4.3,13.6,10.6,13.6c5.4,0,8.6-2.5,10-8.3H431.2z"/>
	<path class="st0" d="M453.6,91.1c0-9.8,4.4-13.6,11.4-13.6c7,0,11.4,3.8,11.4,13.6c0,9.8-4.4,13.6-11.4,13.6
		C458,104.8,453.6,100.9,453.6,91.1 M435.4,91.1c0,25,19.2,25.8,29.6,25.8c10.4,0,29.6-0.8,29.6-25.8c0-25-19.2-25.8-29.6-25.8
		C454.6,65.4,435.4,66.2,435.4,91.1"/>
</g>
<g>
	<path class="st0" d="M96.9,109.8c1.1-23.1-18.8-49.2-46-52.4l0-0.3c26.8,0,47.3,24.8,47.3,44.4c0,4.1-0.3,6.6-0.9,8.4L96.9,109.8z
		 M95.3,112.8c-1.8,2.2-4,4.4-6.6,6.5C83.8,91.4,63.4,67.1,49,60l-0.3,0.2c14.5,11.9,31.8,35.1,38.5,60.1c-3.2,2.4-6.9,4.6-11,6.3
		C62.5,111,49.7,80.9,45.6,61.8l-0.4,0.1c0.1,18.6,13.3,50.1,29.3,65.5c-3.6,1.4-7.4,2.5-11.4,3.2c-15.4-6.1-26.4-25.7-26.4-45.7
		c0-13.1,4-21.2,4.8-22.8l-0.3-0.1c-0.9,1.4-6.8,9.5-6.8,23.6c0,22.6,11.2,39.9,26,45.4c-5.1,0.6-10.4,0.4-15.9-0.8l-0.1,0.3
		c1.6,0.6,7,2.8,15.2,2.8c18.6,0,31.1-11.5,36.1-20.3L95.3,112.8z"/>
	<path class="st0" d="M57.7,49c-14.1,0-30.6,10.2-30.6,19.4c0,3.6,3.3,6.6,10.1,6.6c15.8,0,30.4-10.8,30.4-19.3
		C67.6,51.3,63.4,49,57.7,49 M63.3,55.5c0,7.1-13.6,15.8-25,15.8c-5,0-7.8-2-7.8-5.3c0-7.2,13.8-15.7,24.5-15.7
		C62,50.3,63.3,53.8,63.3,55.5"/>
	<path class="st0" d="M21.5,72.7c-0.4,0.7-2,3.8-2,7c0,5.9,5.9,11.4,16.9,11.4c21.1,0,45.4-15.5,45.4-29.9c0-6.5-6.1-10-10.4-10.7
		l-0.1,0.3c1.3,0.4,6.2,2.7,6.2,8.4c0,11.5-21.5,27.1-42.9,27.1c-8.2,0-13.3-4.1-13.3-10c0-1.9,0.4-3.1,0.5-3.4L21.5,72.7z"/>
	<path class="st0" d="M90.5,62.2c0.6,0.4,4,3.3,4,8.8c0,18.7-29.2,37-55,37c-15.4,0-22.4-7.6-22.1-14.4h0.3
		c0.6,3.5,5.6,9.8,19.1,9.8c25.8,0,54.7-19,54.7-35.6c0-2.8-0.8-4.6-1.2-5.4L90.5,62.2z"/>
	<path class="st0" d="M100.3,79.6c0.1,0.4,0.7,2.2,0.7,5c0,20.7-29.5,38.5-55.3,38.5c-13.2,0-20.1-6.4-21.6-9l0.2-0.2
		c3.7,3.2,10.9,5.6,19.3,5.6c22.7,0,56.6-17.3,56.3-39.8L100.3,79.6z"/>
	<path class="st0" d="M96.9,109.8c1.1-23.1-18.8-49.2-46-52.4l0-0.3c26.8,0,47.3,24.8,47.3,44.4c0,4.1-0.3,6.6-0.9,8.4L96.9,109.8z
		 M95.3,112.8c-1.8,2.2-4,4.4-6.6,6.5C83.8,91.4,63.4,67.1,49,60l-0.3,0.2c14.5,11.9,31.8,35.1,38.5,60.1c-3.2,2.4-6.9,4.6-11,6.3
		C62.5,111,49.7,80.9,45.6,61.8l-0.4,0.1c0.1,18.6,13.3,50.1,29.3,65.5c-3.6,1.4-7.4,2.5-11.4,3.2c-15.4-6.1-26.4-25.7-26.4-45.7
		c0-13.1,4-21.2,4.8-22.8l-0.3-0.1c-0.9,1.4-6.8,9.5-6.8,23.6c0,22.6,11.2,39.9,26,45.4c-5.1,0.6-10.4,0.4-15.9-0.8l-0.1,0.3
		c1.6,0.6,7,2.8,15.2,2.8c18.6,0,31.1-11.5,36.1-20.3L95.3,112.8z"/>
	<path class="st1" d="M57.7,49c-14.1,0-30.6,10.2-30.6,19.4c0,3.6,3.3,6.6,10.1,6.6c15.8,0,30.4-10.8,30.4-19.3
		C67.6,51.3,63.4,49,57.7,49 M63.3,55.5c0,7.1-13.6,15.8-25,15.8c-5,0-7.8-2-7.8-5.3c0-7.2,13.8-15.7,24.5-15.7
		C62,50.3,63.3,53.8,63.3,55.5"/>
	<path class="st2" d="M21.5,72.7c-0.4,0.7-2,3.8-2,7c0,5.9,5.9,11.4,16.9,11.4c21.1,0,45.4-15.5,45.4-29.9c0-6.5-6.1-10-10.4-10.7
		l-0.1,0.3c1.3,0.4,6.2,2.7,6.2,8.4c0,11.5-21.5,27.1-42.9,27.1c-8.2,0-13.3-4.1-13.3-10c0-1.9,0.4-3.1,0.5-3.4L21.5,72.7z"/>
	<path class="st3" d="M90.5,62.2c0.6,0.4,4,3.3,4,8.8c0,18.7-29.2,37-55,37c-15.4,0-22.4-7.6-22.1-14.4h0.3
		c0.6,3.5,5.6,9.8,19.1,9.8c25.8,0,54.7-19,54.7-35.6c0-2.8-0.8-4.6-1.2-5.4L90.5,62.2z"/>
	<path class="st4" d="M100.3,79.6c0.1,0.4,0.7,2.2,0.7,5c0,20.7-29.5,38.5-55.3,38.5c-13.2,0-20.1-6.4-21.6-9l0.2-0.2
		c3.7,3.2,10.9,5.6,19.3,5.6c22.7,0,56.6-17.3,56.3-39.8L100.3,79.6z"/>
</g>
</svg>
