<?xml version="1.0" encoding="utf-8"?>
<!-- Generator: Adobe Illustrator 21.0.0, SVG Export Plug-In . SVG Version: 6.00 Build 0)  -->
<svg version="1.1" id="Слой_1" xmlns="http://www.w3.org/2000/svg" xmlns:xlink="http://www.w3.org/1999/xlink" x="0px" y="0px"
	 viewBox="0 0 512 182.3" style="enable-background:new 0 0 512 182.3;" xml:space="preserve">
<style type="text/css">
	.st0{clip-path:url(#XMLID_2_);fill:url(#XMLID_3_);}
	.st1{fill:none;stroke:#000000;stroke-width:0.48;}
	.st2{fill:#595651;}
	.st3{fill:none;stroke:#000000;stroke-width:0.288;}
</style>
<g id="XMLID_76_">
	<g id="XMLID_141_">
		<defs>
			<path id="XMLID_142_" d="M191.2,92c0-41.6,33.7-75.3,75.3-75.3c41.6,0,75.3,33.7,75.3,75.3c0,41.6-33.7,75.3-75.3,75.3
				C225,167.3,191.2,133.6,191.2,92 M181.6,92c0,46.9,38.1,85,85,85c47,0,85-38.1,85-85c0-46.9-38-85-85-85
				C219.6,7,181.6,45.1,181.6,92"/>
		</defs>
		<clipPath id="XMLID_2_">
			<use xlink:href="#XMLID_142_"  style="overflow:visible;"/>
		</clipPath>
		
			<linearGradient id="XMLID_3_" gradientUnits="userSpaceOnUse" x1="-47.3885" y1="677.1497" x2="-45.2337" y2="677.1497" gradientTransform="matrix(-55.7868 -55.7868 -55.7868 55.7868 35459.0352 -40267.5586)">
			<stop  offset="0" style="stop-color:#41A6E4"/>
			<stop  offset="0.4961" style="stop-color:#F1F8F6"/>
			<stop  offset="1" style="stop-color:#82BB5D"/>
		</linearGradient>
		<polygon id="XMLID_74_" class="st0" points="266.6,262 96.6,92 266.6,-78 436.6,92 		"/>
	</g>
	<g id="XMLID_137_">
		<path id="XMLID_138_" class="st1" d="M191.2,92c0-41.6,33.7-75.3,75.3-75.3c41.6,0,75.3,33.7,75.3,75.3
			c0,41.6-33.7,75.3-75.3,75.3C225,167.3,191.2,133.6,191.2,92z M351.6,92c0,46.9-38,85-85,85c-46.9,0-85-38.1-85-85
			c0-46.9,38.1-85,85-85C313.5,7,351.6,45.1,351.6,92z"/>
	</g>
	<g id="XMLID_77_">
		<polygon id="XMLID_69_" class="st2" points="274.6,80.4 281,80.4 269.5,95.2 269.5,103.1 264,103.1 264,95.2 252.5,80.4 
			258.9,80.4 266.7,90.9 		"/>
		<polygon id="XMLID_68_" class="st3" points="274.6,80.4 281,80.4 269.5,95.2 269.5,103.1 264,103.1 264,95.2 252.5,80.4 
			258.9,80.4 266.7,90.9 		"/>
		<polygon id="XMLID_67_" class="st2" points="305.2,80.4 305.2,85 289.9,85 289.9,89.4 304.6,89.4 304.6,93.8 289.9,93.8 
			289.9,98.5 305.2,98.5 305.2,103.1 284.6,103.1 284.6,80.4 		"/>
		<polygon id="XMLID_66_" class="st3" points="305.2,80.4 305.2,85 289.9,85 289.9,89.4 304.6,89.4 304.6,93.8 289.9,93.8 
			289.9,98.5 305.2,98.5 305.2,103.1 284.6,103.1 284.6,80.4 		"/>
		<polygon id="XMLID_65_" class="st2" points="277,108.9 277,113.5 261.7,113.5 261.7,117.9 276.4,117.9 276.4,122.3 261.7,122.3 
			261.7,127 277,127 277,131.6 256.4,131.6 256.4,108.9 		"/>
		<polygon id="XMLID_64_" class="st3" points="277,108.9 277,113.5 261.7,113.5 261.7,117.9 276.4,117.9 276.4,122.3 261.7,122.3 
			261.7,127 277,127 277,131.6 256.4,131.6 256.4,108.9 		"/>
		<path id="XMLID_116_" class="st2" d="M322.9,94.5h-4.3v8.7h-5.3V80.4h13.8c3.9,0,7,3.2,7,7.1c0,3.2-2.1,5.9-5.1,6.8l6.7,9h-6.4
			L322.9,94.5z M326.6,85h-8v4.9h8c1.4,0,2.5-1.2,2.5-2.4C329.1,86.2,328,85,326.6,85"/>
		<path id="XMLID_113_" class="st3" d="M322.9,94.5h-4.3v8.7h-5.3V80.4h13.8c3.9,0,7,3.2,7,7.1c0,3.2-2.1,5.9-5.1,6.8l6.7,9h-6.4
			L322.9,94.5z M326.6,85h-8v4.9h8c1.4,0,2.5-1.2,2.5-2.4C329.1,86.2,328,85,326.6,85z"/>
		<path id="XMLID_109_" class="st2" d="M273.6,145.3c0-1.2-1-2.5-2.5-2.5h-9.4v5h9.4C272.5,147.8,273.6,146.5,273.6,145.3
			 M256.4,160.9v-22.8h15.2c3.9,0,7,3.2,7,7.1c0,2.9-1.8,5.5-4.4,6.5l6.8,9.2h-6.3l-6.5-8.7h-6.5v8.7H256.4z"/>
		<path id="XMLID_106_" class="st3" d="M273.6,145.3c0-1.2-1-2.5-2.5-2.5h-9.4v5h9.4C272.5,147.8,273.6,146.5,273.6,145.3z
			 M256.4,160.9v-22.8h15.2c3.9,0,7,3.2,7,7.1c0,2.9-1.8,5.5-4.4,6.5l6.8,9.2h-6.3l-6.5-8.7h-6.5v8.7H256.4z"/>
		<path id="XMLID_103_" class="st2" d="M254.1,103.1h-5.7l-1.9-3.9h-12.9l-1.9,3.9h-5.7l11.4-22.8h5.3L254.1,103.1z M240.1,85.8
			l-4.5,9h8.9L240.1,85.8z"/>
		<path id="XMLID_100_" class="st3" d="M254.1,103.1h-5.7l-1.9-3.9h-12.9l-1.9,3.9h-5.7l11.4-22.8h5.3L254.1,103.1z M240.1,85.8
			l-4.5,9h8.9L240.1,85.8z"/>
		<path id="XMLID_97_" class="st2" d="M280.8,74.1H275l-1.9-3.9h-12.9l-1.9,3.9h-5.7l11.4-22.8h5.3L280.8,74.1z M266.7,56.8l-4.5,9
			h8.9L266.7,56.8z"/>
		<path id="XMLID_94_" class="st3" d="M280.8,74.1H275l-1.9-3.9h-12.9l-1.9,3.9h-5.7l11.4-22.8h5.3L280.8,74.1z M266.7,56.8l-4.5,9
			h8.9L266.7,56.8z"/>
		<path id="XMLID_90_" class="st2" d="M204.2,89.4h9.6c1.1,0,2.2-1,2.2-2.2c0-1.2-1-2.2-2.2-2.2h-9.6V89.4z M204.2,98.6h10.1
			c1.4,0,2.6-1.2,2.6-2.5c0-1.3-1.2-2.6-2.6-2.6h-10.1V98.6z M219.6,91.3c1.4,1.2,2.4,2.8,2.4,5c0,3.8-3,6.9-7.4,6.9h-15.8V80.4
			l15.6,0c3.7,0,6.6,3,6.6,6.6C221.1,88.6,220.5,90.1,219.6,91.3"/>
		<path id="XMLID_86_" class="st3" d="M204.2,89.4h9.6c1.1,0,2.2-1,2.2-2.2c0-1.2-1-2.2-2.2-2.2h-9.6V89.4z M204.2,98.6h10.1
			c1.4,0,2.6-1.2,2.6-2.5c0-1.3-1.2-2.6-2.6-2.6h-10.1V98.6z M219.6,91.3c1.4,1.2,2.4,2.8,2.4,5c0,3.8-3,6.9-7.4,6.9h-15.8V80.4
			l15.6,0c3.7,0,6.6,3,6.6,6.6C221.1,88.6,220.5,90.1,219.6,91.3z"/>
		<path id="XMLID_82_" class="st2" d="M261.7,32.6h9.6c1.1,0,2.2-1,2.2-2.2c0-1.2-1-2.2-2.2-2.2h-9.6V32.6z M261.7,41.8h10
			c1.4,0,2.6-1.2,2.6-2.5c0-1.3-1.2-2.6-2.6-2.6h-10V41.8z M277.1,34.4c1.4,1.3,2.4,2.8,2.4,5c0,3.8-3,6.9-7.4,6.9h-15.8V23.5
			l15.6,0c3.7,0,6.6,3,6.6,6.6C278.6,31.8,278.1,33.3,277.1,34.4"/>
		<path id="XMLID_78_" class="st3" d="M261.7,32.6h9.6c1.1,0,2.2-1,2.2-2.2c0-1.2-1-2.2-2.2-2.2h-9.6V32.6z M261.7,41.8h10
			c1.4,0,2.6-1.2,2.6-2.5c0-1.3-1.2-2.6-2.6-2.6h-10V41.8z M277.1,34.4c1.4,1.3,2.4,2.8,2.4,5c0,3.8-3,6.9-7.4,6.9h-15.8V23.5
			l15.6,0c3.7,0,6.6,3,6.6,6.6C278.6,31.8,278.1,33.3,277.1,34.4z"/>
	</g>
</g>
</svg>
