<?xml version="1.0" encoding="utf-8"?>
<!-- Generator: Adobe Illustrator 21.0.0, SVG Export Plug-In . SVG Version: 6.00 Build 0)  -->
<svg version="1.1" id="Слой_1" xmlns="http://www.w3.org/2000/svg" xmlns:xlink="http://www.w3.org/1999/xlink" x="0px" y="0px"
	 viewBox="0 0 512 182.3" style="enable-background:new 0 0 512 182.3;" xml:space="preserve">
<style type="text/css">
	.st0{fill:#5B858E;}
</style>
<path class="st0" d="M176.8,97.4c-2.4,4.5-3.6,9.4-5.4,14.1c-1.6,4.1-3,8.3-4.5,12.4c-1.8,4.9-4.6,6.9-9.8,6.9
	c-7.7,0-15.5,0-23.2,0.1c-1.9,0-2.2-0.7-2-2.3c1.6-17.5,3.2-35,4.8-52.5c0.6-7.2,1.3-14.4,1.9-21.6c0.2-2,0.8-2.8,3-2.7
	c9.5,0.2,19,0.2,28.5,0c2.5,0,2.6,0.9,2.4,2.9c-1,9.1-2,18.2-2.9,27.3c-0.8,3.1-0.8,6.3-1,9.6c0.8-1.5,1.5-2.9,1.5-4.6
	c0.7-3.7,2.6-7.1,3.6-10.7c1.6-5.6,3.6-11.1,5.4-16.6c1.8-5.6,4.7-7.7,10.5-7.7c7.7,0,15.3,0.1,23-0.1c2.1,0,2.4,0.5,2.2,2.5
	c-1.9,20.5-3.7,41-5.5,61.5c-0.4,4.4-0.8,8.8-1.1,13.2c-0.1,1.5-0.5,2-2,2c-10-0.1-20-0.1-30,0c-1.9,0-1.9-0.7-1.8-2.2
	c1-9.7,1.9-19.4,2.7-29.1C176.9,98.8,176.8,98.1,176.8,97.4c0-0.1,0.1-0.2,0.2-0.3c-0.1,0-0.1,0-0.2,0
	C176.9,97.2,176.8,97.3,176.8,97.4z"/>
<path class="st0" d="M261.2,51.8c11.8,0,23.5,0,35.3,0c2,0,3,0.1,2.6,2.7c-0.7,4.5-0.9,9.1-1.2,13.7c-0.1,1.9-0.8,2.3-2.6,2.3
	c-12.5-0.1-25,0-37.5-0.1c-1.9,0-2.5,0.5-2.7,2.4c-0.5,5.6-0.6,5.5,5,5.5c8.3,0,16.7,0,25,0c7.9,0,11.6,4.1,10.9,12
	c-0.9,10.2-1.8,20.4-2.7,30.6c-0.6,6.8-4,9.9-10.9,9.9c-21.2,0-42.3,0-63.5,0.1c-2.1,0-2.6-0.5-2.4-2.6c1.9-20.3,3.6-40.6,5.4-61
	c0.4-4.3,0.8-8.6,1.1-12.9c0.1-1.9,0.7-2.6,2.8-2.6C237.6,51.8,249.4,51.8,261.2,51.8z M255.8,114.3c0.4,0,0.8-0.1,1.2,0
	c2.4,0.4,3.3-0.4,3.4-3c0.1-4.5,0.7-9,1.2-13.4c0.3-3.1,0.4-3.1-2.6-3.1c-1.3,0-2.7,0.1-4,0c-1.4-0.1-1.9,0.4-2,1.8
	c-0.3,4.5-0.8,9-1.1,13.4C251.6,114.3,251.6,114.3,255.8,114.3z"/>
<path class="st0" d="M335.6,130.8c-10.8,0-21.7,0-32.5,0c-1.7,0-2.3-0.3-2-2.2c0.6-4.6,1-9.3,1.2-13.9c0.1-1.9,0.7-2.5,2.6-2.5
	c12.4,0.1,24.8,0,37.3,0.1c2,0,2.7-0.5,2.8-2.6c0.4-5.4,0.5-5.4-5-5.4c-8.4,0-16.8,0-25.3,0c-7.1,0-11-3.9-10.4-11
	c1-13.1,2.2-26.2,3.3-39.3c0.1-1.8,0.7-2.3,2.6-2.3c9.7,0.1,19.3,0.1,29,0c2.1,0,2.4,0.7,2.3,2.6c-1,10.4-1.8,20.7-2.8,31.1
	c-0.2,1.8,0,2.7,2.1,2.4c0.7-0.1,1.3,0,2,0c4.4,0,4.3,0,4.7-4.3c0.8-10,1.7-19.9,2.5-29.9c0.1-1.3,0.5-1.9,1.9-1.9
	c10.1,0.1,20.2,0.1,30.3,0c1.4,0,1.9,0.4,1.7,1.9c-1.8,19.2-3.5,38.3-5.2,57.5c-0.3,3.7-0.5,7.5-1.1,11.2c-0.8,5.5-4.3,8.5-9.9,8.5
	C356.9,130.8,346.3,130.8,335.6,130.8z"/>
<path class="st0" d="M85.5,130.8c-9.1,0-18.2,0-27.3,0c-7,0-10.9-4.6-10.2-11.7c1.5-16,2.8-32,4.2-48c0.3-3.4,0.5-6.8,0.9-10.2
	c0.6-5.5,4.4-9,10.1-9.1c7-0.1,14,0,21,0c11.6,0,23.2,0,34.8,0c6.9,0,10.8,4.6,10.1,11.5c-0.7,6.7-1.3,13.4-1.7,20.2
	c-0.1,1.8-0.5,2.6-2.6,2.5c-9.6-0.1-19.2-0.2-28.8,0c-2.6,0-2.8-0.9-2.5-3c0.4-3.6,0.6-7.1,1-10.7c0.2-1.6-0.4-2.1-1.9-2
	c-2,0.1-4.4-0.5-5.9,0.3c-1.7,1-0.8,3.7-1,5.6c-1.1,11.4-2,22.9-3.1,34.3c-0.1,1.2,0.2,1.6,1.4,1.7c6.8,0.5,6.8,0.5,7.5-6.1
	c0.3-2.9,0.7-5.8,0.8-8.7c0.1-1.5,0.5-2.2,2.2-2.2c10,0.1,20,0,30,0c1.1,0,1.9-0.1,1.7,1.6c-0.8,8.1-1.4,16.3-2.2,24.4
	c-0.6,6.4-4.2,9.5-10.6,9.6C104,130.9,94.8,130.8,85.5,130.8z"/>
<path class="st0" d="M439,106.3c-5.2,0-10.3,0.1-15.5,0c-1.7,0-2.3,0.5-2.4,2.2c-0.5,6.6-1.2,13.1-1.7,19.7c-0.1,2-0.6,2.7-2.7,2.7
	c-9.7-0.1-19.3-0.1-29,0c-1.9,0-2.4-0.4-2.2-2.4c1.5-16.3,2.9-32.5,4.3-48.8c0.8-8.6,1.6-17.2,2.3-25.9c0.1-1.7,0.8-2.1,2.4-2.1
	c20.8,0.1,41.7,0,62.5,0.1c7.2,0,10.9,3.9,10.3,11c-0.9,11.5-1.9,22.9-3,34.3c-0.6,6.1-4.2,9.2-10.3,9.3c-2.5,0-5,0-7.5,0
	C444,106.3,441.5,106.3,439,106.3z M426.9,89.9c0.6,0,1.2-0.1,1.7,0c2.2,0.4,2.8-0.5,2.9-2.7c0.1-3.6,0.6-7.1,0.9-10.7
	c0.5-6.5,0.5-6.4-6.1-6.2c-1.4,0-1.8,0.5-1.9,1.8c-0.3,4.5-0.8,9.1-1.2,13.6C422.7,89.9,422.6,89.9,426.9,89.9z"/>
</svg>
