<?xml version="1.0" encoding="utf-8"?>
<!-- Generator: Adobe Illustrator 21.0.0, SVG Export Plug-In . SVG Version: 6.00 Build 0)  -->
<svg version="1.1" id="Слой_1" xmlns="http://www.w3.org/2000/svg" xmlns:xlink="http://www.w3.org/1999/xlink" x="0px" y="0px"
	 viewBox="0 0 512 182.3" style="enable-background:new 0 0 512 182.3;" xml:space="preserve">
<style type="text/css">
	.st0{fill:#4F558D;}
	.st1{fill:#B9A16B;}
	.st2{fill:#A8B054;}
</style>
<g>
	<path id="path27" class="st0" d="M355,174h5.9v-40.8H355V174z"/>
	<path id="path31" class="st0" d="M290.2,138.6l-2.9,0.3l-3,1c-13.1,5.9-11.1,25.8,3,28.8l2.9,0.3l3-0.3
		c14.7-2.9,15.6-24.1,2.9-28.8l-2.9-1L290.2,138.6z M290.2,133h2.5l2.1,0.3c23,5.9,21.1,38.1-2.5,41h-4.1
		c-23.6-3.5-25.4-35.1-2.1-41l2.1-0.3H290.2"/>
	<path id="path35" class="st0" d="M165,138.1h-1.5l-1.1,0.3l-1.2,0.5l-1.2,1l-0.5,0.8l-0.5,1.2l-0.3,1.1v1.5l0.3,0.8l0.3,1.2l0.8,1
		l1,0.5l2.6,1.1l8.2,3l1.8,0.8l1.2,1l1.5,1.8l1.1,1.8c5.7,16.1-17.7,23.7-25.1,9.7l-0.8-2.5l-0.3-2.6h5.6l0.3,1.8l0.6,1.5l1,1.1
		l0.8,1.2l1.2,0.5l1.1,0.6l1.5,0.4h3l1.1-0.4l1.5-0.6l1.2-0.5c3-3.6,3.5-7.7-1-10.3l-2.3-1.2l-3.3-0.8l-3.6-1.2l-2.6-1.5l-2.1-1.5
		l-1.5-1.6l-0.8-2.5l-0.4-2.6l0.4-2.3l0.6-2.3l1.2-2.1l1.4-1.5l1.8-1.5c5.2-3.5,12.7-2.4,16.9,2.6l1.5,1.8l0.8,2.3l0.3,2.5h-5.9
		l-0.3-1.5c-0.5-2.3-2.7-4-4.9-4.4H165"/>
	<path id="path39" class="st0" d="M325.1,133.3h19.2v5.6h-17.4v13h17.4v5.6h-17.4V174H321v-36.6l0.3-1.8l1-1.1l1.2-1L325.1,133.3"/>
	<path id="path43" class="st0" d="M234.1,142.8V174h-5.9v-36.9l0.3-1.8l1-1.1l1.1-1l1.8-0.3h1l1.1,0.6l0.5,0.7l1,0.8l17.7,29.5
		l0.3-31.3h5.9v36.9l-0.3,1.8l-0.8,1.2l-1.5,0.8l-1.5,0.3h-1.1l-1-0.3l-0.8-0.6l-0.7-1L234.1,142.8"/>
	<path id="path47" class="st0" d="M201.3,141l-5.9,16.2h12.1L201.3,141z M193.4,162.5l-4.1,11.5h-6.3l14.5-38.4l0.6-1.1l1-1l1.1-0.3
		l1.2-0.3l1.2,0.3l1.1,0.3l1,1l0.5,1.1l14.4,38.4h-6.2l-4.1-11.5H193.4"/>
	<path id="path51" class="st1" d="M306.6,44.2l-3.3-4.1l-1.5-1.8l-1.8-1.5c-7.7-6.6-18-4.9-26.9-2.1l-7,2.1l-3.6,1
		c-9.7,2-19.8,0.9-23.7-9.5l-0.6-2.7L238,23l0.5-2.6l1-2.7c3.7-9.2,17.6-11.5,26.2-9.1l4.3,0.8l3.8,1.2c11.8,3.9,21.1,12,27.7,22.4
		l2.1,3.6L306.6,44.2"/>
	<path id="path55" class="st0" d="M307.1,45.8l0.5,3.2l1,3.6c2.2,17.7-4.5,36.3-18.7,47.5l-4.1,3.3l-4.1,2.3
		c-15.6,8.8-35.8,8.6-51.2-0.5l-3.6-2.3l-3.6-2.7l2.7,1l2.9,0.6c14,2.2,26-1.8,34.3-13.6l3.3-5.4l2.6-5.2
		c6.5-14.6,11.3-30.8,29.9-32.2h3.8L307.1,45.8"/>
	<path id="path59" class="st2" d="M237.7,95.8l-2.7,1.2c-21.5,5.4-32-23.9-30.3-40.5l0.3-2.9l2.1,2.6l2.3,2.3
		c9.7,10.1,18.5,9.4,29.9,15.6l1.1,1.2l1,1.1c4.1,5.2,3.2,12.3-1,17.2l-1.5,1L237.7,95.8"/>
</g>
</svg>
