<?xml version="1.0" encoding="utf-8"?>
<!-- Generator: Adobe Illustrator 21.0.0, SVG Export Plug-In . SVG Version: 6.00 Build 0)  -->
<svg version="1.1" id="Слой_1" xmlns="http://www.w3.org/2000/svg" xmlns:xlink="http://www.w3.org/1999/xlink" x="0px" y="0px"
	 viewBox="0 0 512 182.3" style="enable-background:new 0 0 512 182.3;" xml:space="preserve">
<style type="text/css">
	.st0{clip-path:url(#SVGID_2_);fill:#50965F;}
	.st1{clip-path:url(#SVGID_4_);fill:#50965F;}
	.st2{clip-path:url(#SVGID_6_);fill:#50965F;}
	.st3{clip-path:url(#SVGID_8_);fill:#50965F;}
	.st4{clip-path:url(#SVGID_10_);fill:#50965F;}
	.st5{clip-path:url(#SVGID_12_);fill:#50965F;}
	.st6{clip-path:url(#SVGID_14_);fill:#50965F;}
	.st7{clip-path:url(#SVGID_16_);fill:#50965F;}
	.st8{clip-path:url(#SVGID_18_);fill:#50965F;}
</style>
<g>
	<g>
		<defs>
			<rect id="SVGID_1_" x="9.6" y="35.7" width="492.8" height="110.9"/>
		</defs>
		<clipPath id="SVGID_2_">
			<use xlink:href="#SVGID_1_"  style="overflow:visible;"/>
		</clipPath>
		<path class="st0" d="M166.4,91.1c0-16.3,9.5-26.9,26.5-26.9c7.6,0,12.2,1.5,15.4,3l-2.3,6c-4.1-1.3-7.1-2.3-13-2.3
			c-10.4-0.1-18.6,5.6-18.6,19.5c0,14.1,8.5,20.3,19.9,20.3c4.9,0,8.6-0.7,12.1-1.8l1.8,6.1c-3.9,1.5-8,2.6-15.2,2.6
			C175.5,117.5,166.4,107,166.4,91.1"/>
	</g>
	<g>
		<defs>
			<rect id="SVGID_3_" x="9.6" y="35.7" width="492.8" height="110.9"/>
		</defs>
		<clipPath id="SVGID_4_">
			<use xlink:href="#SVGID_3_"  style="overflow:visible;"/>
		</clipPath>
		<path class="st1" d="M213.3,94.3c0-8.2,1.5-21.1,6.1-25.4c4-3.8,14.8-6.4,27.3-8.7l1.2,6.9c-11.1,1.9-21,3.7-23.4,6
			c-2.1,2-3.1,6.7-3.5,10.2c3.4-1.8,8-3.6,13.6-3.6c9.6,0,15.7,4.8,15.7,16.9c0,14.3-8.3,20.6-19.3,20.6
			C220.1,117.3,213.3,110.4,213.3,94.3 M242.7,96.9c0-6.4-2.7-11.3-10-11.3c-4.6,0-8.3,1.6-11.9,3.4c-0.1,1.3-0.1,3.2-0.1,4.5
			c0,11.9,3.6,17.5,10.9,17.5C240.3,111.1,242.7,103.8,242.7,96.9"/>
	</g>
	<g>
		<defs>
			<rect id="SVGID_5_" x="9.6" y="35.7" width="492.8" height="110.9"/>
		</defs>
		<clipPath id="SVGID_6_">
			<use xlink:href="#SVGID_5_"  style="overflow:visible;"/>
		</clipPath>
		<path class="st2" d="M256.7,97.4c0-15.8,8.1-21.7,18.1-21.7c11.2,0,15.9,7.1,15.9,20.1v2.7h-26.3c0.1,10.5,6.1,12.7,13.1,12.7
			c3.8,0,7-0.6,11-1.8l1.3,5.9c-3.5,1.3-8.3,2.2-13.5,2.2C264.3,117.5,256.7,112.8,256.7,97.4 M282.7,93.1c0-7.1-2.6-11.7-8.4-11.7
			c-5.3,0-9.2,3.9-9.7,11.7H282.7z"/>
	</g>
	<g>
		<defs>
			<rect id="SVGID_7_" x="9.6" y="35.7" width="492.8" height="110.9"/>
		</defs>
		<clipPath id="SVGID_8_">
			<use xlink:href="#SVGID_7_"  style="overflow:visible;"/>
		</clipPath>
		<path class="st3" d="M298.3,76.7h7.6v3.1c3.4-2.4,6.6-4.1,11.5-4.1c9.4,0,15.9,6.6,15.9,19.9c0,16.3-9.7,21.8-20.4,21.8
			c-2.5,0-5.2-0.4-7-0.6v15.9h-7.6V76.7z M325.6,96c0-7.2-2.6-13.8-10.2-13.8c-4.2,0-7.3,1.9-9.4,3v25.3c1,0.1,4.1,0.7,6.8,0.7
			C321.9,111.3,325.6,104.9,325.6,96"/>
	</g>
	<g>
		<defs>
			<rect id="SVGID_9_" x="9.6" y="35.7" width="492.8" height="110.9"/>
		</defs>
		<clipPath id="SVGID_10_">
			<use xlink:href="#SVGID_9_"  style="overflow:visible;"/>
		</clipPath>
		<path class="st4" d="M339.9,94.3c0-8.2,1.5-21.1,6.1-25.4c4-3.8,14.8-6.4,27.3-8.7l1.2,6.9c-11.1,1.9-21,3.7-23.4,6
			c-2.1,2-3.1,6.7-3.5,10.2c3.4-1.8,8-3.6,13.6-3.6c9.6,0,15.7,4.8,15.7,16.9c0,14.3-8.3,20.6-19.3,20.6
			C346.7,117.3,339.9,110.4,339.9,94.3 M369.3,96.9c0-6.4-2.7-11.3-10-11.3c-4.6,0-8.3,1.6-11.9,3.4c-0.1,1.3-0.1,3.2-0.1,4.5
			c0,11.9,3.6,17.5,10.9,17.5C366.9,111.1,369.3,103.8,369.3,96.9"/>
	</g>
	<g>
		<defs>
			<rect id="SVGID_11_" x="9.6" y="35.7" width="492.8" height="110.9"/>
		</defs>
		<clipPath id="SVGID_12_">
			<use xlink:href="#SVGID_11_"  style="overflow:visible;"/>
		</clipPath>
		<path class="st5" d="M381.9,105.9c0-10.1,8.9-12.2,15.9-12.2l8.7-0.1v-4.3c0-5.5-2.8-7-8.6-7c-4.2,0-7.8,0.7-11.2,1.9l-1.6-5.8
			c3.7-1.5,8.2-2.7,14.1-2.7c9.6,0,14.9,3.4,14.9,11.5V108c0,2.5,2.1,3,4.2,3.1l-0.6,5.9c-0.5,0.1-1,0.1-1.5,0.1
			c-4.1,0-8.1-1.2-8.9-4.8c-2.5,1.9-6.6,5.1-13,5.1C386.8,117.3,381.9,113.3,381.9,105.9 M406.5,107.6v-9.2l-8.5,0.4
			c-5.5,0.1-8.6,2.5-8.6,6.6c0,4,2.9,5.9,6.8,5.9C399.7,111.2,403.6,109.5,406.5,107.6"/>
	</g>
	<g>
		<defs>
			<rect id="SVGID_13_" x="9.6" y="35.7" width="492.8" height="110.9"/>
		</defs>
		<clipPath id="SVGID_14_">
			<use xlink:href="#SVGID_13_"  style="overflow:visible;"/>
		</clipPath>
		<polygon class="st6" points="424.7,76.7 432.3,76.7 432.3,93.6 451.2,93.6 451.2,76.7 458.8,76.7 458.8,116.6 451.2,116.6 
			451.2,99.7 432.3,99.7 432.3,116.6 424.7,116.6 		"/>
	</g>
	<g>
		<defs>
			<rect id="SVGID_15_" x="9.6" y="35.7" width="492.8" height="110.9"/>
		</defs>
		<clipPath id="SVGID_16_">
			<use xlink:href="#SVGID_15_"  style="overflow:visible;"/>
		</clipPath>
		<path class="st7" d="M468.3,76.7h7.7v40h-7.7V76.7z M487.6,109.8l-11.4-13.6l15.9-19.5h8.6l-16.3,18.9l7.9,8.8
			c3.5,4,6.7,6.4,10,7.2l-1.3,5.7C497.3,117.1,492.9,116.2,487.6,109.8"/>
	</g>
	<g>
		<defs>
			<rect id="SVGID_17_" x="9.6" y="35.7" width="492.8" height="110.9"/>
		</defs>
		<clipPath id="SVGID_18_">
			<use xlink:href="#SVGID_17_"  style="overflow:visible;"/>
		</clipPath>
		<path class="st8" d="M125,88.9c0,31.9-25.8,57.7-57.7,57.7c-31.9,0-57.7-25.8-57.7-57.7c0-1.3,0.1-2.6,0.1-3.9l34.9,20.1l74-42.6
			C122.7,70.5,125,79.4,125,88.9 M44.7,90.6L12.1,71.9c-0.6,2.1-1.2,4.2-1.6,6.4l34.1,19.6l70.8-40.7c-1.2-1.8-2.4-3.5-3.8-5.1
			L44.7,90.6z M107.3,47.3c-1.6-1.5-3.3-3-5.1-4.3L44.7,76.1L17.2,60.3c-1,1.8-2,3.7-2.8,5.6l30.3,17.4L107.3,47.3z M44.7,68.9
			l51.8-29.8c-2.2-1.3-4.4-2.4-6.7-3.4l-45,25.9l-20-11.5c-1.4,1.6-2.8,3.2-4,4.9L44.7,68.9z"/>
	</g>
</g>
</svg>
