<?xml version="1.0" encoding="utf-8"?>
<!-- Generator: Adobe Illustrator 21.0.0, SVG Export Plug-In . SVG Version: 6.00 Build 0)  -->
<svg version="1.1" id="Слой_1" xmlns="http://www.w3.org/2000/svg" xmlns:xlink="http://www.w3.org/1999/xlink" x="0px" y="0px"
	 viewBox="0 0 512 182.3" style="enable-background:new 0 0 512 182.3;" xml:space="preserve">
<style type="text/css">
	.st0{fill:#4C6B9E;}
</style>
<g>
	<path class="st0" d="M138.2,70.6h18.3l0.8,6c1.4-4.8,10.6-8.2,16.3-8.2c13,0,18.3,8,18.3,22.1v30.3h-20.3V93.7c0-5.4-1-9.4-6.4-9.4
		c-5,0-7.6,5.4-7.6,9.2v27.3h-19.3L138.2,70.6L138.2,70.6z M20.1,121v-71H54c20.3,0,29.5,9.8,29.5,24.1c0,15.3-8.4,25.7-29.5,25.7
		H42.5V121L20.1,121L20.1,121L20.1,121z M51.6,82.4c5.4,0,11.2-1.2,11.2-7.4c0-6.4-6.2-7.8-11.2-7.8h-9v15.2H51.6z M361.3,70.6h18.5
		l0.6,6c1.6-4.8,10.8-8.2,16.5-8.2c12.8,0,18.3,8,18.3,22.1V121h-20.3V93.7c0-5.4-1.2-9.4-6.6-9.4c-4.8,0-7.4,5.4-7.4,9.2V121h-19.5
		L361.3,70.6L361.3,70.6L361.3,70.6z M268.2,102.9c0,2,1,5,2.2,6c1.4,1,3.2,2,5.4,2c3.6,0,6.4-1,6.4-4.4c0.2-8.4-30.5-1-30.5-21.1
		c0-14,10.8-17.3,22.1-17.3s26.7,2.2,26.1,17.5h-17.1c0-1.4-0.6-2.4-1.4-3.6c-1.2-1.4-2.6-2-5.2-2.2c-3.4-0.2-6.6,0.4-6.6,3
		c0.2,7.8,31.7,2.6,31.7,21.1c0,12.8-9,18.7-26.5,18.7c-11-0.2-24.9-5.8-24.9-19.7L268.2,102.9L268.2,102.9L268.2,102.9z
		 M475.9,90.1c0-1.2,0-2.8-1.6-4.8c-0.8-1-2.6-3.2-5.4-3.2c-7.6,0-9.6,7.4-9.6,13.4c0,7,3.2,12.8,9.2,12.8c5.2,0,7.8-4.8,7.8-8.8
		h17.7c0.4,10.4-6.8,22.9-26.3,22.9c-15.9,0-27.1-11-27.1-27.1c0-19.5,14.4-26.9,26.9-26.9c16.9,0,26.5,10.2,26.3,21.7L475.9,90.1
		L475.9,90.1L475.9,90.1z M116.8,121l-2-4.2c-3.8,3.2-7.8,5-14.2,5c-6.2-0.2-18.5-1-18.5-14.4c0-22.1,32.9-12,32.9-22.9
		c0-3.6-4-3.4-6.2-3.4c-4,0-6.6,0.8-7.2,6.8H84.7c0-10.4,3.2-19.3,25.3-19.3c21.5,0,23.7,11.2,23.7,22.3v22.9c0,3,0.2,4.4,2.2,6.6
		v0.4L116.8,121z M115.2,97.9c-6.8,3.2-15.4,3-15.6,8c0,3.2,1.8,4.8,5.8,4.8C111.9,110.7,115.6,103.9,115.2,97.9z M229.9,121l-2-4.2
		c-3.8,3.2-8,5-14.2,5c-6.4-0.2-18.7-1-18.7-14.4c0-22.1,32.9-12,33.1-22.9c0-3.6-4.2-3.4-6.2-3.4c-4.2,0-6.6,0.8-7.2,6.8h-16.9
		c0-10.4,3-19.3,25.3-19.3c21.3,0,23.5,11.2,23.5,22.3v22.9c0,3,0.2,4.4,2.2,6.6v0.4L229.9,121L229.9,121z M228.3,97.9
		c-6.8,3.2-15.6,3-15.6,8c0,3.2,1.6,4.8,5.8,4.8C224.9,110.7,228.7,103.9,228.3,97.9z M437.3,121V70.6h-18.7V121H437.3z M418.7,64.2
		h18.7V49.7h-18.7V64.2z M331.2,68.8c16.7,0,26.9,11.6,26.9,26.9c0,15.5-10.2,26.9-26.9,26.9c-16.6,0-27.1-11.4-27.1-26.9
		C304.1,80.4,314.6,68.8,331.2,68.8L331.2,68.8z M322.4,95.7c0,6.2,2,13.8,8.8,14c6.8,0,8.6-7.8,8.6-14c0-6-1.8-13.8-8.6-13.8
		C324.4,81.8,322.6,89.7,322.4,95.7z"/>
</g>
</svg>
