<?xml version="1.0" encoding="utf-8"?>
<!-- Generator: Adobe Illustrator 21.0.0, SVG Export Plug-In . SVG Version: 6.00 Build 0)  -->
<svg version="1.1" id="Слой_1" xmlns="http://www.w3.org/2000/svg" xmlns:xlink="http://www.w3.org/1999/xlink" x="0px" y="0px"
	 viewBox="0 0 512 182.3" style="enable-background:new 0 0 512 182.3;" xml:space="preserve">
<style type="text/css">
	.st0{fill:url(#SVGID_1_);}
	.st1{fill:url(#SVGID_2_);}
	.st2{fill:url(#SVGID_3_);}
	.st3{fill:url(#SVGID_4_);}
	.st4{fill:url(#SVGID_5_);}
	.st5{fill:url(#SVGID_6_);}
	.st6{fill:url(#SVGID_7_);}
	.st7{fill:#1A1A1A;}
</style>
<g>
	
		<radialGradient id="SVGID_1_" cx="943.2703" cy="414.7333" r="60.8787" gradientTransform="matrix(0.3101 3.000000e-04 -2.000000e-04 0.311 -36.1632 -62.772)" gradientUnits="userSpaceOnUse">
		<stop  offset="0" style="stop-color:#6C95CF"/>
		<stop  offset="1" style="stop-color:#32396A"/>
	</radialGradient>
	<path class="st0" d="M270.5,83c-5,5.5-13.5,5.9-18.9,0.9c-5.5-5-5.9-13.5-1-19c5-5.5,13.5-5.9,19-0.9C275,69,275.5,77.5,270.5,83z"
		/>
	
		<linearGradient id="SVGID_2_" gradientUnits="userSpaceOnUse" x1="824.6304" y1="-241.1926" x2="880.6461" y2="-265.0461" gradientTransform="matrix(0.7071 0.7071 -0.7071 0.7071 -511.5171 -398.4277)">
		<stop  offset="0" style="stop-color:#6C95CF"/>
		<stop  offset="1" style="stop-color:#32396A"/>
	</linearGradient>
	<path class="st1" d="M264,28c1.1,1.1,2.2,2.2,3.1,3.4c5.4,6.5,7.9,12.8,7.9,12.8c3.4,0.6,6.7,0.8,9.7,0.7c0.2,0,0.4,0,0.6,0
		c0.2,0,0.3,0,0.5-0.1c6.6-0.6,15.3-3.1,23.2-11.1c0.3-0.3,0.5-0.6,0.8-0.8c-1.2-1.5-2.5-2.9-3.8-4.3c-22.9-22.8-58.7-24.8-83.8-6
		C241.9,13,255.5,19.6,264,28z"/>
	
		<linearGradient id="SVGID_3_" gradientUnits="userSpaceOnUse" x1="1054.2683" y1="1169.4705" x2="1110.2841" y2="1145.6168" gradientTransform="matrix(0.2588 -0.9659 0.9659 0.2588 -1184.9137 834.7933)">
		<stop  offset="0" style="stop-color:#6C95CF"/>
		<stop  offset="1" style="stop-color:#32396A"/>
	</linearGradient>
	<path class="st2" d="M218.6,93.2c0.4-1.5,0.9-3,1.4-4.4c2.9-7.9,7.1-13.3,7.1-13.3c-1.2-3.3-2.6-6.2-4.3-8.7
		c-0.1-0.2-0.2-0.3-0.3-0.5c-0.1-0.1-0.2-0.3-0.3-0.4c-3.8-5.5-10.4-11.7-21.1-14.5c-0.4-0.1-0.8-0.2-1.1-0.3
		c-0.7,1.8-1.3,3.6-1.8,5.5c-8.3,31.3,7.8,63.2,36.7,75.6C216.7,119.9,215.6,104.8,218.6,93.2z"/>
	
		<linearGradient id="SVGID_4_" gradientUnits="userSpaceOnUse" x1="-394.5224" y1="596.376" x2="-338.5071" y2="572.5226" gradientTransform="matrix(-0.9659 0.2588 -0.2588 -0.9659 94.193 766.1508)">
		<stop  offset="0" style="stop-color:#6C95CF"/>
		<stop  offset="1" style="stop-color:#32396A"/>
	</linearGradient>
	<path class="st3" d="M298,100.1c-1.5,0.4-3,0.8-4.5,1c-8.3,1.4-15.1,0.5-15.1,0.5c-2.3,2.7-4,5.4-5.4,8c-0.1,0.2-0.2,0.3-0.3,0.5
		c-0.1,0.2-0.1,0.3-0.2,0.5c-2.8,6.1-4.9,14.8-2,25.6c0.1,0.4,0.2,0.7,0.3,1.1c1.9-0.3,3.7-0.7,5.6-1.2
		c31.2-8.4,50.8-38.4,47.1-69.6C322,88.3,309.5,96.9,298,100.1z"/>
	<linearGradient id="SVGID_5_" gradientUnits="userSpaceOnUse" x1="219.5348" y1="57.3525" x2="244.9206" y2="18.3983">
		<stop  offset="0" style="stop-color:#6C95CF"/>
		<stop  offset="1" style="stop-color:#32396A"/>
	</linearGradient>
	<path class="st4" d="M222.1,22.6c0,0-13.9,8.7-21.2,26.3c1.9,0.3,21.4,4.3,28.6,25.9c1.8-1.1,7.2-5.4,10.9-17.3
		c4.4-14.3,12.8-24.9,23.7-29.5C264,28,250.3,8.3,222.1,22.6z"/>
	<linearGradient id="SVGID_6_" gradientUnits="userSpaceOnUse" x1="267.5619" y1="112.9069" x2="222.0226" y2="117.5492">
		<stop  offset="0" style="stop-color:#6C95CF"/>
		<stop  offset="1" style="stop-color:#32396A"/>
	</linearGradient>
	<path class="st5" d="M266.3,125.6c0-7.3,2-16.9,10.1-25.9l0.1-0.1c-1.3-1.4-5.9-4.9-17.8-2.2c-14.6,3.3-30.7,2.9-40.1-4.2
		c0,0-10.1,21.8,16.3,39c0,0,14.5,7.7,33.3,5.3C267.8,136.6,266.3,132,266.3,125.6z"/>
	<linearGradient id="SVGID_7_" gradientUnits="userSpaceOnUse" x1="296.8821" y1="47.0341" x2="306.1667" y2="93.8997">
		<stop  offset="0" style="stop-color:#6C95CF"/>
		<stop  offset="1" style="stop-color:#32396A"/>
	</linearGradient>
	<path class="st6" d="M311.5,34.9c-2.1,2.5-12,12.9-28.4,12.9c-2.7,0-5.5-0.3-8.4-0.9l-0.1,0c-0.5,2-1,7.6,7.1,16.3
		c10.2,11,17.9,25.1,16.4,36.9c0,0,23.9-2.1,25.6-33.6C323.6,66.5,323,50,311.5,34.9z"/>
</g>
<g>
	<g>
		<g>
			<path class="st7" d="M204.2,157.3c1.2-0.2,2.8-0.3,5-0.3c2.3,0,3.9,0.4,5,1.3c1.1,0.8,1.8,2.2,1.8,3.8c0,1.6-0.5,3-1.5,3.9
				c-1.3,1.2-3.2,1.7-5.4,1.7c-0.5,0-0.9,0-1.3-0.1v5.9h-3.7V157.3z M207.9,164.8c0.3,0.1,0.7,0.1,1.2,0.1c2,0,3.2-1,3.2-2.7
				c0-1.5-1.1-2.4-2.9-2.4c-0.8,0-1.3,0.1-1.5,0.1V164.8z"/>
			<path class="st7" d="M234.6,165.2c0,5.4-3.3,8.7-8.1,8.7c-4.9,0-7.8-3.7-7.8-8.4c0-4.9,3.2-8.6,8-8.6
				C231.9,156.8,234.6,160.6,234.6,165.2z M222.7,165.4c0,3.2,1.5,5.5,4,5.5c2.5,0,4-2.4,4-5.6c0-3-1.4-5.5-4-5.5
				C224.2,159.8,222.7,162.2,222.7,165.4z"/>
			<path class="st7" d="M250.4,173.1c-0.7,0.3-2.2,0.7-4.2,0.7c-5.7,0-8.6-3.6-8.6-8.3c0-5.6,4-8.8,9-8.8c1.9,0,3.4,0.4,4.1,0.7
				l-0.8,3c-0.8-0.3-1.8-0.6-3.1-0.6c-3,0-5.3,1.8-5.3,5.5c0,3.3,2,5.4,5.3,5.4c1.1,0,2.4-0.2,3.1-0.5L250.4,173.1z"/>
			<path class="st7" d="M257,168.4l-1.7,5.2h-2.2l5.6-16.5h2.6l5.6,16.5h-2.3l-1.8-5.2H257z M262.4,166.7l-1.6-4.7
				c-0.4-1.1-0.6-2.1-0.9-3h0c-0.2,1-0.5,2-0.8,3l-1.6,4.8H262.4z"/>
			<path class="st7" d="M271.8,158.9h-5v-1.8H279v1.8h-5v14.7h-2.2V158.9z"/>
			<path class="st7" d="M295.5,165.2c0,5.7-3.4,8.7-7.7,8.7c-4.4,0-7.4-3.4-7.4-8.4c0-5.2,3.3-8.7,7.7-8.7
				C292.5,156.8,295.5,160.3,295.5,165.2z M282.7,165.4c0,3.5,1.9,6.7,5.3,6.7c3.4,0,5.3-3.1,5.3-6.8c0-3.3-1.7-6.7-5.3-6.7
				C284.4,158.5,282.7,161.8,282.7,165.4z"/>
			<path class="st7" d="M313.3,166.3c-0.1-2.3-0.3-5.1-0.2-7.1H313c-0.6,1.9-1.2,4-2.1,6.3l-2.9,8h-1.6l-2.7-7.9
				c-0.8-2.3-1.4-4.5-1.9-6.4h0c0,2.1-0.2,4.8-0.3,7.3l-0.4,7.1h-2l1.2-16.5h2.7l2.8,8c0.7,2,1.2,3.8,1.7,5.6h0.1
				c0.4-1.7,1-3.5,1.7-5.6l2.9-8h2.7l1,16.5h-2.1L313.3,166.3z"/>
		</g>
	</g>
</g>
</svg>
