<?xml version="1.0" encoding="utf-8"?>
<!-- Generator: Adobe Illustrator 21.0.0, SVG Export Plug-In . SVG Version: 6.00 Build 0)  -->
<svg version="1.1" id="Слой_1" xmlns="http://www.w3.org/2000/svg" xmlns:xlink="http://www.w3.org/1999/xlink" x="0px" y="0px"
	 viewBox="0 0 512 182.3" style="enable-background:new 0 0 512 182.3;" xml:space="preserve">
<style type="text/css">
	.st0{fill:#475784;}
	.st1{fill:#FFFFFF;}
</style>
<path class="st0" d="M429.1,37.7c5.8,0,11-5.2,11-11.6c0-6.1-5.2-11-11-11c-6.1,0-11.6,4.8-11.6,11C417.5,32.5,423,37.7,429.1,37.7z
	 M429.1,36.1c-5.8,0-10-4.2-10-10c0-5.2,4.2-9.4,10-9.4c5.2,0,9.4,4.2,9.4,9.4C438.5,31.9,434.3,36.1,429.1,36.1z"/>
<path class="st0" d="M426.2,27.3h3.9c1.6,0,1.9,1,1.9,1.9c0,0.3,0,2.3,0.3,3.2h1.9v-0.6c-0.3-0.3-0.6-0.3-0.6-1V29
	c0-1.6-0.6-1.9-1.3-2.3c1-0.6,1.6-1.3,1.6-3.2c0-2.3-1.9-3.2-3.9-3.2h-5.5v12.3h1.6V27.3z M426.2,21.9h3.9c1,0,2.3,0,2.3,1.9
	c0,1.6-1.3,1.9-2.6,1.9h-3.6V21.9z M109.6,14.8H258v148.8H109.6V14.8z M413.3,14.8H264.5v148.8L413.3,14.8L413.3,14.8z"/>
<path class="st1" d="M226.7,148.4h11.6c17.1,0,20.3-14.5,19.7-18.7c-1-10.3-8.7-16.8-19.4-16.8h-28.4v52h16.5L226.7,148.4
	L226.7,148.4z M226.7,136.1v-11.3h7.1c5.8,0,8.1,1.3,8.1,5.5c0,1.9,0,5.8-6.5,5.8H226.7z"/>
<path class="st1" d="M174.4,153.9h16.5l4.2,11h17.4l-19.7-52h-19.7l-20,52h16.8L174.4,153.9L174.4,153.9z M183.2,127.4l5.8,15.5
	h-11.3L183.2,127.4z"/>
<path class="st1" d="M108.6,148.4v2.9c0,10.3,12.6,14.2,24.5,14.2c16.1,0,25.8-5.8,25.8-17.1c0-18.1-32.3-12.6-32.3-23.2
	c0-3.9,2.9-5.2,7.4-5.2c2.9,0,3.9,0.6,4.8,1.3c1.9,1.3,1.9,2.9,1.9,5.8H158v-1.3c0-7.7-6.8-14.2-23.9-14.2
	c-18.7,0-24.5,7.1-24.5,15.5c0,18.4,32.3,12.6,32.3,23.9c0,2.3-1.9,5.5-8.7,5.5c-5.5,0-7.4-2.6-7.4-6.5v-1.6H108.6z"/>
</svg>
