<?xml version="1.0" encoding="utf-8"?>
<!-- Generator: Adobe Illustrator 21.0.0, SVG Export Plug-In . SVG Version: 6.00 Build 0)  -->
<svg version="1.1" id="Слой_1" xmlns="http://www.w3.org/2000/svg" xmlns:xlink="http://www.w3.org/1999/xlink" x="0px" y="0px"
	 viewBox="0 0 512 182.3" style="enable-background:new 0 0 512 182.3;" xml:space="preserve">
<style type="text/css">
	.st0{fill:#0E0F0F;}
</style>
<g>
	<path class="st0" d="M226.3,154.1c-5.3,0-9.6,4.3-9.6,9.5c0,5.3,4.3,9.5,9.6,9.5c5.3,0,9.6-4.3,9.6-9.5
		C235.9,158.4,231.6,154.1,226.3,154.1z M226.3,169c-2.7,0-4.8-2.4-4.8-5.4s2.2-5.4,4.8-5.4c2.7,0,4.8,2.4,4.8,5.4
		S228.9,169,226.3,169z"/>
	<path class="st0" d="M206.6,147.9h-12.1v24.9h5v-9.1h7.1c4.4,0,7.9-3.5,7.9-7.9C214.4,151.4,210.9,147.9,206.6,147.9z M205.5,159.4
		h-6.1v-7.2h6.1c2,0,3.6,1.6,3.6,3.6C209.1,157.7,207.5,159.4,205.5,159.4z"/>
	<path class="st0" d="M285,154.1c-5.1,0-9.3,4.3-9.3,9.5c0,5.3,4.1,9.5,9.3,9.5c2.9,0,6.3-0.5,8-2.7l-2.1-3.1
		c-1.1,1.5-3.9,1.9-5.6,1.9c-2.4,0-4.3-1.9-4.8-4.5h13.8c0.1-0.4,0.1-0.8,0.1-1.3C294.3,158.4,290.2,154.1,285,154.1z M280.5,161.9
		c0.6-2.3,2.5-4,4.7-4c2.2,0,4.1,1.7,4.7,4H280.5z"/>
	<path class="st0" d="M307.9,163.3l6.2-8.8h-5.5l-3.7,5.6l-3.7-5.6h-5.5l6.2,8.8l-6.5,9.4h5.3l4.2-6.1l4.2,6.1h5.3L307.9,163.3z
		 M304.9,161.1L304.9,161.1L304.9,161.1L304.9,161.1L304.9,161.1z"/>
	<polygon class="st0" points="258.8,158.6 264,158.6 264,172.7 268.5,172.7 268.5,158.6 273.7,158.6 273.7,154.5 258.8,154.5 	"/>
	<path class="st0" d="M248.7,169c-2.7,0-4.8-2.4-4.8-5.4s2.2-5.4,4.8-5.4c1.6,0,3.2,0.7,4.1,2.1l3.2-3c-1.8-2-4.3-3.2-7.2-3.2
		c-5.3,0-9.6,4.3-9.6,9.5c0,5.3,4.3,9.5,9.6,9.5c2.9,0,5.6-1.3,7.3-3.4l-3.3-2.8C251.9,168.3,250.3,169,248.7,169z"/>
</g>
<path id="path12" class="st0" d="M209.5,24.5h40.2L234.3,9.1h-40.2v40.2l15.4,15.4C209.5,64.7,209.5,24.5,209.5,24.5z M258,24.5
	h40.2v40.2l15.4-15.4V9.1h-40.2L258,24.5z M298.1,73v40.2H258l15.4,15.4h40.2V88.3L298.1,73L298.1,73z M249.7,113.1h-40.2V73
	l-15.4,15.4v40.2h40.2C234.3,128.5,249.7,113.1,249.7,113.1z"/>
</svg>
