<?xml version="1.0" encoding="utf-8"?>
<!-- Generator: Adobe Illustrator 21.0.0, SVG Export Plug-In . SVG Version: 6.00 Build 0)  -->
<svg version="1.1" id="Слой_1" xmlns="http://www.w3.org/2000/svg" xmlns:xlink="http://www.w3.org/1999/xlink" x="0px" y="0px"
	 viewBox="0 0 512 182.3" style="enable-background:new 0 0 512 182.3;" xml:space="preserve">
<style type="text/css">
	.st0{fill:#E59B44;}
	.st1{fill:#44547D;}
</style>
<path class="st0" d="M125.1,72.8c-0.4-8-6.4-12.8-13.5-12.8h-0.3c-8.3,0-12.9,6.5-12.9,13.9c0,8.3,5.6,13.5,12.9,13.5
	c8.1,0,13.5-6,13.9-13L125.1,72.8L125.1,72.8z M111.3,52.8c5.5,0,10.7,2.4,14.6,6.3v0c0-1.8,1.2-3.2,3-3.2l0.4,0
	c2.7,0,3.2,2.5,3.2,3.4l0,28.6c-0.2,1.9,1.9,2.8,3.1,1.6c4.6-4.7,10.1-24.3-2.9-35.6c-12.1-10.6-28.2-8.8-36.9-2.9
	c-9.1,6.3-15,20.3-9.3,33.4c6.2,14.3,23.9,18.6,34.5,14.3c5.3-2.2,7.8,5.1,2.3,7.4c-8.4,3.6-31.7,3.2-42.6-15.7
	c-7.4-12.7-7-35.2,12.6-46.8c14.9-8.9,34.6-6.4,46.5,6c12.4,13,11.7,37.2-0.4,46.7c-5.5,4.3-13.6,0.1-13.6-6.1l-0.1-2
	c-3.8,3.8-8.9,6-14.4,6c-10.9,0-20.6-9.6-20.6-20.6C90.8,62.5,100.4,52.8,111.3,52.8"/>
<path class="st1" d="M319.6,90.7c-6.2,0-11.8-4.8-11.8-11.8l0-35.7c0-2.7-2.2-4.6-4.9-4.6c-3.1,0-4.9,2.3-4.9,4.6V79
	c0,12.1,10,21.6,21.4,21.6c3.4,0,5-2.7,5-5.1C324.4,93.3,322.7,90.7,319.6,90.7 M248.3,91.2c-8.8,0-16-7.1-16-16c0-8.8,7.1-16,16-16
	c8.8,0,16,7.1,16,16C264.3,84,257.1,91.2,248.3,91.2 M269,49.9c-2.8,0-4.7,2.2-4.7,4.4v1.7c-4.3-3.7-10-6-16.1-6
	c-13.4,0-25.2,11.3-25.2,25.4c0,12.9,11.3,25.3,25.2,25.3c5.6,0,11.7-2.2,16-5.8l0,1.2c0,2.3,1.8,4.7,4.8,4.7c3.4,0,4.9-2.7,4.9-4.9
	V54.5C274,52.6,271.8,49.9,269,49.9 M286,49.9c-2.9,0-4.8,2.4-4.8,4.9l0,41c0,2.7,2.1,4.8,4.8,4.8c3,0,5-2.4,5-5l0-40.8
	C291,52.4,288.5,49.9,286,49.9 M202.4,49.9c-6-0.1-10.6,3.4-13.5,5.7c-3.2-3.4-7.2-5.4-11.3-5.7c-4.4-0.3-8.5,1.2-11.1,3.3
	c-0.9-2.1-2.1-3.4-4.2-3.4c-2.3,0-4.7,1.9-4.7,5.1s0,40.9,0,40.9c0,2.3,2,4.7,4.9,4.7c3.2,0,4.9-2.4,4.9-4.7V65.5
	c0-2.9,5-6.4,9.3-6.4c2.7,0,6,2.7,6,7l0,29.8c0,2.6,2.6,4.7,5.1,4.7c2.9,0,5-2.2,5-4.6V65.8c0-3.7,5.6-6.8,9.4-6.6
	c3,0.2,5.7,3.4,5.7,6.6v30.1c0,2.6,2.4,4.7,5.1,4.7c2.3,0,5-1.5,5-4.7V65.9C218.1,54.9,207.2,49.8,202.4,49.9 M290.9,41.8
	c0,2-2,3.7-5,3.7c-3,0-4.8-2-4.8-3.9l0-2.6c0-2,1.8-4.2,4.8-4.2c3.3,0,5,2.1,5,4.2L290.9,41.8z"/>
<path class="st0" d="M429.2,49.9c-2.9,0-4.8,2.4-4.8,4.6l0,20.8c0,8-6.8,15.9-16.2,15.9c-7.7,0-15.8-6.7-15.8-15.7V54.6
	c0-2.2-1.6-4.7-4.9-4.7c-2.3,0-4.6,1.9-4.6,4.6v20.8c0,13.4,12,25.3,25.3,25.3c14.5,0,25.7-12.5,25.7-25.2V54.5
	C434,52.1,432.1,49.9,429.2,49.9 M372.5,49.9c-13.7,0.1-25.3,12.1-25.3,25.4v20.7c0,2.7,2.2,4.7,4.5,4.7c2.8,0,4.9-2,4.9-4.5v-21
	c0-7.5,6.6-15.8,15.8-15.8c3,0,5-2.3,5-4.8C377.4,52.5,375.9,49.9,372.5,49.9 M340.4,96.7c0,1.9-2,3.9-5,3.9c-3,0-4.8-2.2-4.8-4.1
	l0-3.3c0-2,1.9-4.1,4.9-4.1c3.3,0,4.9,2.2,4.9,4.3L340.4,96.7z"/>
<path class="st1" d="M339.9,135c-3.8,0-6.8-3.1-6.8-6.8c0-3.8,3.1-6.8,6.8-6.8c3.8,0,6.8,3.1,6.8,6.8
	C346.7,131.9,343.6,135,339.9,135 M348.7,117.3c-1.2,0-2,0.9-2,1.9v0.7c-1.9-1.6-4.3-2.6-6.9-2.6c-5.7,0-10.8,4.8-10.8,10.9
	c0,5.5,4.8,10.8,10.8,10.8c2.4,0,5-0.9,6.9-2.5c0,0,0,0.8,0.1,1c-0.3,2.5-2.1,4.8-5.3,5.8c-2.1,0.7-8.1-0.8-8.6-0.8
	c-1.4-0.2-2.1,1-2.1,2c0,0.9,0.7,1.6,2.1,2c1.8,0.6,4.9,0.9,7.7,1c2.1,0,10.1-1.6,10.3-10.4c0-0.1,0-17.8,0-17.8
	C350.9,118.4,349.9,117.3,348.7,117.3 M423.1,135c-3.5,0-6.3-2.6-6.8-5.9l0-1.9c0.5-3.3,3.3-5.9,6.8-5.9c3.8,0,6.8,3.1,6.8,6.8
	C430,131.9,426.9,135,423.1,135 M423.2,117.3c-2.6,0-5,1-6.9,2.6v-0.7c0-0.9-0.8-1.9-2-1.9c-1.2,0-2.1,1.1-2.1,2l0,26.2
	c0,1.2,0.9,2,2.1,2c1.3,0,2.1-1,2.1-2.1l0-8.9c1.8,1.6,4.4,2.5,6.8,2.5c6,0,10.8-5.3,10.8-10.8C434,122.1,428.9,117.3,423.2,117.3
	 M408.5,117.3c-1.2,0-2,1-2,2v8.9c0,3.4-2.9,6.8-6.9,6.8c-3.3,0-6.8-2.9-6.8-6.7v-8.9c0-0.9-0.7-2-2.1-2c-1,0-2,0.8-2,2v8.9
	c0,5.8,5.2,10.8,10.9,10.8c6.2,0,11-5.3,11-10.8v-8.9C410.6,118.2,409.7,117.3,408.5,117.3 M376.3,135c-3.8,0-6.8-3-6.8-6.8V128
	c0-3,2-5.6,4.8-6.4c0.7-0.2,1.3-0.3,2-0.3c3.8,0,6.8,3,6.8,6.8l0,0.2c0,3-2,5.6-4.8,6.4C377.7,134.9,377,135,376.3,135 M387.1,128.1
	c0-5.5-4.8-10.8-10.8-10.8c-0.1,0-0.1,0-0.2,0c-5.7,0.1-10.7,4.9-10.7,10.9c0,5.5,4.8,10.8,10.8,10.8c0.1,0,0.1,0,0.2,0
	C382.1,138.9,387.1,134.1,387.1,128.1 M363.3,117.3c-5.9,0-10.9,5.2-10.8,10.9v8.9c0,1.2,0.9,2,1.9,2c1.2,0,2.1-0.9,2.1-1.9v-9
	c0-3.2,2.8-6.8,6.8-6.8c1.3,0,2.1-1,2.1-2C365.4,118.4,364.8,117.3,363.3,117.3"/>
</svg>
