<?xml version="1.0" encoding="utf-8"?>
<!-- Generator: Adobe Illustrator 21.0.0, SVG Export Plug-In . SVG Version: 6.00 Build 0)  -->
<svg version="1.1" id="Слой_1" xmlns="http://www.w3.org/2000/svg" xmlns:xlink="http://www.w3.org/1999/xlink" x="0px" y="0px"
	 viewBox="0 0 512 182.3" style="enable-background:new 0 0 512 182.3;" xml:space="preserve">
<style type="text/css">
	.st0{fill-rule:evenodd;clip-rule:evenodd;fill:#DF8844;}
</style>
<g>
	<polyline class="st0" points="29.4,54.1 7,54.1 32.7,90.3 7,126.5 29.4,126.5 55.2,90.3 29.4,54.1 	"/>
	<polyline points="57.9,70.3 68.6,70.3 76.9,83.8 85.5,70.3 95.6,70.3 82.1,90.5 96.8,112.5 85.7,112.5 76.5,97.9 67.1,112.5 
		56.7,112.5 71.5,90.4 57.9,70.3 	"/>
	<path d="M108.9,77.3l-1.7,9.4l0.1,0.1c1.2-1.1,2.4-2,3.7-2.5c1.3-0.5,2.8-0.7,4.4-0.7c2.1,0,3.9,0.4,5.4,1.1c1.6,0.7,2.9,1.7,4,3
		c1.1,1.3,1.9,2.7,2.5,4.5c0.6,1.7,0.9,3.5,0.9,5.4c0,2.1-0.4,4.1-1.2,5.9c-0.8,1.8-1.9,3.4-3.3,4.8c-1.4,1.3-3,2.4-4.9,3.1
		c-1.9,0.7-3.8,1.1-5.9,1c-2,0-3.9-0.3-5.8-0.8c-1.8-0.5-3.4-1.3-4.9-2.4c-1.4-1.1-2.6-2.5-3.4-4.1c-0.8-1.6-1.3-3.5-1.3-5.7h8.4
		c0.2,1.9,0.9,3.4,2.1,4.5c1.2,1.1,2.8,1.7,4.7,1.7c1.1,0,2.1-0.2,3-0.7c0.9-0.5,1.6-1,2.3-1.8c0.6-0.7,1.1-1.6,1.4-2.5
		c0.3-1,0.5-2,0.5-3c0-1.1-0.2-2.1-0.5-3c-0.3-0.9-0.8-1.8-1.4-2.5c-0.6-0.7-1.4-1.3-2.3-1.7c-0.9-0.4-1.9-0.6-3-0.6
		c-1.5,0-2.7,0.2-3.7,0.8c-1,0.5-1.8,1.4-2.7,2.5h-7.6l4.1-22.9h23.1v6.9H108.9"/>
	<path d="M155.2,70.3c1.7,0,3.4,0.2,4.9,0.6c1.5,0.4,2.9,1.1,4.1,2c1.2,0.9,2.1,2,2.8,3.4c0.7,1.4,1,3.1,1,5c0,2.7-0.7,5-2.1,7
		c-1.4,2-3.4,3.2-6.1,3.8v0.1c1.4,0.2,2.5,0.6,3.4,1.1c0.9,0.5,1.6,1.2,2.2,2c0.6,0.8,1,1.8,1.2,2.9c0.3,1.1,0.4,2.2,0.5,3.5
		c0,0.7,0.1,1.6,0.1,2.6c0,1,0.1,2.1,0.2,3.1c0.1,1,0.3,2,0.6,2.9c0.2,0.9,0.6,1.7,1,2.2h-4.5c-0.2-0.4-0.4-0.9-0.6-1.4
		c-0.1-0.6-0.2-1.2-0.3-1.8c-0.1-0.6-0.1-1.2-0.2-1.8c0-0.6-0.1-1.1-0.1-1.5c-0.1-1.5-0.2-3-0.4-4.5c-0.2-1.5-0.6-2.8-1.1-3.9
		c-0.6-1.2-1.4-2.1-2.5-2.8c-1.1-0.7-2.6-1-4.5-1h-15.2v18.7h-4V70.3H155.2 M154.9,90.3c1.2,0,2.4-0.2,3.5-0.6
		c1.1-0.4,2.1-0.9,2.9-1.6c0.8-0.7,1.5-1.6,2-2.6c0.5-1,0.7-2.1,0.7-3.5c0-2.6-0.7-4.6-2.2-6.1c-1.5-1.5-3.8-2.2-6.8-2.2h-15v16.6
		H154.9z"/>
	<polyline points="203.2,70.3 203.2,73.8 178.1,73.8 178.1,89 201.6,89 201.6,92.4 178.1,92.4 178.1,109 203.5,109 203.5,112.5 
		174,112.5 174,70.3 203.2,70.3 	"/>
	<polyline points="239.1,70.3 239.1,73.8 224.4,73.8 224.4,112.5 220.4,112.5 220.4,73.8 205.7,73.8 205.7,70.3 239.1,70.3 	"/>
	<path d="M254,70.3l16.5,42.2h-4.3L261,99.4h-19.2l-5.1,13.1h-4.3l16.9-42.2H254 M259.7,95.9l-8.2-21.6l-8.4,21.6H259.7z"/>
	<rect x="274.6" y="70.3" width="4" height="42.2"/>
	<polyline points="291.5,70.3 291.5,109 315.1,109 315.1,112.5 287.4,112.5 287.4,70.3 291.5,70.3 	"/>
	<g>
		<path d="M338.9,114.1c-3.3,0-6.3-0.6-8.8-1.8l0,0c-2.6-1.2-4.7-2.8-6.4-4.9l0,0c-1.7-2-3-4.5-3.9-7.2l0,0
			c-0.9-2.7-1.3-5.7-1.3-8.8l0,0c0-3.1,0.5-6.1,1.4-8.9l0,0c0.9-2.8,2.3-5.2,4-7.2l0,0c1.8-2.1,3.9-3.7,6.4-4.9l0,0
			c2.5-1.2,5.4-1.8,8.6-1.8l0,0c2.4,0,4.7,0.3,6.7,1l0,0c2.1,0.7,3.9,1.7,5.5,3l0,0c1.6,1.3,2.9,2.8,3.9,4.6l0,0
			c1,1.8,1.7,3.8,2.1,6.1l0,0l0.1,0.8h-0.8h-1.8l-0.1-0.6c-0.3-1.9-0.9-3.6-1.8-5.1l0,0c-0.9-1.5-2-2.8-3.3-3.9l0,0
			c-1.3-1.1-2.9-1.9-4.6-2.5l0,0c-1.7-0.6-3.7-0.9-5.8-0.9l0,0c-2.9,0-5.4,0.5-7.6,1.6l0,0c-2.2,1.1-4.1,2.5-5.6,4.3l0,0
			c-1.5,1.8-2.7,4-3.5,6.4l0,0c-0.8,2.5-1.2,5.1-1.2,7.9l0,0c0,2.8,0.4,5.5,1.2,7.9l0,0c0.8,2.5,1.9,4.6,3.4,6.4l0,0
			c1.5,1.8,3.4,3.2,5.6,4.3l0,0c2.2,1,4.9,1.6,7.9,1.6l0,0c2.3,0,4.3-0.4,6.3-1.2l0,0c2-0.8,3.7-1.9,5.1-3.2l0,0
			c1.4-1.4,2.6-3,3.4-4.9l0,0c0.8-1.9,1.2-4,1.2-6.2l0,0v-1.5h-16.3V94v-1.2v-0.7h18.9v21H357h-1.9l0-8c-1.2,2.4-3,4.3-5.2,5.9l0,0
			C346.9,113.1,343.2,114.1,338.9,114.1L338.9,114.1C338.9,114.1,338.9,114.1,338.9,114.1L338.9,114.1z"/>
	</g>
	<g>
		<path d="M361.8,113.2h-0.7V69.7h18c4.5,0,7.9,0.9,10.2,2.8l0,0c2.2,1.9,3.3,4.9,3.4,8.7l0,0c0,0.1,0,0.3,0,0.4l0,0
			c0,2.8-0.8,5.2-2.4,7.1l0,0c-1.2,1.5-2.8,2.6-4.8,3.3l0,0c0.8,0.2,1.5,0.5,2.1,0.8l0,0c1.2,0.7,2.1,1.5,2.8,2.6l0,0
			c0.6,1.1,1.1,2.3,1.3,3.7l0,0c0.2,1.4,0.3,2.9,0.3,4.6l0,0c0,0.5,0,1.3,0.1,2.2l0,0c0,0.9,0.1,1.7,0.2,2.6l0,0
			c0.1,0.9,0.2,1.6,0.3,2.3l0,0c0.1,0.7,0.3,1.1,0.4,1.2l0,0l0.8,1.1h-1.3l0,0h-1.7l-0.2-0.4c-0.3-0.5-0.4-1.2-0.6-1.9l0,0
			c-0.1-0.7-0.2-1.5-0.3-2.4l0,0c-0.1-0.8-0.1-1.7-0.1-2.5l0,0c0-0.9,0-1.6,0-2.3l0,0c0-1.7-0.1-3.2-0.4-4.5l0,0
			c-0.2-1.3-0.7-2.3-1.4-3.1l0,0c-0.7-0.8-1.7-1.5-3.1-1.9l0,0c-1.4-0.5-3.2-0.7-5.6-0.7l0,0h-15.2v19.8H363H361.8z M378.8,90.9
			c1.5,0,3-0.2,4.4-0.6l0,0c1.3-0.4,2.5-0.9,3.6-1.8l0,0c1-0.8,1.8-1.8,2.5-3.1l0,0c0.6-1.2,0.9-2.7,0.9-4.4l0,0
			c0-2.9-0.9-5-2.5-6.5l0,0c-1.6-1.5-4.3-2.3-8.2-2.3l0,0l-15.7,0v18.7H378.8z"/>
	</g>
	<g>
		<path d="M406.2,112.3c-2.5-1.2-4.6-2.8-6.3-4.9l0,0c-1.7-2.1-3-4.5-3.8-7.3l0,0c-0.9-2.7-1.3-5.6-1.3-8.7l0,0c0-3.1,0.5-6,1.3-8.7
			l0,0c0.9-2.8,2.2-5.2,3.8-7.3l0,0c1.7-2.1,3.8-3.7,6.3-5l0,0c2.5-1.2,5.4-1.9,8.6-1.9l0,0c3.2,0,6.1,0.6,8.6,1.9l0,0
			c2.5,1.2,4.6,2.9,6.3,5l0,0c1.7,2.1,3,4.5,3.8,7.3l0,0c0.9,2.7,1.3,5.6,1.3,8.7l0,0c0,3.1-0.4,6-1.3,8.7l0,0
			c-0.9,2.8-2.2,5.2-3.8,7.3l0,0c-1.7,2.1-3.8,3.7-6.3,4.9l0,0c-2.5,1.2-5.4,1.8-8.6,1.8l0,0C411.6,114.1,408.8,113.5,406.2,112.3
			L406.2,112.3z M402.1,106c1.5,1.8,3.3,3.2,5.5,4.2l0,0c2.1,1,4.6,1.5,7.3,1.5l0,0c2.8,0,5.2-0.5,7.3-1.5l0,0c2.2-1,4-2.4,5.5-4.2
			l0,0c1.5-1.8,2.6-3.9,3.5-6.4l0,0c0.8-2.5,1.3-5.2,1.3-8.2l0,0c0-3-0.5-5.7-1.3-8.2l0,0c-0.8-2.5-2-4.6-3.5-6.4l0,0
			c-1.5-1.8-3.3-3.1-5.5-4.2l0,0c-2.1-1-4.6-1.5-7.3-1.5l0,0c-2.7,0-5.2,0.5-7.3,1.5l0,0c-2.2,1-4,2.4-5.5,4.2l0,0
			c-1.5,1.8-2.6,3.9-3.5,6.4l0,0c-0.8,2.5-1.2,5.2-1.3,8.2l0,0c0,3,0.5,5.7,1.3,8.2l0,0v0C399.4,102.1,400.6,104.2,402.1,106
			L402.1,106z"/>
	</g>
	<g>
		<path d="M470.2,69.6h0.7v27.1c0,5.8-1.3,10.1-4.2,13l0,0c-2.8,2.9-6.8,4.3-12,4.3l0,0c0,0,0,0,0,0l0,0c-5.2,0-9.2-1.4-12-4.3l0,0
			c-2.8-2.9-4.2-7.3-4.2-13l0,0V69.6h0.7h1.9v27.1c0,5,1.1,8.7,3.3,11.1l0,0c2.2,2.4,5.5,3.7,10.3,3.7l0,0c4.8,0,8.1-1.3,10.3-3.7
			l0,0c2.2-2.5,3.3-6.1,3.3-11.1l0,0V69.6h0.7H470.2z"/>
	</g>
	<g>
		<path d="M475.4,113.2h-0.7V69.7h17.8c4.2,0,7.5,1,9.9,3.1l0,0c2.4,2.1,3.6,5.2,3.6,9.1l0,0c0,1.9-0.4,3.7-1.1,5.2l0,0
			c-0.7,1.5-1.7,2.8-3,3.8l0,0c-1.3,1-2.8,1.8-4.5,2.3l0,0c-1.7,0.5-3.6,0.8-5.6,0.8l0,0h-14.6v19.2h-0.7l0,0H475.4z M492.5,91.4
			c1.6,0,3.1-0.2,4.4-0.6l0,0c1.3-0.4,2.5-1,3.5-1.9l0,0c1-0.8,1.7-1.8,2.3-3l0,0c0.5-1.2,0.8-2.5,0.8-4.1l0,0
			c0-3.2-0.9-5.6-2.7-7.2l0,0c-1.7-1.6-4.5-2.5-8.3-2.5l0,0l-15.2,0v19.2l0,0H492.5z"/>
	</g>
</g>
</svg>
