<?xml version="1.0" encoding="utf-8"?>
<!-- Generator: Adobe Illustrator 21.0.0, SVG Export Plug-In . SVG Version: 6.00 Build 0)  -->
<svg version="1.1" id="Слой_1" xmlns="http://www.w3.org/2000/svg" xmlns:xlink="http://www.w3.org/1999/xlink" x="0px" y="0px"
	 viewBox="0 0 512 182.3" style="enable-background:new 0 0 512 182.3;" xml:space="preserve">
<style type="text/css">
	.st0{fill:#4F9692;}
</style>
<g id="Ebene_x0020_1">
	<path class="st0" d="M450.6,60.3v11.9c-6.2-2.3-11.7-3.5-16.5-3.5c-2.9,0-5.1,0.5-6.8,1.5c-1.7,1-2.6,2.3-2.6,3.8
		c0,2,1.9,3.8,5.8,5.3l11.2,5.5c9.1,4.3,13.6,10.1,13.6,17.3c0,6-2.4,10.8-7.2,14.3c-4.8,3.6-11.2,5.3-19.2,5.3c-3.7,0-7-0.2-10-0.5
		c-2.9-0.3-6.3-1-10.1-1.9v-12.5c6.9,2.3,13.2,3.5,18.8,3.5c6.7,0,10.1-2,10.1-5.9c0-2-1.4-3.5-4.2-4.8l-12.5-5.3
		c-4.6-2.1-8-4.6-10.2-7.6c-2.2-3-3.3-6.5-3.3-10.4c0-5.5,2.3-10,6.9-13.3c4.6-3.4,10.8-5,18.4-5c2.5,0,5.3,0.2,8.5,0.6
		C444.6,59.1,447.6,59.7,450.6,60.3L450.6,60.3z"/>
	<path class="st0" d="M97.8,60.3v11.9c-6.2-2.3-11.7-3.5-16.5-3.5c-2.9,0-5.1,0.5-6.8,1.5c-1.7,1-2.6,2.3-2.6,3.8c0,2,2,3.8,5.8,5.3
		l11.2,5.5c9,4.3,13.5,10.1,13.5,17.3c0,6-2.4,10.8-7.2,14.3c-4.8,3.6-11.2,5.3-19.3,5.3c-3.7,0-7-0.2-10-0.5
		c-2.9-0.3-6.3-1-10.1-1.9v-12.5c6.9,2.3,13.2,3.5,18.8,3.5c6.7,0,10.1-2,10.1-5.9c0-2-1.4-3.5-4.1-4.8l-12.5-5.3
		c-4.6-2.1-8-4.6-10.2-7.6c-2.2-3-3.3-6.5-3.3-10.4c0-5.5,2.3-10,6.9-13.3c4.6-3.4,10.8-5,18.4-5c2.5,0,5.3,0.2,8.5,0.6
		C91.7,59.1,94.8,59.7,97.8,60.3z"/>
	<polygon class="st0" points="110.6,59.2 128.9,59.2 128.9,120.7 110.6,120.7 	"/>
	<polygon class="st0" points="187.7,59.2 187.7,70.6 160.6,70.6 160.6,84.2 184.1,84.2 184.1,94.4 160.6,94.4 160.6,108.8 
		188.3,108.8 188.3,120.7 143,120.7 143,59.2 	"/>
	<polygon class="st0" points="273,59.2 273,120.7 256,120.7 256,80.1 238.3,121.3 227.8,121.3 210.7,80.1 210.7,120.7 198.4,120.7 
		198.4,59.2 220.7,59.2 235.9,96.8 251.8,59.2 	"/>
	<polygon class="st0" points="331.9,59.2 331.9,70.6 304.9,70.6 304.9,84.2 328.4,84.2 328.4,94.4 304.9,94.4 304.9,108.8 
		332.4,108.8 332.4,120.7 287.1,120.7 287.1,59.2 	"/>
	<polygon class="st0" points="396,59.2 396,120.7 376.6,120.7 354.8,81.3 354.8,120.7 342.5,120.7 342.5,59.2 362.5,59.2 383.6,98 
		383.6,59.2 	"/>
</g>
</svg>
