<?xml version="1.0" encoding="utf-8"?>
<!-- Generator: Adobe Illustrator 21.0.0, SVG Export Plug-In . SVG Version: 6.00 Build 0)  -->
<svg version="1.1" id="Слой_1" xmlns="http://www.w3.org/2000/svg" xmlns:xlink="http://www.w3.org/1999/xlink" x="0px" y="0px"
	 viewBox="0 0 512 182.3" style="enable-background:new 0 0 512 182.3;" xml:space="preserve">
<style type="text/css">
	.st0{fill:#4C7AAD;}
</style>
<g id="layer1" transform="translate(-8.479224,-404.6258)">
	<g id="g2058" transform="translate(7.081015,7.088444)">
		<path id="path26" class="st0" d="M208.2,490.7H224v5.1h-7.5v36.1h-8.2V490.7"/>
		<path id="path28" class="st0" d="M233.3,516.4l1.4-20.6h0.5l1.4,20.6H233.3z M224.1,531.9h8.1l0.8-10.9h3.9l0.8,10.9h8.1
			l-4.3-41.2h-12.9L224.1,531.9"/>
		<path id="path30" class="st0" d="M257.5,517.4v7.8c0,1,0.8,1.4,1.3,1.4c0.8,0,1.3-0.6,1.3-1.4v-9.6c0-1.3-0.2-2.7-3.3-2.7h-3.3
			v-4.5h3.5c2.3,0,3.2-0.5,3.2-3.1v-8.2c0-0.7-0.5-1.4-1.3-1.4c-0.5,0-1.3,0.3-1.3,1.4v6.7h-8.2V498c0-2.9,0.3-7.4,6.1-7.4h6.8
			c5.8,0,6.1,4.5,6.1,7.4v6.6c0,4.5-3.1,5.7-5.6,5.6v0.4c5.5-0.1,5.6,4.1,5.6,5.6v8.3c0,2.9-0.4,7.4-6.1,7.4h-6.8
			c-5.8,0-6.1-4.5-6.1-7.4v-7.1H257.5"/>
		<path id="path32" class="st0" d="M273.7,490.7h19.1v41.2h-8.2v-36.1H282v36.1h-8.2V490.7"/>
		<path id="path34" class="st0" d="M306.4,513.3v-17.5h1.1c0.9,0,1.5,0.7,1.5,2.1v13.4c0,1.3-0.6,2.1-1.5,2.1H306.4z M298.2,531.9
			h8.2v-14h4.7c5.7,0,6.1-4.5,6.1-7.4V498c0-2.9-0.4-7.4-6.1-7.4h-13V531.9"/>
		<path id="path36" class="st0" d="M333.5,525.2c0,0.7-0.5,1.4-1.3,1.4c-0.5,0-1.3-0.3-1.3-1.4v-28.1c0-1.1,0.8-1.4,1.3-1.4
			c0.8,0,1.3,0.6,1.3,1.4V525.2z M322.7,524.5c0,2.9,0.4,7.4,6.1,7.4h6.9c5.7,0,6.1-4.5,6.1-7.4V498c0-2.9-0.4-7.4-6.1-7.4h-6.9
			c-5.7,0-6.1,4.5-6.1,7.4V524.5"/>
		<path id="path38" class="st0" d="M368.6,490.7h10.7v41.2h-8.2V506h-0.3l-4.3,25.8h-6.6l-4.2-25.8h-0.3v25.8h-8.2v-41.2h10.7
			l5.4,29L368.6,490.7"/>
		<path id="path40" class="st0" d="M197.6,434.3c-2.5-11-8.8-20-9.7-21.5c-1.4,2.1-6.4,10-9,18.8c-2.8,9.8-3.2,18.5-2.2,27.1
			c1,8.6,4.6,17.4,4.6,17.4c1.9,4.6,4.8,9.6,6.7,12c2.8-3.6,9.1-14.3,11-28.2C200,452.2,200.1,445.4,197.6,434.3z M187.9,485.3
			c-1.2-2.3-3.2-6.8-3.3-13.6c0-6.6,2.6-12.3,3.4-13.5c0.7,1.2,3,6.1,3.3,12.9C191.3,477.7,189.1,483,187.9,485.3z M196.8,453.1
			c-0.1,4.2-0.6,8.7-1.2,11.3c0.2-4.6-0.3-11-1.4-16.1c-1.1-5-4-13.5-6.4-17.4c-2.2,3.7-4.9,11-6.3,17.3c-1.4,6.3-1.5,14-1.5,16.3
			c-0.4-1.9-1.3-8.8-1.1-15.8c0.2-5.7,1.6-11.6,2.3-14.3c2.8-9,6-14.8,6.6-15.7c0.6,0.9,4.6,8,6.6,15.5
			C196.5,441.7,196.9,448.9,196.8,453.1"/>
		<path id="path42" class="st0" d="M192.1,490.7H173v12.9c0,0,0,0,0,0c4.5-4.5,11.8-4.5,16.4,0c4.5,4.5,4.5,11.8,0,16.3
			c0,0,0,0-0.1,0.1l0,0c0,0,0,0-0.1,0.1c-4.5,4.5-10.4,6.7-16.3,6.7c-5.9,0-11.8-2.2-16.3-6.8c-8-7.9-8.9-20.3-2.8-29.2
			c0.8-1.2,1.8-2.4,2.8-3.4c4.5-4.5,10.4-6.8,16.3-6.8v-30.9c-22.7,0-41.2,18.4-41.2,41.1s18.4,41.2,41.2,41.2c11.9,0,22.5-5,30-13
			v-28.1H192.1"/>
	</g>
</g>
</svg>
