<?xml version="1.0" encoding="utf-8"?>
<!-- Generator: Adobe Illustrator 21.0.0, SVG Export Plug-In . SVG Version: 6.00 Build 0)  -->
<svg version="1.1" id="Слой_1" xmlns="http://www.w3.org/2000/svg" xmlns:xlink="http://www.w3.org/1999/xlink" x="0px" y="0px"
	 viewBox="0 0 512 182.3" style="enable-background:new 0 0 512 182.3;" xml:space="preserve">
<style type="text/css">
	.st0{fill:#49628D;}
</style>
<g id="Слой_x0020_1">
	<path class="st0" d="M215.4,87.2c-1,0.8-2.2,1.3-3.6,1.3H207v-11h4.8c1.6,0,2.9,0.4,3.8,1.2c0.9,0.8,1.4,2.2,1.4,4.1
		C217,84.9,216.5,86.4,215.4,87.2L215.4,87.2z M222,72.4c-1.2-1.1-2.7-2-4.5-2.5c-1.8-0.6-3.7-0.8-5.7-0.8h-14v44.1h9.2V97h5.3
		c2.1,0,4-0.3,5.7-1c1.7-0.7,3.1-1.6,4.3-2.8c1.2-1.2,2.1-2.7,2.7-4.4c0.6-1.7,1-3.7,1-5.8c0-2.4-0.3-4.5-1-6.2
		C224.3,75,223.3,73.5,222,72.4L222,72.4z"/>
	<path class="st0" d="M251.8,99.9c0,1.5-0.5,2.6-1.4,3.5s-2.1,1.3-3.4,1.3c-1.8,0-3.1-0.5-3.9-1.6c-0.8-1.1-1.2-2.5-1.2-4.2V82.4
		c0-0.5,0.1-1,0.3-1.6c0.2-0.6,0.5-1.1,0.9-1.6c0.4-0.5,0.9-0.9,1.6-1.2c0.6-0.3,1.4-0.5,2.3-0.5c0.9,0,1.7,0.2,2.3,0.5
		c0.6,0.4,1.1,0.8,1.5,1.3c0.4,0.5,0.6,1,0.8,1.6c0.1,0.6,0.2,1,0.2,1.5L251.8,99.9L251.8,99.9z M257.6,73.2
		c-1.1-1.3-2.6-2.4-4.4-3.2c-1.8-0.8-3.9-1.2-6.3-1.2c-2.6,0-4.8,0.4-6.6,1.3c-1.8,0.9-3.3,2-4.4,3.3c-1.1,1.3-2,2.9-2.5,4.5
		c-0.5,1.7-0.8,3.3-0.8,5v15.7c0,2,0.3,3.9,0.8,5.7s1.4,3.4,2.5,4.8c1.1,1.4,2.6,2.5,4.4,3.3c1.8,0.8,4,1.2,6.5,1.2
		c2.1,0,4-0.3,5.7-1c1.7-0.7,3.2-1.6,4.4-2.9s2.2-2.7,2.9-4.5c0.7-1.8,1-3.7,1-5.9V82.8c0-1.7-0.3-3.4-0.9-5.1
		C259.6,76,258.8,74.5,257.6,73.2z"/>
	<path class="st0" d="M279.4,80.8c0.2-0.6,0.4-1.1,0.8-1.6c0.4-0.5,0.9-0.9,1.5-1.2c0.6-0.3,1.4-0.5,2.3-0.5c0.9,0,1.6,0.2,2.3,0.5
		c0.6,0.3,1.2,0.7,1.6,1.2c0.4,0.5,0.7,1,0.9,1.6c0.2,0.6,0.3,1.1,0.4,1.5l8.7-2.6c-0.3-1.4-0.8-2.8-1.5-4.2
		c-0.7-1.3-1.6-2.5-2.8-3.5c-1.1-1-2.5-1.8-4.1-2.4c-1.6-0.6-3.4-0.9-5.4-0.9c-2.6,0-4.8,0.4-6.6,1.3c-1.8,0.9-3.3,2-4.4,3.3
		c-1.1,1.3-1.9,2.9-2.4,4.5c-0.5,1.7-0.8,3.3-0.8,5v15.7c0,2,0.3,3.9,0.8,5.7c0.5,1.8,1.3,3.4,2.5,4.8c1.1,1.4,2.6,2.5,4.4,3.3
		c1.8,0.8,4,1.2,6.5,1.2c3.6,0,6.6-1,9.1-2.9c2.5-1.9,4.1-4.6,4.7-8l-8.7-2.5c-0.2,1.4-0.7,2.6-1.7,3.4c-1,0.8-2.1,1.2-3.4,1.2
		c-1.8,0-3.1-0.5-3.8-1.6c-0.7-1.1-1.1-2.5-1.1-4.2V82.4C279.1,81.9,279.2,81.4,279.4,80.8L279.4,80.8z"/>
	<path class="st0" d="M315.1,80.8c0.2-0.6,0.4-1.1,0.8-1.6c0.4-0.5,0.9-0.9,1.5-1.2c0.6-0.3,1.4-0.5,2.3-0.5c0.9,0,1.6,0.2,2.3,0.5
		c0.6,0.3,1.2,0.7,1.6,1.2c0.4,0.5,0.7,1,0.9,1.6c0.2,0.6,0.3,1.1,0.4,1.5l8.7-2.6c-0.3-1.4-0.8-2.8-1.5-4.2
		c-0.7-1.3-1.6-2.5-2.8-3.5c-1.1-1-2.5-1.8-4.1-2.4c-1.6-0.6-3.4-0.9-5.4-0.9c-2.6,0-4.8,0.4-6.6,1.3c-1.8,0.9-3.3,2-4.4,3.3
		c-1.1,1.3-1.9,2.9-2.4,4.5c-0.5,1.7-0.8,3.3-0.8,5v15.7c0,2,0.3,3.9,0.8,5.7c0.5,1.8,1.3,3.4,2.5,4.8c1.1,1.4,2.6,2.5,4.4,3.3
		c1.8,0.8,4,1.2,6.5,1.2c3.6,0,6.6-1,9.1-2.9c2.5-1.9,4.1-4.6,4.7-8l-8.7-2.5c-0.2,1.4-0.7,2.6-1.7,3.4c-1,0.8-2.1,1.2-3.4,1.2
		c-1.8,0-3.1-0.5-3.8-1.6c-0.7-1.1-1.1-2.5-1.1-4.2V82.4C314.9,81.9,314.9,81.4,315.1,80.8L315.1,80.8z"/>
	<polygon class="st0" points="342.4,113.1 368.1,113.1 368.1,104.4 351.6,104.4 351.6,95.1 365.8,95.1 365.8,86.6 351.6,86.6 
		351.6,77.5 368.1,77.5 368.1,69 342.4,69 	"/>
	<polygon class="st0" points="373.2,77.4 382.6,77.4 382.6,113.1 391.7,113.1 391.7,77.4 401.2,77.4 401.2,69 373.2,69 	"/>
	<polygon class="st0" points="430.5,69 417.9,94.6 417.8,94.6 417.8,69 408.6,69 408.6,113.1 417.3,113.1 429.6,89.1 429.6,89.1 
		429.6,113.1 438.8,113.1 438.8,69 	"/>
	<path class="st0" d="M128.5,63.4l-50.1-2.6c-5.9,8.6-9.3,19.1-9.3,30.3c0,3,0.3,6,0.7,8.9l59.1-34.7
		C128.7,64.7,128.6,64.1,128.5,63.4L128.5,63.4z"/>
	<path class="st0" d="M141.7,66.7l34.5,32.8c0.4-2.7,0.7-5.5,0.7-8.4c0-11.6-3.7-22.3-9.9-31.1L143,62.9
		C142.9,64.3,142.5,65.6,141.7,66.7L141.7,66.7z"/>
	<path class="st0" d="M130.4,67.6l-59.1,38.9c4,13.6,13.3,25,25.5,31.8l34.7-69.7C131.1,68.3,130.7,67.9,130.4,67.6L130.4,67.6z"/>
	<path class="st0" d="M133.9,69.7L102.5,141c6.3,2.6,13.3,4.1,20.5,4.1c7.1,0,13.9-1.4,20.1-3.9l-7.8-71.2
		C134.8,69.9,134.4,69.8,133.9,69.7z"/>
	<path class="st0" d="M138,69.5l11.1,68.8c12.3-6.8,21.6-18.2,25.7-32l-35-37.6C139.2,69.1,138.6,69.3,138,69.5L138,69.5z"/>
	<path class="st0" d="M131.1,57l-11.3-19.7c-14.7,0.8-27.8,7.6-37,17.9l45.9,5.5C129.1,59.2,130,57.9,131.1,57L131.1,57z"/>
	<path class="st0" d="M135.9,55.3c3,0.1,5.5,1.9,6.6,4.5l20.6-4.9c-9.2-10.1-22.1-16.7-36.6-17.7l7.6,18.3
		C134.6,55.4,135.2,55.3,135.9,55.3L135.9,55.3z"/>
</g>
</svg>
