<?xml version="1.0" encoding="utf-8"?>
<!-- Generator: Adobe Illustrator 21.0.0, SVG Export Plug-In . SVG Version: 6.00 Build 0)  -->
<svg version="1.1" id="Слой_1" xmlns="http://www.w3.org/2000/svg" xmlns:xlink="http://www.w3.org/1999/xlink" x="0px" y="0px"
	 viewBox="0 0 199.3 147" style="enable-background:new 0 0 199.3 147;" xml:space="preserve">
<style type="text/css">
	.st0{fill:#BFD252;}
</style>
<path id="Fill-18" class="st0" d="M79.6,63.8l-33.8-8.2C40,54.3,31.1,52,31.1,41.2c0-12.3,13.2-16.5,24.3-16.5
	c25.2,0,27.5,14.6,28.3,20.9h16.1v25.7C93.8,67.9,86.8,65.6,79.6,63.8 M61.2,146c7.3,0,25.1-1.3,38.5-10.9v7.3h26.9l0-32.3
	l11.3-11.6l24.5,43.8h32.3l-37.1-62.6l36.1-39.5h-33.1l-34,38.7V4.6H99.7v11.8C91.5,7.6,78.2,1,57.4,1C12.5,1,4.1,28.1,4.1,43.3
	c0,20.9,11.3,32.5,31,37.2L63,87.3c14.7,3.6,25.2,6.3,25.2,17.1c0,14.4-15.3,17.8-29.1,17.8c-25.2,0-29.4-14.6-29.4-22.4H2
	C2,116.9,10.8,146,61.2,146"/>
</svg>
