<?xml version="1.0" encoding="utf-8"?>
<!-- Generator: Adobe Illustrator 21.0.0, SVG Export Plug-In . SVG Version: 6.00 Build 0)  -->
<svg version="1.1" id="Слой_1" xmlns="http://www.w3.org/2000/svg" xmlns:xlink="http://www.w3.org/1999/xlink" x="0px" y="0px"
	 viewBox="0 0 112 80" style="enable-background:new 0 0 112 80;" xml:space="preserve">
<style type="text/css">
	.st0{fill:#C5DA40;}
</style>
<title>Skolkovo Logo</title>
<desc>Created with Sketch.</desc>
<g>
	<path class="st0" d="M70.3,61.5c0-0.7-0.5-1-1.3-1h-1.5v1.9H69C69.7,62.5,70.3,62.2,70.3,61.5z"/>
	<path class="st0" d="M34.2,60.7c-1.8,0-2.1,1.5-2.1,2.6s0.3,2.6,2.1,2.6c1.7,0,2.1-1.5,2.1-2.6C36.3,62.2,35.9,60.7,34.2,60.7z"/>
	<path class="st0" d="M69.2,63.8h-1.6V66h1.7c0.8,0,1.3-0.3,1.3-1.1C70.5,64.2,70,63.8,69.2,63.8z"/>
	<path class="st0" d="M60.1,60.7c-1.7,0-2.1,1.5-2.1,2.6s0.3,2.6,2.1,2.6c1.8,0,2.1-1.5,2.1-2.6C62.2,62.2,61.9,60.7,60.1,60.7z"/>
	<path class="st0" d="M0,0v80h112V0H0z M16.6,65.8c1.3,0,2.3-0.8,2.6-2.2h2.4c-0.5,2.5-2.1,4.3-5.1,4.3c-3.1,0-5.3-2.1-5.3-6.1
		c0-4,2.3-6.1,5.3-6.1c3.5,0,4.9,2.4,5,4.1h-2.4c-0.2-0.7-0.6-2.1-2.6-2.1c-1.2,0-2.9,0.8-2.9,4.1C13.7,63.9,14.5,65.8,16.6,65.8z
		 M27.6,67.6l-2.1-3.7l-0.9,1v2.7h-2.3V59h2.3v3.2l2.9-3.2h2.8l-3,3.3l3.1,5.3H27.6z M34.2,67.8c-2.3,0-4.4-1.4-4.4-4.5
		c0-3.1,2.1-4.5,4.4-4.5c2.3,0,4.4,1.4,4.4,4.5C38.6,66.4,36.5,67.8,34.2,67.8z M47.1,67.6h-2.3v-6.8h-2.4v2.6c0,3.3-1,4.3-2.6,4.3
		c-0.4,0-1-0.1-1.4-0.2v-1.7c0,0,0.3,0.1,0.7,0.1c0.7,0,1-0.3,1-2.9v-4h7V67.6z M45.1,44.2l0,8.6h-7.2v-2c-3.6,2.6-8.3,2.9-10.2,2.9
		c-13.4,0-15.8-7.7-15.8-12.3h7.4c0,2.1,1.1,6,7.8,6c3.7,0,7.7-0.9,7.7-4.7c0-2.9-2.8-3.6-6.7-4.5l-7.4-1.8
		c-5.2-1.3-8.2-4.3-8.2-9.9c0-4,2.2-11.3,14.2-11.3c5.5,0,9.1,1.8,11.2,4.1v-3.1h7.2v19.8l9.1-10.3H63l-9.6,10.5l9.9,16.7h-8.6
		l-6.5-11.7L45.1,44.2z M53.5,67.6l-2.1-3.7l-0.9,1v2.7h-2.3V59h2.3v3.2l2.9-3.2h2.8l-3,3.3l3.1,5.3H53.5z M60.1,67.8
		c-2.3,0-4.4-1.4-4.4-4.5c0-3.1,2.1-4.5,4.4-4.5c2.3,0,4.4,1.4,4.4,4.5C64.5,66.4,62.4,67.8,60.1,67.8z M69.6,67.6h-4.3V59h3.9
		c1.9,0,3.3,0.8,3.3,2.2c0,1-0.7,1.6-1.6,1.8c0.9,0.2,1.9,0.8,1.9,2.2C72.7,66.8,71.5,67.6,69.6,67.6z M77.4,67.8
		c-2.3,0-4.4-1.4-4.4-4.5c0-3.1,2.1-4.5,4.4-4.5c2.3,0,4.4,1.4,4.4,4.5C81.8,66.4,79.7,67.8,77.4,67.8z"/>
	<path class="st0" d="M77.4,60.7c-1.8,0-2.1,1.5-2.1,2.6s0.3,2.6,2.1,2.6c1.7,0,2.1-1.5,2.1-2.6C79.5,62.2,79.2,60.7,77.4,60.7z"/>
	<path class="st0" d="M26.1,21.5c-3,0-6.5,1.1-6.5,4.4c0,2.9,2.4,3.5,3.9,3.8l9,2.2c1.9,0.5,3.8,1.1,5.4,2V27h-4.3
		C33.5,25.4,32.8,21.5,26.1,21.5z"/>
</g>
</svg>
