<?xml version="1.0" encoding="utf-8"?>
<!-- Generator: Adobe Illustrator 21.0.0, SVG Export Plug-In . SVG Version: 6.00 Build 0)  -->
<svg version="1.1" id="Слой_1" xmlns="http://www.w3.org/2000/svg" xmlns:xlink="http://www.w3.org/1999/xlink" x="0px" y="0px"
	 viewBox="0 0 112 80" style="enable-background:new 0 0 112 80;" xml:space="preserve">
<title>Skolkovo Logo</title>
<desc>Created with Sketch.</desc>
<g id="Макет">
	<g id="Годовой-отчет---1-раздел" transform="translate(-115.000000, -30.000000)">
		<g id="Skolkovo-Logo" transform="translate(115.000000, 30.000000)">
			<path d="M110,2v76H2V2H110 M112,0H0v80h112V0L112,0z"/>
		</g>
	</g>
</g>
<g id="Group-20" transform="translate(11.000000, 15.000000)">
	<path id="Fill-2" d="M8.2,44.8c-0.2-0.7-0.6-2.1-2.6-2.1c-1.2,0-2.9,0.8-2.9,4.1c0,2.1,0.9,4,2.9,4c1.3,0,2.3-0.8,2.6-2.2h2.4
		c-0.5,2.5-2.1,4.3-5.1,4.3c-3.1,0-5.3-2.1-5.3-6.1s2.3-6.1,5.3-6.1c3.5,0,4.9,2.4,5,4.1H8.2"/>
	<polygon id="Fill-4" points="13.6,47.2 16.4,44 19.2,44 16.2,47.3 19.3,52.6 16.6,52.6 14.5,48.9 13.6,49.9 13.6,52.6 11.3,52.6 
		11.3,44 13.6,44 	"/>
	<path id="Fill-6" d="M21.1,48.3c0,1.1,0.3,2.6,2.1,2.6c1.7,0,2.1-1.5,2.1-2.6s-0.3-2.6-2.1-2.6S21.1,47.2,21.1,48.3 M27.6,48.3
		c0,3.1-2.1,4.5-4.4,4.5s-4.4-1.4-4.4-4.5s2.1-4.5,4.4-4.5S27.6,45.2,27.6,48.3"/>
	<path id="Fill-8" d="M36.1,44v8.6h-2.3v-6.8h-2.4v2.6c0,3.3-1,4.3-2.6,4.3c-0.4,0-1-0.1-1.4-0.2v-1.7c0,0,0.3,0.1,0.7,0.1
		c0.7,0,1-0.3,1-2.9v-4L36.1,44"/>
	<polygon id="Fill-10" points="39.5,47.2 42.4,44 45.2,44 42.1,47.3 45.2,52.6 42.5,52.6 40.5,48.9 39.5,49.9 39.5,52.6 37.3,52.6 
		37.3,44 39.5,44 	"/>
	<path id="Fill-12" d="M47,48.3c0,1.1,0.3,2.6,2.1,2.6s2.1-1.5,2.1-2.6s-0.3-2.6-2.1-2.6C47.4,45.7,47,47.2,47,48.3 M53.5,48.3
		c0,3.1-2.1,4.5-4.4,4.5c-2.3,0-4.4-1.4-4.4-4.5s2.1-4.5,4.4-4.5S53.5,45.2,53.5,48.3"/>
	<path id="Fill-14" d="M56.5,51h1.7c0.8,0,1.3-0.3,1.3-1.1c0-0.7-0.5-1.1-1.4-1.1h-1.6V51z M56.5,47.5H58c0.8,0,1.3-0.3,1.3-1
		s-0.5-1-1.3-1h-1.5V47.5z M54.3,44h3.9c1.9,0,3.3,0.8,3.3,2.2c0,1-0.7,1.6-1.6,1.8c0.9,0.2,1.9,0.8,1.9,2.2c0,1.6-1.2,2.3-3.2,2.3
		h-4.3L54.3,44L54.3,44z"/>
	<path id="Fill-16" d="M64.3,48.3c0,1.1,0.3,2.6,2.1,2.6c1.7,0,2.1-1.5,2.1-2.6s-0.3-2.6-2.1-2.6C64.7,45.7,64.3,47.2,64.3,48.3
		 M70.8,48.3c0,3.1-2.1,4.5-4.4,4.5S62,51.4,62,48.3s2.1-4.5,4.4-4.5C68.7,43.8,70.8,45.2,70.8,48.3"/>
	<path id="Fill-18" d="M21.6,16.9l-9-2.2c-1.5-0.4-3.9-1-3.9-3.8c0-3.3,3.5-4.4,6.5-4.4c6.7,0,7.3,3.9,7.5,5.6H27v6.8
		C25.4,18,23.5,17.4,21.6,16.9 M16.7,38.8c1.9,0,6.7-0.3,10.2-2.9v2h7.2v-8.6l3-3.1l6.5,11.7h8.6l-9.9-16.7L52,10.6h-8.8l-9.1,10.3
		V1.1h-7.2v3.1c-2.2-2.2-5.7-4-11.2-4c-12,0-14.2,7.2-14.2,11.3c0,5.6,3,8.6,8.2,9.9l7.4,1.8c3.9,1,6.7,1.7,6.7,4.5
		c0,3.8-4.1,4.7-7.7,4.7c-6.7,0-7.8-3.9-7.8-6H0.9C0.9,31,3.3,38.8,16.7,38.8"/>
</g>
</svg>
